%TF.GenerationSoftware,KiCad,Pcbnew,10.0.5*%
%TF.CreationDate,2026-09-03T14:11:13+02:00*%
%TF.ProjectId,wlck_motherboard,776c636b-5f6d-46f7-9468-6572626f6172,rev?*%
%TF.SameCoordinates,Original*%
%TF.FileFunction,Copper,L2,Bot*%
%TF.FilePolarity,Positive*%
%FSLAX46Y46*%
G04 Gerber Fmt 4.6, Leading zero omitted, Abs format (unit mm)*
G04 Created by KiCad (PCBNEW 10.0.5) date 2026-09-03 14:11:13*
%MOMM*%
%LPD*%
G01*
G04 APERTURE LIST*
G04 Aperture macros list*
%AMRoundRect*
0 Rectangle with rounded corners*
0 $1 Rounding radius*
0 $2 $3 $4 $5 $6 $7 $8 $9 X,Y pos of 4 corners*
0 Add a 4 corners polygon primitive as box body*
4,1,4,$2,$3,$4,$5,$6,$7,$8,$9,$2,$3,0*
0 Add four circle primitives for the rounded corners*
1,1,$1+$1,$2,$3*
1,1,$1+$1,$4,$5*
1,1,$1+$1,$6,$7*
1,1,$1+$1,$8,$9*
0 Add four rect primitives between the rounded corners*
20,1,$1+$1,$2,$3,$4,$5,0*
20,1,$1+$1,$4,$5,$6,$7,0*
20,1,$1+$1,$6,$7,$8,$9,0*
20,1,$1+$1,$8,$9,$2,$3,0*%
G04 Aperture macros list end*
%TA.AperFunction,ComponentPad*%
%ADD10R,2.000000X2.000000*%
%TD*%
%TA.AperFunction,ComponentPad*%
%ADD11C,2.000000*%
%TD*%
%TA.AperFunction,ComponentPad*%
%ADD12C,4.100000*%
%TD*%
%TA.AperFunction,ConnectorPad*%
%ADD13C,7.400000*%
%TD*%
%TA.AperFunction,ComponentPad*%
%ADD14R,1.905000X2.000000*%
%TD*%
%TA.AperFunction,ComponentPad*%
%ADD15O,1.905000X2.000000*%
%TD*%
%TA.AperFunction,ComponentPad*%
%ADD16R,1.700000X1.700000*%
%TD*%
%TA.AperFunction,ComponentPad*%
%ADD17C,1.700000*%
%TD*%
%TA.AperFunction,ComponentPad*%
%ADD18RoundRect,0.250000X-0.620000X-0.845000X0.620000X-0.845000X0.620000X0.845000X-0.620000X0.845000X0*%
%TD*%
%TA.AperFunction,ComponentPad*%
%ADD19O,1.740000X2.190000*%
%TD*%
%TA.AperFunction,ComponentPad*%
%ADD20RoundRect,0.250000X-0.550000X-0.550000X0.550000X-0.550000X0.550000X0.550000X-0.550000X0.550000X0*%
%TD*%
%TA.AperFunction,ComponentPad*%
%ADD21C,1.600000*%
%TD*%
%TA.AperFunction,ComponentPad*%
%ADD22RoundRect,0.250000X-0.750000X-0.750000X0.750000X-0.750000X0.750000X0.750000X-0.750000X0.750000X0*%
%TD*%
%TA.AperFunction,ComponentPad*%
%ADD23R,1.800000X1.800000*%
%TD*%
%TA.AperFunction,ComponentPad*%
%ADD24C,1.800000*%
%TD*%
%TA.AperFunction,ComponentPad*%
%ADD25C,3.000000*%
%TD*%
%TA.AperFunction,ComponentPad*%
%ADD26RoundRect,0.250000X0.620000X0.845000X-0.620000X0.845000X-0.620000X-0.845000X0.620000X-0.845000X0*%
%TD*%
%TA.AperFunction,ComponentPad*%
%ADD27R,3.500000X3.500000*%
%TD*%
%TA.AperFunction,ComponentPad*%
%ADD28RoundRect,0.750000X-1.000000X0.750000X-1.000000X-0.750000X1.000000X-0.750000X1.000000X0.750000X0*%
%TD*%
%TA.AperFunction,ComponentPad*%
%ADD29RoundRect,0.875000X-0.875000X0.875000X-0.875000X-0.875000X0.875000X-0.875000X0.875000X0.875000X0*%
%TD*%
%TA.AperFunction,ComponentPad*%
%ADD30C,2.400000*%
%TD*%
%TA.AperFunction,SMDPad,CuDef*%
%ADD31RoundRect,0.150000X-0.150000X0.512500X-0.150000X-0.512500X0.150000X-0.512500X0.150000X0.512500X0*%
%TD*%
%TA.AperFunction,SMDPad,CuDef*%
%ADD32RoundRect,0.250000X0.475000X-0.337500X0.475000X0.337500X-0.475000X0.337500X-0.475000X-0.337500X0*%
%TD*%
%TA.AperFunction,SMDPad,CuDef*%
%ADD33RoundRect,0.250000X0.450000X-0.350000X0.450000X0.350000X-0.450000X0.350000X-0.450000X-0.350000X0*%
%TD*%
%TA.AperFunction,ComponentPad*%
%ADD34RoundRect,0.250000X0.550000X0.550000X-0.550000X0.550000X-0.550000X-0.550000X0.550000X-0.550000X0*%
%TD*%
%TA.AperFunction,ComponentPad*%
%ADD35RoundRect,0.250000X1.330000X1.800000X-1.330000X1.800000X-1.330000X-1.800000X1.330000X-1.800000X0*%
%TD*%
%TA.AperFunction,ComponentPad*%
%ADD36O,3.160000X4.100000*%
%TD*%
%TA.AperFunction,ViaPad*%
%ADD37C,0.600000*%
%TD*%
%TA.AperFunction,Conductor*%
%ADD38C,0.254000*%
%TD*%
G04 APERTURE END LIST*
D10*
%TO.P,D1,1,K_1*%
%TO.N,/Vbat*%
X151000000Y-59500000D03*
D11*
%TO.P,D1,2,A_2*%
%TO.N,Net-(D1-A)*%
X151000000Y-54420000D03*
%TD*%
D12*
%TO.P,H3,1,1_1*%
%TO.N,unconnected-(H3-Pad1)*%
X195000000Y-55000000D03*
D13*
%TO.N,unconnected-(H3-Pad1)_2*%
X195000000Y-55000000D03*
%TD*%
D14*
%TO.P,U3,1,VI_1*%
%TO.N,Net-(D4-K)*%
X190000000Y-122500000D03*
D15*
%TO.P,U3,2,GND_2*%
%TO.N,GND*%
X192540000Y-122500000D03*
%TO.P,U3,3,VO_3*%
%TO.N,/SERVO_6VDC*%
X195080000Y-122500000D03*
%TD*%
D16*
%TO.P,J6,1,Pin_1_1*%
%TO.N,unconnected-(J6-Pin_1-Pad1)*%
X150500000Y-113931800D03*
D17*
%TO.P,J6,2,Pin_2_2*%
%TO.N,GND*%
X153040000Y-113931800D03*
%TO.P,J6,3,Pin_3_3*%
%TO.N,/EN*%
X155580000Y-113931800D03*
%TO.P,J6,4,Pin_4_4*%
%TO.N,/PH*%
X158120000Y-113931800D03*
%TO.P,J6,5,Pin_5_5*%
%TO.N,GND*%
X160660000Y-113931800D03*
%TO.P,J6,6,Pin_6_6*%
%TO.N,/MCU_3V3*%
X163200000Y-113931800D03*
%TO.P,J6,7,Pin_7_7*%
%TO.N,unconnected-(J6-Pin_7-Pad7)*%
X165740000Y-113931800D03*
%TD*%
D18*
%TO.P,J5,1,Pin_1_1*%
%TO.N,/SENSOR_5VDC*%
X102500000Y-135000000D03*
D19*
%TO.P,J5,2,Pin_2_2*%
%TO.N,/SENSOR_TRIG_4*%
X105040000Y-135000000D03*
%TO.P,J5,3,Pin_3_3*%
%TO.N,/SENSOR_ECHO_4*%
X107580000Y-135000000D03*
%TO.P,J5,4,Pin_4_4*%
%TO.N,GND*%
X110120000Y-135000000D03*
%TO.P,J5,5,Pin_5_5*%
%TO.N,unconnected-(J5-Pin_5-Pad5)*%
X112660000Y-135000000D03*
%TD*%
D20*
%TO.P,C6,1*%
%TO.N,Net-(D4-K)*%
X190000000Y-99500000D03*
D21*
%TO.P,C6,2*%
%TO.N,GND*%
X192500000Y-99500000D03*
%TD*%
D18*
%TO.P,J2,1,Pin_1_1*%
%TO.N,/SENSOR_5VDC*%
X102500000Y-111000000D03*
D19*
%TO.P,J2,2,Pin_2_2*%
%TO.N,/SENSOR_TRIG_1*%
X105040000Y-111000000D03*
%TO.P,J2,3,Pin_3_3*%
%TO.N,/SENSOR_ECHO_1*%
X107580000Y-111000000D03*
%TO.P,J2,4,Pin_4_4*%
%TO.N,GND*%
X110120000Y-111000000D03*
%TO.P,J2,5,Pin_5_5*%
%TO.N,unconnected-(J2-Pin_5-Pad5)*%
X112660000Y-111000000D03*
%TD*%
D22*
%TO.P,C4,1*%
%TO.N,Net-(D3-K)*%
X105000000Y-81000000D03*
D11*
%TO.P,C4,2*%
%TO.N,GND*%
X110000000Y-81000000D03*
%TD*%
D16*
%TO.P,J12,1,Pin_1_1*%
%TO.N,unconnected-(J12-Pin_1-Pad1)*%
X179248000Y-101231800D03*
D17*
%TO.P,J12,2,Pin_2_2*%
%TO.N,unconnected-(J12-Pin_2-Pad2)*%
X181788000Y-101231800D03*
%TO.P,J12,3,Pin_3_3*%
%TO.N,/PH*%
X179248000Y-103771800D03*
%TO.P,J12,4,Pin_4_4*%
%TO.N,unconnected-(J12-Pin_4-Pad4)*%
X181788000Y-103771800D03*
%TO.P,J12,5,Pin_5_5*%
%TO.N,/FLT*%
X179248000Y-106311800D03*
%TO.P,J12,6,Pin_6_6*%
%TO.N,/CURRENT_SENSING*%
X181788000Y-106311800D03*
%TO.P,J12,7,Pin_7_7*%
%TO.N,unconnected-(J12-Pin_7-Pad7)*%
X179248000Y-108851800D03*
%TO.P,J12,8,Pin_8_8*%
%TO.N,unconnected-(J12-Pin_8-Pad8)*%
X181788000Y-108851800D03*
%TO.P,J12,9,Pin_9_9*%
%TO.N,unconnected-(J12-Pin_9-Pad9)*%
X179248000Y-111391800D03*
%TO.P,J12,10,Pin_10_10*%
%TO.N,unconnected-(J12-Pin_10-Pad10)*%
X181788000Y-111391800D03*
%TO.P,J12,11,Pin_11_11*%
%TO.N,unconnected-(J12-Pin_11-Pad11)*%
X179248000Y-113931800D03*
%TO.P,J12,12,Pin_12_12*%
%TO.N,/SENSOR_TRIG_4*%
X181788000Y-113931800D03*
%TO.P,J12,13,Pin_13_13*%
%TO.N,unconnected-(J12-Pin_13-Pad13)*%
X179248000Y-116471800D03*
%TO.P,J12,14,Pin_14_14*%
%TO.N,/SENSOR_ECHO_4*%
X181788000Y-116471800D03*
%TO.P,J12,15,Pin_15_15*%
%TO.N,unconnected-(J12-Pin_15-Pad15)*%
X179248000Y-119011800D03*
%TO.P,J12,16,Pin_16_16*%
%TO.N,unconnected-(J12-Pin_16-Pad16)*%
X181788000Y-119011800D03*
%TO.P,J12,17,Pin_17_17*%
%TO.N,/ENCODER_CH_A*%
X179248000Y-121551800D03*
%TO.P,J12,18,Pin_18_18*%
%TO.N,unconnected-(J12-Pin_18-Pad18)*%
X181788000Y-121551800D03*
%TO.P,J12,19,Pin_19_19*%
%TO.N,unconnected-(J12-Pin_19-Pad19)*%
X179248000Y-124091800D03*
%TO.P,J12,20,Pin_20_20*%
%TO.N,unconnected-(J12-Pin_20-Pad20)*%
X181788000Y-124091800D03*
%TO.P,J12,21,Pin_21_21*%
%TO.N,unconnected-(J12-Pin_21-Pad21)*%
X179248000Y-126631800D03*
%TO.P,J12,22,Pin_22_22*%
%TO.N,unconnected-(J12-Pin_22-Pad22)*%
X181788000Y-126631800D03*
%TO.P,J12,23,Pin_23_23*%
%TO.N,unconnected-(J12-Pin_23-Pad23)*%
X179248000Y-129171800D03*
%TO.P,J12,24,Pin_24_24*%
%TO.N,/VOLTAGE_SENSING*%
X181788000Y-129171800D03*
%TO.P,J12,25,Pin_25_25*%
%TO.N,unconnected-(J12-Pin_25-Pad25)*%
X179248000Y-131711800D03*
%TO.P,J12,26,Pin_26_26*%
%TO.N,unconnected-(J12-Pin_26-Pad26)*%
X181788000Y-131711800D03*
%TO.P,J12,27,Pin_27_27*%
%TO.N,/SERVO_PWM*%
X179248000Y-134251800D03*
%TO.P,J12,28,Pin_28_28*%
%TO.N,unconnected-(J12-Pin_28-Pad28)*%
X181788000Y-134251800D03*
%TO.P,J12,29,Pin_29_29*%
%TO.N,unconnected-(J12-Pin_29-Pad29)*%
X179248000Y-136791800D03*
%TO.P,J12,30,Pin_30_30*%
%TO.N,unconnected-(J12-Pin_30-Pad30)*%
X181788000Y-136791800D03*
%TO.P,J12,31,Pin_31_31*%
%TO.N,unconnected-(J12-Pin_31-Pad31)*%
X179248000Y-139331800D03*
%TO.P,J12,32,Pin_32_32*%
%TO.N,unconnected-(J12-Pin_32-Pad32)*%
X181788000Y-139331800D03*
%TO.P,J12,33,Pin_33_33*%
%TO.N,unconnected-(J12-Pin_33-Pad33)*%
X179248000Y-141871800D03*
%TO.P,J12,34,Pin_34_34*%
%TO.N,unconnected-(J12-Pin_34-Pad34)*%
X181788000Y-141871800D03*
%TO.P,J12,35,Pin_35_35*%
%TO.N,unconnected-(J12-Pin_35-Pad35)*%
X179248000Y-144411800D03*
%TO.P,J12,36,Pin_36_36*%
%TO.N,unconnected-(J12-Pin_36-Pad36)*%
X181788000Y-144411800D03*
%TO.P,J12,37,Pin_37_37*%
%TO.N,unconnected-(J12-Pin_37-Pad37)*%
X179248000Y-146951800D03*
%TO.P,J12,38,Pin_38_38*%
%TO.N,unconnected-(J12-Pin_38-Pad38)*%
X181788000Y-146951800D03*
%TD*%
D23*
%TO.P,D7,1,K_1*%
%TO.N,GND*%
X103500000Y-66000000D03*
D24*
%TO.P,D7,2,A_2*%
%TO.N,Net-(D7-A)*%
X106040000Y-66000000D03*
%TD*%
D12*
%TO.P,H1,1,1_1*%
%TO.N,unconnected-(H1-Pad1)*%
X105000000Y-55000000D03*
D13*
%TO.N,unconnected-(H1-Pad1)_1*%
X105000000Y-55000000D03*
%TD*%
D12*
%TO.P,H4,1,1_1*%
%TO.N,unconnected-(H4-Pad1)_1*%
X195000000Y-145000000D03*
D13*
%TO.N,unconnected-(H4-Pad1)_2*%
X195000000Y-145000000D03*
%TD*%
D18*
%TO.P,J4,1,Pin_1_1*%
%TO.N,/SENSOR_5VDC*%
X102500000Y-127000000D03*
D19*
%TO.P,J4,2,Pin_2_2*%
%TO.N,/SENSOR_TRIG_3*%
X105040000Y-127000000D03*
%TO.P,J4,3,Pin_3_3*%
%TO.N,/SENSOR_ECHO_3*%
X107580000Y-127000000D03*
%TO.P,J4,4,Pin_4_4*%
%TO.N,GND*%
X110120000Y-127000000D03*
%TO.P,J4,5,Pin_5_5*%
%TO.N,unconnected-(J4-Pin_5-Pad5)*%
X112660000Y-127000000D03*
%TD*%
D12*
%TO.P,H2,1,1_1*%
%TO.N,unconnected-(H2-Pad1)*%
X105000000Y-145000000D03*
D13*
%TO.N,unconnected-(H2-Pad1)_2*%
X105000000Y-145000000D03*
%TD*%
D16*
%TO.P,J9,1,Pin_1_1*%
%TO.N,/Vin*%
X150500000Y-101231800D03*
D17*
%TO.P,J9,2,Pin_2_2*%
%TO.N,GND*%
X153040000Y-101231800D03*
%TO.P,J9,3,Pin_3_3*%
%TO.N,/MOTOR_OUT1*%
X155580000Y-101231800D03*
%TO.P,J9,4,Pin_4_4*%
%TO.N,/MOTOR_OUT2*%
X158120000Y-101231800D03*
%TO.P,J9,5,Pin_5_5*%
%TO.N,unconnected-(J9-Pin_5-Pad5)*%
X160660000Y-101231800D03*
%TO.P,J9,6,Pin_6_6*%
%TO.N,/FLT*%
X163200000Y-101231800D03*
%TO.P,J9,7,Pin_7_7*%
%TO.N,unconnected-(J9-Pin_7-Pad7)*%
X165740000Y-101231800D03*
%TD*%
D16*
%TO.P,J11,1,Pin_1_1*%
%TO.N,/SENSOR_ECHO_1*%
X118288000Y-101231800D03*
D17*
%TO.P,J11,2,Pin_2_2*%
%TO.N,/SENSOR_TRIG_1*%
X120828000Y-101231800D03*
%TO.P,J11,3,Pin_3_3*%
%TO.N,unconnected-(J11-Pin_3-Pad3)*%
X118288000Y-103771800D03*
%TO.P,J11,4,Pin_4_4*%
%TO.N,unconnected-(J11-Pin_4-Pad4)*%
X120828000Y-103771800D03*
%TO.P,J11,5,Pin_5_5*%
%TO.N,unconnected-(J11-Pin_5-Pad5)*%
X118288000Y-106311800D03*
%TO.P,J11,6,Pin_6_6*%
%TO.N,unconnected-(J11-Pin_6-Pad6)*%
X120828000Y-106311800D03*
%TO.P,J11,7,Pin_7_7*%
%TO.N,unconnected-(J11-Pin_7-Pad7)*%
X118288000Y-108851800D03*
%TO.P,J11,8,Pin_8_8*%
%TO.N,unconnected-(J11-Pin_8-Pad8)*%
X120828000Y-108851800D03*
%TO.P,J11,9,Pin_9_9*%
%TO.N,unconnected-(J11-Pin_9-Pad9)*%
X118288000Y-111391800D03*
%TO.P,J11,10,Pin_10_10*%
%TO.N,unconnected-(J11-Pin_10-Pad10)*%
X120828000Y-111391800D03*
%TO.P,J11,11,Pin_11_11*%
%TO.N,unconnected-(J11-Pin_11-Pad11)*%
X118288000Y-113931800D03*
%TO.P,J11,12,Pin_12_12*%
%TO.N,unconnected-(J11-Pin_12-Pad12)*%
X120828000Y-113931800D03*
%TO.P,J11,13,Pin_13_13*%
%TO.N,unconnected-(J11-Pin_13-Pad13)*%
X118288000Y-116471800D03*
%TO.P,J11,14,Pin_14_14*%
%TO.N,unconnected-(J11-Pin_14-Pad14)*%
X120828000Y-116471800D03*
%TO.P,J11,15,Pin_15_15*%
%TO.N,unconnected-(J11-Pin_15-Pad15)*%
X118288000Y-119011800D03*
%TO.P,J11,16,Pin_16_16*%
%TO.N,/MCU_3V3*%
X120828000Y-119011800D03*
%TO.P,J11,17,Pin_17_17*%
%TO.N,/EN*%
X118288000Y-121551800D03*
%TO.P,J11,18,Pin_18_18*%
%TO.N,unconnected-(J11-Pin_18-Pad18)*%
X120828000Y-121551800D03*
%TO.P,J11,19,Pin_19_19*%
%TO.N,unconnected-(J11-Pin_19-Pad19)*%
X118288000Y-124091800D03*
%TO.P,J11,20,Pin_20_20*%
%TO.N,GND*%
X120828000Y-124091800D03*
%TO.P,J11,21,Pin_21_21*%
%TO.N,/ENCODER_CH_B*%
X118288000Y-126631800D03*
%TO.P,J11,22,Pin_22_22*%
%TO.N,GND*%
X120828000Y-126631800D03*
%TO.P,J11,23,Pin_23_23*%
%TO.N,unconnected-(J11-Pin_23-Pad23)*%
X118288000Y-129171800D03*
%TO.P,J11,24,Pin_24_24*%
%TO.N,/NUCLEO_VIN*%
X120828000Y-129171800D03*
%TO.P,J11,25,Pin_25_25*%
%TO.N,unconnected-(J11-Pin_25-Pad25)*%
X118288000Y-131711800D03*
%TO.P,J11,26,Pin_26_26*%
%TO.N,unconnected-(J11-Pin_26-Pad26)*%
X120828000Y-131711800D03*
%TO.P,J11,27,Pin_27_27*%
%TO.N,unconnected-(J11-Pin_27-Pad27)*%
X118288000Y-134251800D03*
%TO.P,J11,28,Pin_28_28*%
%TO.N,unconnected-(J11-Pin_28-Pad28)*%
X120828000Y-134251800D03*
%TO.P,J11,29,Pin_29_29*%
%TO.N,unconnected-(J11-Pin_29-Pad29)*%
X118288000Y-136791800D03*
%TO.P,J11,30,Pin_30_30*%
%TO.N,unconnected-(J11-Pin_30-Pad30)*%
X120828000Y-136791800D03*
%TO.P,J11,31,Pin_31_31*%
%TO.N,unconnected-(J11-Pin_31-Pad31)*%
X118288000Y-139331800D03*
%TO.P,J11,32,Pin_32_32*%
%TO.N,/SENSOR_ECHO_2*%
X120828000Y-139331800D03*
%TO.P,J11,33,Pin_33_33*%
%TO.N,unconnected-(J11-Pin_33-Pad33)*%
X118288000Y-141871800D03*
%TO.P,J11,34,Pin_34_34*%
%TO.N,/SENSOR_TRIG_2*%
X120828000Y-141871800D03*
%TO.P,J11,35,Pin_35_35*%
%TO.N,/SENSOR_ECHO_3*%
X118288000Y-144411800D03*
%TO.P,J11,36,Pin_36_36*%
%TO.N,unconnected-(J11-Pin_36-Pad36)*%
X120828000Y-144411800D03*
%TO.P,J11,37,Pin_37_37*%
%TO.N,/SENSOR_TRIG_3*%
X118288000Y-146951800D03*
%TO.P,J11,38,Pin_38_38*%
%TO.N,unconnected-(J11-Pin_38-Pad38)*%
X120828000Y-146951800D03*
%TD*%
D25*
%TO.P,F1,1*%
%TO.N,Net-(F1-Pad1)*%
X123000000Y-57000000D03*
%TO.P,F1,2*%
%TO.N,Net-(D1-A)*%
X145600000Y-57000000D03*
%TD*%
D18*
%TO.P,J3,1,Pin_1_1*%
%TO.N,/SENSOR_5VDC*%
X102500000Y-119000000D03*
D19*
%TO.P,J3,2,Pin_2_2*%
%TO.N,/SENSOR_TRIG_2*%
X105040000Y-119000000D03*
%TO.P,J3,3,Pin_3_3*%
%TO.N,/SENSOR_ECHO_2*%
X107580000Y-119000000D03*
%TO.P,J3,4,Pin_4_4*%
%TO.N,GND*%
X110120000Y-119000000D03*
%TO.P,J3,5,Pin_5_5*%
%TO.N,unconnected-(J3-Pin_5-Pad5)*%
X112660000Y-119000000D03*
%TD*%
D14*
%TO.P,U2,1,IN_1*%
%TO.N,Net-(D3-K)*%
X105000000Y-101000000D03*
D15*
%TO.P,U2,2,GND_2*%
%TO.N,GND*%
X107540000Y-101000000D03*
%TO.P,U2,3,OUT_3*%
%TO.N,/SENSOR_5VDC*%
X110080000Y-101000000D03*
%TD*%
D26*
%TO.P,J7,1,Pin_1_1*%
%TO.N,GND*%
X195000000Y-135000000D03*
D19*
%TO.P,J7,2,Pin_2_2*%
%TO.N,/SERVO_6VDC*%
X192460000Y-135000000D03*
%TO.P,J7,3,Pin_3_3*%
%TO.N,/SERVO_PWM*%
X189920000Y-135000000D03*
%TD*%
D27*
%TO.P,J1,1*%
%TO.N,Net-(F1-Pad1)*%
X115000000Y-64000000D03*
D28*
%TO.P,J1,2*%
%TO.N,GND*%
X115000000Y-58000000D03*
D29*
%TO.P,J1,3*%
X110300000Y-61000000D03*
%TD*%
D30*
%TO.P,Rsense1,1*%
%TO.N,/Vbat*%
X162000000Y-57000000D03*
%TO.P,Rsense1,2*%
%TO.N,/Vin*%
X187400000Y-57000000D03*
%TD*%
D31*
%TO.P,U1,1*%
%TO.N,/CURRENT_SENSING*%
X173750000Y-66862500D03*
%TO.P,U1,2,GND_2*%
%TO.N,GND*%
X174700000Y-66862500D03*
%TO.P,U1,3,+_3*%
%TO.N,/Vbat*%
X175650000Y-66862500D03*
%TO.P,U1,4,-_4*%
%TO.N,/Vin*%
X175650000Y-69137500D03*
%TO.P,U1,5,V+_5*%
%TO.N,/Vbat*%
X173750000Y-69137500D03*
%TD*%
D32*
%TO.P,C2,1*%
%TO.N,/Vbat*%
X176250000Y-64787500D03*
%TO.P,C2,2*%
%TO.N,GND*%
X176250000Y-62712500D03*
%TD*%
D33*
%TO.P,R3,1*%
%TO.N,/CURRENT_SENSING*%
X173250000Y-64750000D03*
%TO.P,R3,2*%
%TO.N,GND*%
X173250000Y-62750000D03*
%TD*%
D34*
%TO.P,C5,1*%
%TO.N,/Vin*%
X150500000Y-95000000D03*
D21*
%TO.P,C5,2*%
%TO.N,GND*%
X148000000Y-95000000D03*
%TD*%
D16*
%TO.P,J10,1,Pin_1_1*%
%TO.N,/SENSOR_5VDC*%
X140000000Y-80000000D03*
D17*
%TO.P,J10,2,Pin_2_2*%
%TO.N,/ENCODER_CH_A*%
X137460000Y-80000000D03*
%TO.P,J10,3,Pin_3_3*%
%TO.N,/ENCODER_CH_B*%
X134920000Y-80000000D03*
%TO.P,J10,4,Pin_4_4*%
%TO.N,GND*%
X132380000Y-80000000D03*
%TO.P,J10,5,Pin_5_5*%
%TO.N,unconnected-(J10-Pin_5-Pad5)*%
X129840000Y-80000000D03*
%TD*%
D35*
%TO.P,J8,1,Pin_1_1*%
%TO.N,/MOTOR_OUT2*%
X158500000Y-80000000D03*
D36*
%TO.P,J8,2,Pin_2_2*%
%TO.N,/MOTOR_OUT1*%
X154540000Y-80000000D03*
%TD*%
D37*
%TO.N,/Vbat*%
X171250000Y-71500000D03*
%TO.N,GND*%
X175000000Y-110000000D03*
X124000000Y-96000000D03*
X108900000Y-91100000D03*
X189000000Y-128000000D03*
X170000000Y-110000000D03*
X194250000Y-111000000D03*
X170000000Y-140000000D03*
X181500000Y-71500000D03*
X175000000Y-95000000D03*
X184000000Y-126000000D03*
X140000000Y-140000000D03*
X196000000Y-75000000D03*
X130000000Y-130000000D03*
X140000000Y-115000000D03*
X110000000Y-104500000D03*
X184000000Y-111500000D03*
X196000000Y-85000000D03*
X175000000Y-53000000D03*
X196000000Y-65000000D03*
X165000000Y-95000000D03*
X150000000Y-140000000D03*
X135000000Y-115000000D03*
X170000000Y-130000000D03*
X186500000Y-108000000D03*
X130000000Y-140000000D03*
X165000000Y-53000000D03*
X185000000Y-53000000D03*
X188000000Y-129171800D03*
X175000000Y-115000000D03*
X108900000Y-94500000D03*
X160000000Y-130000000D03*
X175000000Y-85000000D03*
X135000000Y-110000000D03*
X140000000Y-130000000D03*
X140000000Y-110000000D03*
X160000000Y-140000000D03*
X170000000Y-115000000D03*
X194250000Y-115000000D03*
X165000000Y-85000000D03*
X150000000Y-130000000D03*
%TO.N,/CURRENT_SENSING*%
X172856540Y-66643460D03*
%TO.N,/ENCODER_CH_A*%
X143000000Y-120300000D03*
X143000000Y-104000000D03*
X137460000Y-98540000D03*
X143000000Y-118100000D03*
%TD*%
%TO.N,/Vin*%
D38*
X187400000Y-57425000D02*
X187400000Y-57000000D01*
X175650000Y-69137500D02*
X187400000Y-57387500D01*
X187400000Y-57387500D02*
X187400000Y-57000000D01*
%TO.N,/Vbat*%
X175650000Y-67524999D02*
X175268999Y-67906000D01*
X175650000Y-66862500D02*
X175650000Y-67524999D01*
X173156000Y-67906000D02*
X162250000Y-57000000D01*
X173750000Y-69137500D02*
X162000000Y-57387500D01*
X175650000Y-65137500D02*
X176000000Y-64787500D01*
X162000000Y-57000000D02*
X162000000Y-62250000D01*
X175650000Y-66862500D02*
X175650000Y-65137500D01*
X162250000Y-57000000D02*
X162000000Y-57000000D01*
X175268999Y-67906000D02*
X173156000Y-67906000D01*
X162000000Y-57387500D02*
X162000000Y-57000000D01*
X162000000Y-57000000D02*
X162000000Y-58000000D01*
X171250000Y-71500000D02*
X162000000Y-62250000D01*
%TO.N,GND*%
X174700000Y-66324500D02*
X174700000Y-66862500D01*
%TO.N,/CURRENT_SENSING*%
X173750000Y-66862500D02*
X173530960Y-66643460D01*
X173750000Y-66862500D02*
X173750000Y-64500000D01*
X173530960Y-66643460D02*
X172856540Y-66643460D01*
%TO.N,/ENCODER_CH_A*%
X137540000Y-98540000D02*
X137460000Y-98540000D01*
X143000000Y-104000000D02*
X137540000Y-98540000D01*
X143000000Y-118100000D02*
X143000000Y-120300000D01*
%TD*%
%TA.AperFunction,Conductor*%
%TO.N,GND*%
G36*
X120362075Y-126824793D02*
G01*
X120427901Y-126938807D01*
X120520993Y-127031899D01*
X120635007Y-127097725D01*
X120698590Y-127114762D01*
X120066282Y-127747069D01*
X120066282Y-127747070D01*
X120120452Y-127786426D01*
X120120451Y-127786426D01*
X120129495Y-127791034D01*
X120180292Y-127839008D01*
X120197087Y-127906829D01*
X120174550Y-127972964D01*
X120129499Y-128012002D01*
X120120182Y-128016749D01*
X119948213Y-128141690D01*
X119797890Y-128292013D01*
X119672949Y-128463982D01*
X119668484Y-128472746D01*
X119620509Y-128523542D01*
X119552688Y-128540336D01*
X119486553Y-128517798D01*
X119447516Y-128472746D01*
X119443050Y-128463982D01*
X119318109Y-128292013D01*
X119167786Y-128141690D01*
X118995820Y-128016751D01*
X118995115Y-128016391D01*
X118987054Y-128012285D01*
X118936259Y-127964312D01*
X118919463Y-127896492D01*
X118941999Y-127830356D01*
X118987054Y-127791315D01*
X118995816Y-127786851D01*
X119050572Y-127747069D01*
X119167786Y-127661909D01*
X119167788Y-127661906D01*
X119167792Y-127661904D01*
X119318104Y-127511592D01*
X119318106Y-127511588D01*
X119318109Y-127511586D01*
X119403890Y-127393517D01*
X119443051Y-127339616D01*
X119447793Y-127330308D01*
X119495763Y-127279511D01*
X119563583Y-127262711D01*
X119629719Y-127285245D01*
X119668763Y-127330300D01*
X119673373Y-127339347D01*
X119712728Y-127393516D01*
X120345037Y-126761208D01*
X120362075Y-126824793D01*
G37*
%TD.AperFunction*%
%TA.AperFunction,Conductor*%
G36*
X120362075Y-124284793D02*
G01*
X120427901Y-124398807D01*
X120520993Y-124491899D01*
X120635007Y-124557725D01*
X120698591Y-124574762D01*
X120097971Y-125175381D01*
X120176711Y-125292695D01*
X120177920Y-125296529D01*
X120180844Y-125299291D01*
X120188343Y-125329578D01*
X120197727Y-125359329D01*
X120196671Y-125363208D01*
X120197638Y-125367112D01*
X120187573Y-125396644D01*
X120179383Y-125426747D01*
X120176397Y-125429440D01*
X120175100Y-125433247D01*
X120130051Y-125472283D01*
X120120440Y-125477180D01*
X120066282Y-125516527D01*
X120066282Y-125516528D01*
X120698591Y-126148837D01*
X120635007Y-126165875D01*
X120520993Y-126231701D01*
X120427901Y-126324793D01*
X120362075Y-126438807D01*
X120345037Y-126502391D01*
X119712728Y-125870082D01*
X119712727Y-125870082D01*
X119673380Y-125924240D01*
X119673376Y-125924246D01*
X119668760Y-125933305D01*
X119620781Y-125984097D01*
X119552959Y-126000887D01*
X119486826Y-125978343D01*
X119447794Y-125933293D01*
X119443051Y-125923984D01*
X119443049Y-125923981D01*
X119443048Y-125923979D01*
X119318109Y-125752013D01*
X119167786Y-125601690D01*
X118995820Y-125476751D01*
X118995115Y-125476391D01*
X118987054Y-125472285D01*
X118936259Y-125424312D01*
X118919463Y-125356492D01*
X118941999Y-125290356D01*
X118987054Y-125251315D01*
X118995816Y-125246851D01*
X119094187Y-125175381D01*
X119167786Y-125121909D01*
X119167788Y-125121906D01*
X119167792Y-125121904D01*
X119318104Y-124971592D01*
X119318106Y-124971588D01*
X119318109Y-124971586D01*
X119403890Y-124853517D01*
X119443051Y-124799616D01*
X119447793Y-124790308D01*
X119495763Y-124739511D01*
X119563583Y-124722711D01*
X119629719Y-124745245D01*
X119668763Y-124790300D01*
X119673373Y-124799347D01*
X119712728Y-124853516D01*
X120345037Y-124221208D01*
X120362075Y-124284793D01*
G37*
%TD.AperFunction*%
%TA.AperFunction,Conductor*%
G36*
X119629444Y-122205799D02*
G01*
X119668486Y-122250856D01*
X119672951Y-122259620D01*
X119797890Y-122431586D01*
X119948213Y-122581909D01*
X120120179Y-122706848D01*
X120120181Y-122706849D01*
X120120184Y-122706851D01*
X120129493Y-122711594D01*
X120180290Y-122759566D01*
X120197087Y-122827387D01*
X120174552Y-122893522D01*
X120129505Y-122932560D01*
X120120446Y-122937176D01*
X120120440Y-122937180D01*
X120066282Y-122976527D01*
X120066282Y-122976528D01*
X120698591Y-123608837D01*
X120635007Y-123625875D01*
X120520993Y-123691701D01*
X120427901Y-123784793D01*
X120362075Y-123898807D01*
X120345037Y-123962391D01*
X119712728Y-123330082D01*
X119712727Y-123330082D01*
X119673380Y-123384240D01*
X119673376Y-123384246D01*
X119668760Y-123393305D01*
X119620781Y-123444097D01*
X119552959Y-123460887D01*
X119486826Y-123438343D01*
X119447794Y-123393293D01*
X119443051Y-123383984D01*
X119443049Y-123383981D01*
X119443048Y-123383979D01*
X119318109Y-123212013D01*
X119167786Y-123061690D01*
X118995820Y-122936751D01*
X118987600Y-122932563D01*
X118987054Y-122932285D01*
X118936259Y-122884312D01*
X118919463Y-122816492D01*
X118941999Y-122750356D01*
X118987054Y-122711315D01*
X118995816Y-122706851D01*
X119017789Y-122690886D01*
X119167786Y-122581909D01*
X119167788Y-122581906D01*
X119167792Y-122581904D01*
X119318104Y-122431592D01*
X119318106Y-122431588D01*
X119318109Y-122431586D01*
X119443048Y-122259620D01*
X119443047Y-122259620D01*
X119443051Y-122259616D01*
X119447514Y-122250854D01*
X119495488Y-122200059D01*
X119563308Y-122183263D01*
X119629444Y-122205799D01*
G37*
%TD.AperFunction*%
%TA.AperFunction,Conductor*%
G36*
X199442539Y-50520185D02*
G01*
X199488294Y-50572989D01*
X199499500Y-50624500D01*
X199499500Y-149375500D01*
X199479815Y-149442539D01*
X199427011Y-149488294D01*
X199375500Y-149499500D01*
X100624500Y-149499500D01*
X100557461Y-149479815D01*
X100511706Y-149427011D01*
X100500500Y-149375500D01*
X100500500Y-144793646D01*
X100799500Y-144793646D01*
X100799500Y-145206353D01*
X100839952Y-145617084D01*
X100920464Y-146021848D01*
X100920467Y-146021859D01*
X101040274Y-146416814D01*
X101198214Y-146798113D01*
X101198216Y-146798118D01*
X101392759Y-147162081D01*
X101392770Y-147162099D01*
X101622052Y-147505244D01*
X101622062Y-147505258D01*
X101883885Y-147824291D01*
X102175708Y-148116114D01*
X102175713Y-148116118D01*
X102175714Y-148116119D01*
X102494747Y-148377942D01*
X102837907Y-148607234D01*
X102837916Y-148607239D01*
X102837918Y-148607240D01*
X103201881Y-148801783D01*
X103201883Y-148801783D01*
X103201889Y-148801787D01*
X103583187Y-148959726D01*
X103978131Y-149079530D01*
X103978137Y-149079531D01*
X103978140Y-149079532D01*
X103978151Y-149079535D01*
X104382915Y-149160047D01*
X104793643Y-149200500D01*
X104793646Y-149200500D01*
X105206354Y-149200500D01*
X105206357Y-149200500D01*
X105617085Y-149160047D01*
X105695884Y-149144372D01*
X106021848Y-149079535D01*
X106021859Y-149079532D01*
X106021859Y-149079531D01*
X106021869Y-149079530D01*
X106416813Y-148959726D01*
X106798111Y-148801787D01*
X107162093Y-148607234D01*
X107505253Y-148377942D01*
X107824286Y-148116119D01*
X108116119Y-147824286D01*
X108377942Y-147505253D01*
X108607234Y-147162093D01*
X108801787Y-146798111D01*
X108959726Y-146416813D01*
X109079530Y-146021869D01*
X109079532Y-146021859D01*
X109079535Y-146021848D01*
X109160047Y-145617084D01*
X109164555Y-145571314D01*
X109200500Y-145206357D01*
X109200500Y-144793643D01*
X109160047Y-144382915D01*
X109144651Y-144305513D01*
X109079535Y-143978151D01*
X109079532Y-143978140D01*
X109079531Y-143978137D01*
X109079530Y-143978131D01*
X108959726Y-143583187D01*
X108801787Y-143201889D01*
X108766831Y-143136492D01*
X108607240Y-142837918D01*
X108607239Y-142837916D01*
X108607234Y-142837907D01*
X108377942Y-142494747D01*
X108116119Y-142175714D01*
X108116118Y-142175713D01*
X108116114Y-142175708D01*
X107824291Y-141883885D01*
X107505258Y-141622062D01*
X107505257Y-141622061D01*
X107505253Y-141622058D01*
X107162093Y-141392766D01*
X107162088Y-141392763D01*
X107162081Y-141392759D01*
X106798118Y-141198216D01*
X106798113Y-141198214D01*
X106416814Y-141040274D01*
X106021859Y-140920467D01*
X106021848Y-140920464D01*
X105617084Y-140839952D01*
X105307741Y-140809485D01*
X105206357Y-140799500D01*
X104793643Y-140799500D01*
X104699966Y-140808726D01*
X104382915Y-140839952D01*
X103978151Y-140920464D01*
X103978140Y-140920467D01*
X103583185Y-141040274D01*
X103201886Y-141198214D01*
X103201881Y-141198216D01*
X102837918Y-141392759D01*
X102837900Y-141392770D01*
X102494755Y-141622052D01*
X102494741Y-141622062D01*
X102175708Y-141883885D01*
X101883885Y-142175708D01*
X101622062Y-142494741D01*
X101622052Y-142494755D01*
X101392770Y-142837900D01*
X101392759Y-142837918D01*
X101198216Y-143201881D01*
X101198214Y-143201886D01*
X101040274Y-143583185D01*
X100920467Y-143978140D01*
X100920464Y-143978151D01*
X100839952Y-144382915D01*
X100799500Y-144793646D01*
X100500500Y-144793646D01*
X100500500Y-134104983D01*
X101129500Y-134104983D01*
X101129500Y-135895001D01*
X101129501Y-135895018D01*
X101140000Y-135997796D01*
X101140001Y-135997799D01*
X101171464Y-136092746D01*
X101195186Y-136164334D01*
X101287288Y-136313656D01*
X101411344Y-136437712D01*
X101560666Y-136529814D01*
X101727203Y-136584999D01*
X101829991Y-136595500D01*
X103170008Y-136595499D01*
X103272797Y-136584999D01*
X103439334Y-136529814D01*
X103588656Y-136437712D01*
X103712712Y-136313656D01*
X103804814Y-136164334D01*
X103804817Y-136164322D01*
X103805129Y-136163657D01*
X103805469Y-136163269D01*
X103808605Y-136158187D01*
X103809473Y-136158722D01*
X103851299Y-136111216D01*
X103918491Y-136092060D01*
X103985373Y-136112272D01*
X104005195Y-136128375D01*
X104147179Y-136270359D01*
X104321701Y-136397157D01*
X104513911Y-136495092D01*
X104719074Y-136561754D01*
X104786796Y-136572480D01*
X104932134Y-136595500D01*
X104932139Y-136595500D01*
X105147866Y-136595500D01*
X105266230Y-136576752D01*
X105360926Y-136561754D01*
X105566089Y-136495092D01*
X105758299Y-136397157D01*
X105932821Y-136270359D01*
X106085359Y-136117821D01*
X106209682Y-135946704D01*
X106265012Y-135904040D01*
X106334626Y-135898061D01*
X106396420Y-135930667D01*
X106410315Y-135946702D01*
X106534641Y-136117821D01*
X106687179Y-136270359D01*
X106861701Y-136397157D01*
X107053911Y-136495092D01*
X107259074Y-136561754D01*
X107326796Y-136572480D01*
X107472134Y-136595500D01*
X107472139Y-136595500D01*
X107687866Y-136595500D01*
X107806230Y-136576752D01*
X107900926Y-136561754D01*
X108106089Y-136495092D01*
X108298299Y-136397157D01*
X108472821Y-136270359D01*
X108625359Y-136117821D01*
X108749991Y-135946279D01*
X108805321Y-135903614D01*
X108874934Y-135897635D01*
X108936729Y-135930241D01*
X108950627Y-135946279D01*
X109075025Y-136117496D01*
X109075025Y-136117497D01*
X109227502Y-136269974D01*
X109401963Y-136396728D01*
X109594098Y-136494627D01*
X109799190Y-136561266D01*
X109870000Y-136572481D01*
X109870000Y-135542709D01*
X109890339Y-135554452D01*
X110041667Y-135595000D01*
X110198333Y-135595000D01*
X110349661Y-135554452D01*
X110370000Y-135542709D01*
X110370000Y-136572480D01*
X110440809Y-136561266D01*
X110645901Y-136494627D01*
X110838036Y-136396728D01*
X111012496Y-136269974D01*
X111012497Y-136269974D01*
X111164974Y-136117497D01*
X111164979Y-136117491D01*
X111289372Y-135946280D01*
X111344702Y-135903614D01*
X111414315Y-135897635D01*
X111476110Y-135930241D01*
X111490008Y-135946279D01*
X111614641Y-136117821D01*
X111767179Y-136270359D01*
X111941701Y-136397157D01*
X112133911Y-136495092D01*
X112339074Y-136561754D01*
X112406796Y-136572480D01*
X112552134Y-136595500D01*
X112552139Y-136595500D01*
X112767866Y-136595500D01*
X112886230Y-136576752D01*
X112980926Y-136561754D01*
X113186089Y-136495092D01*
X113378299Y-136397157D01*
X113552821Y-136270359D01*
X113705359Y-136117821D01*
X113832157Y-135943299D01*
X113930092Y-135751089D01*
X113996754Y-135545926D01*
X114018074Y-135411316D01*
X114030500Y-135332866D01*
X114030500Y-134667133D01*
X113996754Y-134454077D01*
X113996754Y-134454074D01*
X113930092Y-134248911D01*
X113832157Y-134056701D01*
X113705359Y-133882179D01*
X113552821Y-133729641D01*
X113378299Y-133602843D01*
X113186089Y-133504908D01*
X112980926Y-133438246D01*
X112980924Y-133438245D01*
X112980922Y-133438245D01*
X112767866Y-133404500D01*
X112767861Y-133404500D01*
X112552139Y-133404500D01*
X112552134Y-133404500D01*
X112339077Y-133438245D01*
X112133908Y-133504909D01*
X111941700Y-133602843D01*
X111842129Y-133675186D01*
X111767179Y-133729641D01*
X111767177Y-133729643D01*
X111767176Y-133729643D01*
X111614642Y-133882177D01*
X111490008Y-134053720D01*
X111434677Y-134096385D01*
X111365064Y-134102364D01*
X111303269Y-134069758D01*
X111289372Y-134053720D01*
X111164974Y-133882503D01*
X111164974Y-133882502D01*
X111012497Y-133730025D01*
X110838036Y-133603271D01*
X110645899Y-133505372D01*
X110440805Y-133438733D01*
X110370000Y-133427518D01*
X110370000Y-134457290D01*
X110349661Y-134445548D01*
X110198333Y-134405000D01*
X110041667Y-134405000D01*
X109890339Y-134445548D01*
X109870000Y-134457290D01*
X109870000Y-133427518D01*
X109869999Y-133427518D01*
X109799194Y-133438733D01*
X109594100Y-133505372D01*
X109401963Y-133603271D01*
X109227503Y-133730025D01*
X109227502Y-133730025D01*
X109075024Y-133882503D01*
X108950627Y-134053720D01*
X108895296Y-134096385D01*
X108825683Y-134102364D01*
X108763888Y-134069758D01*
X108749991Y-134053720D01*
X108625359Y-133882179D01*
X108472821Y-133729641D01*
X108298299Y-133602843D01*
X108106089Y-133504908D01*
X107900926Y-133438246D01*
X107900924Y-133438245D01*
X107900922Y-133438245D01*
X107687866Y-133404500D01*
X107687861Y-133404500D01*
X107472139Y-133404500D01*
X107472134Y-133404500D01*
X107259077Y-133438245D01*
X107053908Y-133504909D01*
X106861700Y-133602843D01*
X106762129Y-133675186D01*
X106687179Y-133729641D01*
X106687177Y-133729643D01*
X106687176Y-133729643D01*
X106534643Y-133882176D01*
X106534643Y-133882177D01*
X106534641Y-133882179D01*
X106457729Y-133988038D01*
X106410318Y-134053294D01*
X106354988Y-134095959D01*
X106285374Y-134101938D01*
X106223579Y-134069332D01*
X106209682Y-134053294D01*
X106187435Y-134022674D01*
X106085359Y-133882179D01*
X105932821Y-133729641D01*
X105758299Y-133602843D01*
X105566089Y-133504908D01*
X105360926Y-133438246D01*
X105360924Y-133438245D01*
X105360922Y-133438245D01*
X105147866Y-133404500D01*
X105147861Y-133404500D01*
X104932139Y-133404500D01*
X104932134Y-133404500D01*
X104719077Y-133438245D01*
X104513908Y-133504909D01*
X104321700Y-133602843D01*
X104147180Y-133729640D01*
X104005195Y-133871625D01*
X103943872Y-133905109D01*
X103874180Y-133900125D01*
X103818247Y-133858253D01*
X103805132Y-133836348D01*
X103804815Y-133835669D01*
X103804814Y-133835668D01*
X103804814Y-133835666D01*
X103712712Y-133686344D01*
X103588656Y-133562288D01*
X103439334Y-133470186D01*
X103272797Y-133415001D01*
X103272795Y-133415000D01*
X103170010Y-133404500D01*
X101829998Y-133404500D01*
X101829981Y-133404501D01*
X101727203Y-133415000D01*
X101727200Y-133415001D01*
X101560668Y-133470185D01*
X101560663Y-133470187D01*
X101411342Y-133562289D01*
X101287289Y-133686342D01*
X101195187Y-133835663D01*
X101195185Y-133835668D01*
X101195115Y-133835880D01*
X101140001Y-134002203D01*
X101140001Y-134002204D01*
X101140000Y-134002204D01*
X101129500Y-134104983D01*
X100500500Y-134104983D01*
X100500500Y-126104983D01*
X101129500Y-126104983D01*
X101129500Y-127895001D01*
X101129501Y-127895018D01*
X101140000Y-127997796D01*
X101140001Y-127997799D01*
X101187684Y-128141696D01*
X101195186Y-128164334D01*
X101287288Y-128313656D01*
X101411344Y-128437712D01*
X101560666Y-128529814D01*
X101727203Y-128584999D01*
X101829991Y-128595500D01*
X103170008Y-128595499D01*
X103272797Y-128584999D01*
X103439334Y-128529814D01*
X103588656Y-128437712D01*
X103712712Y-128313656D01*
X103804814Y-128164334D01*
X103804817Y-128164322D01*
X103805129Y-128163657D01*
X103805469Y-128163269D01*
X103808605Y-128158187D01*
X103809473Y-128158722D01*
X103851299Y-128111216D01*
X103918491Y-128092060D01*
X103985373Y-128112272D01*
X104005195Y-128128375D01*
X104147179Y-128270359D01*
X104321701Y-128397157D01*
X104513911Y-128495092D01*
X104719074Y-128561754D01*
X104786796Y-128572480D01*
X104932134Y-128595500D01*
X104932139Y-128595500D01*
X105147866Y-128595500D01*
X105266230Y-128576752D01*
X105360926Y-128561754D01*
X105566089Y-128495092D01*
X105758299Y-128397157D01*
X105932821Y-128270359D01*
X106085359Y-128117821D01*
X106209682Y-127946704D01*
X106265012Y-127904040D01*
X106334626Y-127898061D01*
X106396420Y-127930667D01*
X106410315Y-127946702D01*
X106534641Y-128117821D01*
X106687179Y-128270359D01*
X106861701Y-128397157D01*
X107053911Y-128495092D01*
X107259074Y-128561754D01*
X107326796Y-128572480D01*
X107472134Y-128595500D01*
X107472139Y-128595500D01*
X107687866Y-128595500D01*
X107806230Y-128576752D01*
X107900926Y-128561754D01*
X108106089Y-128495092D01*
X108298299Y-128397157D01*
X108472821Y-128270359D01*
X108625359Y-128117821D01*
X108749991Y-127946279D01*
X108805321Y-127903614D01*
X108874934Y-127897635D01*
X108936729Y-127930241D01*
X108950627Y-127946279D01*
X109075025Y-128117496D01*
X109075025Y-128117497D01*
X109227502Y-128269974D01*
X109401963Y-128396728D01*
X109594098Y-128494627D01*
X109799190Y-128561266D01*
X109870000Y-128572481D01*
X109870000Y-127542709D01*
X109890339Y-127554452D01*
X110041667Y-127595000D01*
X110198333Y-127595000D01*
X110349661Y-127554452D01*
X110370000Y-127542709D01*
X110370000Y-128572480D01*
X110440809Y-128561266D01*
X110645901Y-128494627D01*
X110838036Y-128396728D01*
X111012496Y-128269974D01*
X111012497Y-128269974D01*
X111164974Y-128117497D01*
X111164979Y-128117491D01*
X111289372Y-127946280D01*
X111344702Y-127903614D01*
X111414315Y-127897635D01*
X111476110Y-127930241D01*
X111490008Y-127946279D01*
X111614641Y-128117821D01*
X111767179Y-128270359D01*
X111941701Y-128397157D01*
X112133911Y-128495092D01*
X112339074Y-128561754D01*
X112406796Y-128572480D01*
X112552134Y-128595500D01*
X112552139Y-128595500D01*
X112767866Y-128595500D01*
X112886230Y-128576752D01*
X112980926Y-128561754D01*
X113186089Y-128495092D01*
X113378299Y-128397157D01*
X113552821Y-128270359D01*
X113705359Y-128117821D01*
X113832157Y-127943299D01*
X113930092Y-127751089D01*
X113996754Y-127545926D01*
X114020893Y-127393517D01*
X114030500Y-127332866D01*
X114030500Y-126667133D01*
X113996754Y-126454077D01*
X113996754Y-126454074D01*
X113930092Y-126248911D01*
X113832157Y-126056701D01*
X113705359Y-125882179D01*
X113552821Y-125729641D01*
X113378299Y-125602843D01*
X113186089Y-125504908D01*
X112980926Y-125438246D01*
X112980924Y-125438245D01*
X112980922Y-125438245D01*
X112767866Y-125404500D01*
X112767861Y-125404500D01*
X112552139Y-125404500D01*
X112552134Y-125404500D01*
X112339077Y-125438245D01*
X112133908Y-125504909D01*
X111941700Y-125602843D01*
X111842129Y-125675186D01*
X111767179Y-125729641D01*
X111767177Y-125729643D01*
X111767176Y-125729643D01*
X111614642Y-125882177D01*
X111490008Y-126053720D01*
X111434677Y-126096385D01*
X111365064Y-126102364D01*
X111303269Y-126069758D01*
X111289372Y-126053720D01*
X111164974Y-125882503D01*
X111164974Y-125882502D01*
X111012497Y-125730025D01*
X110838036Y-125603271D01*
X110645899Y-125505372D01*
X110440805Y-125438733D01*
X110370000Y-125427518D01*
X110370000Y-126457290D01*
X110349661Y-126445548D01*
X110198333Y-126405000D01*
X110041667Y-126405000D01*
X109890339Y-126445548D01*
X109870000Y-126457290D01*
X109870000Y-125427518D01*
X109869999Y-125427518D01*
X109799194Y-125438733D01*
X109594100Y-125505372D01*
X109401963Y-125603271D01*
X109227503Y-125730025D01*
X109227502Y-125730025D01*
X109075024Y-125882503D01*
X108950627Y-126053720D01*
X108895296Y-126096385D01*
X108825683Y-126102364D01*
X108763888Y-126069758D01*
X108749991Y-126053720D01*
X108625359Y-125882179D01*
X108472821Y-125729641D01*
X108298299Y-125602843D01*
X108106089Y-125504908D01*
X107900926Y-125438246D01*
X107900924Y-125438245D01*
X107900922Y-125438245D01*
X107687866Y-125404500D01*
X107687861Y-125404500D01*
X107472139Y-125404500D01*
X107472134Y-125404500D01*
X107259077Y-125438245D01*
X107053908Y-125504909D01*
X106861700Y-125602843D01*
X106762129Y-125675186D01*
X106687179Y-125729641D01*
X106687177Y-125729643D01*
X106687176Y-125729643D01*
X106534643Y-125882176D01*
X106534643Y-125882177D01*
X106534641Y-125882179D01*
X106497902Y-125932746D01*
X106410318Y-126053294D01*
X106354988Y-126095959D01*
X106285374Y-126101938D01*
X106223579Y-126069332D01*
X106209682Y-126053294D01*
X106187435Y-126022674D01*
X106085359Y-125882179D01*
X105932821Y-125729641D01*
X105758299Y-125602843D01*
X105566089Y-125504908D01*
X105360926Y-125438246D01*
X105360924Y-125438245D01*
X105360922Y-125438245D01*
X105147866Y-125404500D01*
X105147861Y-125404500D01*
X104932139Y-125404500D01*
X104932134Y-125404500D01*
X104719077Y-125438245D01*
X104513908Y-125504909D01*
X104321700Y-125602843D01*
X104147180Y-125729640D01*
X104005195Y-125871625D01*
X103943872Y-125905109D01*
X103874180Y-125900125D01*
X103818247Y-125858253D01*
X103805132Y-125836348D01*
X103804815Y-125835669D01*
X103804814Y-125835668D01*
X103804814Y-125835666D01*
X103712712Y-125686344D01*
X103588656Y-125562288D01*
X103449978Y-125476751D01*
X103439336Y-125470187D01*
X103439331Y-125470185D01*
X103437862Y-125469698D01*
X103272797Y-125415001D01*
X103272795Y-125415000D01*
X103170010Y-125404500D01*
X101829998Y-125404500D01*
X101829981Y-125404501D01*
X101727203Y-125415000D01*
X101727200Y-125415001D01*
X101560668Y-125470185D01*
X101560663Y-125470187D01*
X101411342Y-125562289D01*
X101287289Y-125686342D01*
X101195187Y-125835663D01*
X101195185Y-125835668D01*
X101183270Y-125871625D01*
X101140001Y-126002203D01*
X101140001Y-126002204D01*
X101140000Y-126002204D01*
X101129500Y-126104983D01*
X100500500Y-126104983D01*
X100500500Y-118104983D01*
X101129500Y-118104983D01*
X101129500Y-119895001D01*
X101129501Y-119895018D01*
X101140000Y-119997796D01*
X101140001Y-119997799D01*
X101195185Y-120164331D01*
X101195187Y-120164336D01*
X101223572Y-120210356D01*
X101287288Y-120313656D01*
X101411344Y-120437712D01*
X101560666Y-120529814D01*
X101727203Y-120584999D01*
X101829991Y-120595500D01*
X103170008Y-120595499D01*
X103272797Y-120584999D01*
X103439334Y-120529814D01*
X103588656Y-120437712D01*
X103712712Y-120313656D01*
X103804814Y-120164334D01*
X103804817Y-120164322D01*
X103805129Y-120163657D01*
X103805469Y-120163269D01*
X103808605Y-120158187D01*
X103809473Y-120158722D01*
X103851299Y-120111216D01*
X103918491Y-120092060D01*
X103985373Y-120112272D01*
X104005195Y-120128375D01*
X104147179Y-120270359D01*
X104321701Y-120397157D01*
X104513911Y-120495092D01*
X104719074Y-120561754D01*
X104786796Y-120572480D01*
X104932134Y-120595500D01*
X104932139Y-120595500D01*
X105147866Y-120595500D01*
X105266230Y-120576752D01*
X105360926Y-120561754D01*
X105566089Y-120495092D01*
X105758299Y-120397157D01*
X105932821Y-120270359D01*
X106085359Y-120117821D01*
X106209682Y-119946704D01*
X106265012Y-119904040D01*
X106334626Y-119898061D01*
X106396420Y-119930667D01*
X106410315Y-119946702D01*
X106534641Y-120117821D01*
X106687179Y-120270359D01*
X106861701Y-120397157D01*
X107053911Y-120495092D01*
X107259074Y-120561754D01*
X107326796Y-120572480D01*
X107472134Y-120595500D01*
X107472139Y-120595500D01*
X107687866Y-120595500D01*
X107806230Y-120576752D01*
X107900926Y-120561754D01*
X108106089Y-120495092D01*
X108298299Y-120397157D01*
X108472821Y-120270359D01*
X108625359Y-120117821D01*
X108749991Y-119946279D01*
X108805321Y-119903614D01*
X108874934Y-119897635D01*
X108936729Y-119930241D01*
X108950627Y-119946279D01*
X109075025Y-120117496D01*
X109075025Y-120117497D01*
X109227502Y-120269974D01*
X109401963Y-120396728D01*
X109594098Y-120494627D01*
X109799190Y-120561266D01*
X109870000Y-120572481D01*
X109870000Y-119542709D01*
X109890339Y-119554452D01*
X110041667Y-119595000D01*
X110198333Y-119595000D01*
X110349661Y-119554452D01*
X110370000Y-119542709D01*
X110370000Y-120572480D01*
X110440809Y-120561266D01*
X110645901Y-120494627D01*
X110838036Y-120396728D01*
X111012496Y-120269974D01*
X111012497Y-120269974D01*
X111164974Y-120117497D01*
X111164979Y-120117491D01*
X111289372Y-119946280D01*
X111344702Y-119903614D01*
X111414315Y-119897635D01*
X111476110Y-119930241D01*
X111490008Y-119946279D01*
X111614641Y-120117821D01*
X111767179Y-120270359D01*
X111941701Y-120397157D01*
X112133911Y-120495092D01*
X112339074Y-120561754D01*
X112406796Y-120572480D01*
X112552134Y-120595500D01*
X112552139Y-120595500D01*
X112767866Y-120595500D01*
X112886230Y-120576752D01*
X112980926Y-120561754D01*
X113186089Y-120495092D01*
X113378299Y-120397157D01*
X113552821Y-120270359D01*
X113705359Y-120117821D01*
X113832157Y-119943299D01*
X113930092Y-119751089D01*
X113996754Y-119545926D01*
X114011752Y-119451230D01*
X114030500Y-119332866D01*
X114030500Y-118667133D01*
X114007810Y-118523882D01*
X113996754Y-118454074D01*
X113930092Y-118248911D01*
X113832157Y-118056701D01*
X113705359Y-117882179D01*
X113552821Y-117729641D01*
X113378299Y-117602843D01*
X113186089Y-117504908D01*
X112980926Y-117438246D01*
X112980924Y-117438245D01*
X112980922Y-117438245D01*
X112767866Y-117404500D01*
X112767861Y-117404500D01*
X112552139Y-117404500D01*
X112552134Y-117404500D01*
X112339077Y-117438245D01*
X112133908Y-117504909D01*
X111941700Y-117602843D01*
X111902514Y-117631314D01*
X111767179Y-117729641D01*
X111767177Y-117729643D01*
X111767176Y-117729643D01*
X111614642Y-117882177D01*
X111490008Y-118053720D01*
X111434677Y-118096385D01*
X111365064Y-118102364D01*
X111303269Y-118069758D01*
X111289372Y-118053720D01*
X111164974Y-117882503D01*
X111164974Y-117882502D01*
X111012497Y-117730025D01*
X110838036Y-117603271D01*
X110645899Y-117505372D01*
X110440805Y-117438733D01*
X110370000Y-117427518D01*
X110370000Y-118457290D01*
X110349661Y-118445548D01*
X110198333Y-118405000D01*
X110041667Y-118405000D01*
X109890339Y-118445548D01*
X109870000Y-118457290D01*
X109870000Y-117427518D01*
X109869999Y-117427518D01*
X109799194Y-117438733D01*
X109594100Y-117505372D01*
X109401963Y-117603271D01*
X109227503Y-117730025D01*
X109227502Y-117730025D01*
X109075024Y-117882503D01*
X108950627Y-118053720D01*
X108895296Y-118096385D01*
X108825683Y-118102364D01*
X108763888Y-118069758D01*
X108749991Y-118053720D01*
X108625359Y-117882179D01*
X108472821Y-117729641D01*
X108298299Y-117602843D01*
X108106089Y-117504908D01*
X107900926Y-117438246D01*
X107900924Y-117438245D01*
X107900922Y-117438245D01*
X107687866Y-117404500D01*
X107687861Y-117404500D01*
X107472139Y-117404500D01*
X107472134Y-117404500D01*
X107259077Y-117438245D01*
X107053908Y-117504909D01*
X106861700Y-117602843D01*
X106822514Y-117631314D01*
X106687179Y-117729641D01*
X106687177Y-117729643D01*
X106687176Y-117729643D01*
X106534643Y-117882176D01*
X106534643Y-117882177D01*
X106534641Y-117882179D01*
X106457729Y-117988038D01*
X106410318Y-118053294D01*
X106354988Y-118095959D01*
X106285374Y-118101938D01*
X106223579Y-118069332D01*
X106209682Y-118053294D01*
X106186330Y-118021153D01*
X106085359Y-117882179D01*
X105932821Y-117729641D01*
X105758299Y-117602843D01*
X105566089Y-117504908D01*
X105360926Y-117438246D01*
X105360924Y-117438245D01*
X105360922Y-117438245D01*
X105147866Y-117404500D01*
X105147861Y-117404500D01*
X104932139Y-117404500D01*
X104932134Y-117404500D01*
X104719077Y-117438245D01*
X104513908Y-117504909D01*
X104321700Y-117602843D01*
X104147180Y-117729640D01*
X104005195Y-117871625D01*
X103943872Y-117905109D01*
X103874180Y-117900125D01*
X103818247Y-117858253D01*
X103805132Y-117836348D01*
X103804815Y-117835669D01*
X103804814Y-117835668D01*
X103804814Y-117835666D01*
X103712712Y-117686344D01*
X103588656Y-117562288D01*
X103495628Y-117504908D01*
X103439336Y-117470187D01*
X103439331Y-117470185D01*
X103437862Y-117469698D01*
X103272797Y-117415001D01*
X103272795Y-117415000D01*
X103170010Y-117404500D01*
X101829998Y-117404500D01*
X101829981Y-117404501D01*
X101727203Y-117415000D01*
X101727200Y-117415001D01*
X101560668Y-117470185D01*
X101560663Y-117470187D01*
X101411342Y-117562289D01*
X101287289Y-117686342D01*
X101195187Y-117835663D01*
X101195185Y-117835668D01*
X101184965Y-117866510D01*
X101140001Y-118002203D01*
X101140001Y-118002204D01*
X101140000Y-118002204D01*
X101129500Y-118104983D01*
X100500500Y-118104983D01*
X100500500Y-110104983D01*
X101129500Y-110104983D01*
X101129500Y-111895001D01*
X101129501Y-111895018D01*
X101140000Y-111997796D01*
X101140001Y-111997799D01*
X101173742Y-112099620D01*
X101195186Y-112164334D01*
X101287288Y-112313656D01*
X101411344Y-112437712D01*
X101560666Y-112529814D01*
X101727203Y-112584999D01*
X101829991Y-112595500D01*
X103170008Y-112595499D01*
X103272797Y-112584999D01*
X103439334Y-112529814D01*
X103588656Y-112437712D01*
X103712712Y-112313656D01*
X103804814Y-112164334D01*
X103804817Y-112164322D01*
X103805129Y-112163657D01*
X103805469Y-112163269D01*
X103808605Y-112158187D01*
X103809473Y-112158722D01*
X103851299Y-112111216D01*
X103918491Y-112092060D01*
X103985373Y-112112272D01*
X104005195Y-112128375D01*
X104147179Y-112270359D01*
X104321701Y-112397157D01*
X104513911Y-112495092D01*
X104719074Y-112561754D01*
X104786796Y-112572480D01*
X104932134Y-112595500D01*
X104932139Y-112595500D01*
X105147866Y-112595500D01*
X105266230Y-112576752D01*
X105360926Y-112561754D01*
X105566089Y-112495092D01*
X105758299Y-112397157D01*
X105932821Y-112270359D01*
X106085359Y-112117821D01*
X106209682Y-111946704D01*
X106265012Y-111904040D01*
X106334626Y-111898061D01*
X106396420Y-111930667D01*
X106410315Y-111946702D01*
X106534641Y-112117821D01*
X106687179Y-112270359D01*
X106861701Y-112397157D01*
X107053911Y-112495092D01*
X107259074Y-112561754D01*
X107326796Y-112572480D01*
X107472134Y-112595500D01*
X107472139Y-112595500D01*
X107687866Y-112595500D01*
X107806230Y-112576752D01*
X107900926Y-112561754D01*
X108106089Y-112495092D01*
X108298299Y-112397157D01*
X108472821Y-112270359D01*
X108625359Y-112117821D01*
X108749991Y-111946279D01*
X108805321Y-111903614D01*
X108874934Y-111897635D01*
X108936729Y-111930241D01*
X108950627Y-111946279D01*
X109075025Y-112117496D01*
X109075025Y-112117497D01*
X109227502Y-112269974D01*
X109401963Y-112396728D01*
X109594098Y-112494627D01*
X109799190Y-112561266D01*
X109870000Y-112572481D01*
X109870000Y-111542709D01*
X109890339Y-111554452D01*
X110041667Y-111595000D01*
X110198333Y-111595000D01*
X110349661Y-111554452D01*
X110370000Y-111542709D01*
X110370000Y-112572480D01*
X110440809Y-112561266D01*
X110645901Y-112494627D01*
X110838036Y-112396728D01*
X111012496Y-112269974D01*
X111012497Y-112269974D01*
X111164974Y-112117497D01*
X111164979Y-112117491D01*
X111289372Y-111946280D01*
X111344702Y-111903614D01*
X111414315Y-111897635D01*
X111476110Y-111930241D01*
X111490008Y-111946279D01*
X111614641Y-112117821D01*
X111767179Y-112270359D01*
X111941701Y-112397157D01*
X112133911Y-112495092D01*
X112339074Y-112561754D01*
X112406796Y-112572480D01*
X112552134Y-112595500D01*
X112552139Y-112595500D01*
X112767866Y-112595500D01*
X112886230Y-112576752D01*
X112980926Y-112561754D01*
X113186089Y-112495092D01*
X113378299Y-112397157D01*
X113552821Y-112270359D01*
X113705359Y-112117821D01*
X113832157Y-111943299D01*
X113930092Y-111751089D01*
X113996754Y-111545926D01*
X114011752Y-111451230D01*
X114030500Y-111332866D01*
X114030500Y-110667133D01*
X114007810Y-110523882D01*
X113996754Y-110454074D01*
X113930092Y-110248911D01*
X113832157Y-110056701D01*
X113705359Y-109882179D01*
X113552821Y-109729641D01*
X113378299Y-109602843D01*
X113186089Y-109504908D01*
X112980926Y-109438246D01*
X112980924Y-109438245D01*
X112980922Y-109438245D01*
X112767866Y-109404500D01*
X112767861Y-109404500D01*
X112552139Y-109404500D01*
X112552134Y-109404500D01*
X112339077Y-109438245D01*
X112133908Y-109504909D01*
X111941700Y-109602843D01*
X111842129Y-109675186D01*
X111767179Y-109729641D01*
X111767177Y-109729643D01*
X111767176Y-109729643D01*
X111614642Y-109882177D01*
X111490008Y-110053720D01*
X111434677Y-110096385D01*
X111365064Y-110102364D01*
X111303269Y-110069758D01*
X111289372Y-110053720D01*
X111164974Y-109882503D01*
X111164974Y-109882502D01*
X111012497Y-109730025D01*
X110838036Y-109603271D01*
X110645899Y-109505372D01*
X110440805Y-109438733D01*
X110370000Y-109427518D01*
X110370000Y-110457290D01*
X110349661Y-110445548D01*
X110198333Y-110405000D01*
X110041667Y-110405000D01*
X109890339Y-110445548D01*
X109870000Y-110457290D01*
X109870000Y-109427518D01*
X109869999Y-109427518D01*
X109799194Y-109438733D01*
X109594100Y-109505372D01*
X109401963Y-109603271D01*
X109227503Y-109730025D01*
X109227502Y-109730025D01*
X109075024Y-109882503D01*
X108950627Y-110053720D01*
X108895296Y-110096385D01*
X108825683Y-110102364D01*
X108763888Y-110069758D01*
X108749991Y-110053720D01*
X108625359Y-109882179D01*
X108472821Y-109729641D01*
X108298299Y-109602843D01*
X108106089Y-109504908D01*
X107900926Y-109438246D01*
X107900924Y-109438245D01*
X107900922Y-109438245D01*
X107687866Y-109404500D01*
X107687861Y-109404500D01*
X107472139Y-109404500D01*
X107472134Y-109404500D01*
X107259077Y-109438245D01*
X107053908Y-109504909D01*
X106861700Y-109602843D01*
X106762129Y-109675186D01*
X106687179Y-109729641D01*
X106687177Y-109729643D01*
X106687176Y-109729643D01*
X106534643Y-109882176D01*
X106534643Y-109882177D01*
X106534641Y-109882179D01*
X106457729Y-109988038D01*
X106410318Y-110053294D01*
X106354988Y-110095959D01*
X106285374Y-110101938D01*
X106223579Y-110069332D01*
X106209682Y-110053294D01*
X106175938Y-110006850D01*
X106085359Y-109882179D01*
X105932821Y-109729641D01*
X105758299Y-109602843D01*
X105566089Y-109504908D01*
X105360926Y-109438246D01*
X105360924Y-109438245D01*
X105360922Y-109438245D01*
X105147866Y-109404500D01*
X105147861Y-109404500D01*
X104932139Y-109404500D01*
X104932134Y-109404500D01*
X104719077Y-109438245D01*
X104513908Y-109504909D01*
X104321700Y-109602843D01*
X104147180Y-109729640D01*
X104005195Y-109871625D01*
X103943872Y-109905109D01*
X103874180Y-109900125D01*
X103818247Y-109858253D01*
X103805132Y-109836348D01*
X103804815Y-109835669D01*
X103804814Y-109835668D01*
X103804814Y-109835666D01*
X103712712Y-109686344D01*
X103588656Y-109562288D01*
X103487766Y-109500059D01*
X103439336Y-109470187D01*
X103439331Y-109470185D01*
X103437862Y-109469698D01*
X103272797Y-109415001D01*
X103272795Y-109415000D01*
X103170010Y-109404500D01*
X101829998Y-109404500D01*
X101829981Y-109404501D01*
X101727203Y-109415000D01*
X101727200Y-109415001D01*
X101560668Y-109470185D01*
X101560663Y-109470187D01*
X101411342Y-109562289D01*
X101287289Y-109686342D01*
X101195187Y-109835663D01*
X101195185Y-109835668D01*
X101179774Y-109882176D01*
X101140001Y-110002203D01*
X101140001Y-110002204D01*
X101140000Y-110002204D01*
X101129500Y-110104983D01*
X100500500Y-110104983D01*
X100500500Y-99952135D01*
X103547000Y-99952135D01*
X103547000Y-102047870D01*
X103547001Y-102047876D01*
X103553408Y-102107483D01*
X103603702Y-102242328D01*
X103603706Y-102242335D01*
X103689952Y-102357544D01*
X103689955Y-102357547D01*
X103805164Y-102443793D01*
X103805171Y-102443797D01*
X103940017Y-102494091D01*
X103940016Y-102494091D01*
X103946944Y-102494835D01*
X103999627Y-102500500D01*
X106000372Y-102500499D01*
X106059983Y-102494091D01*
X106194831Y-102443796D01*
X106310046Y-102357546D01*
X106396296Y-102242331D01*
X106406872Y-102213974D01*
X106448740Y-102158041D01*
X106514204Y-102133622D01*
X106582477Y-102148472D01*
X106595940Y-102156988D01*
X106778723Y-102289788D01*
X106982429Y-102393582D01*
X107199871Y-102464234D01*
X107290000Y-102478509D01*
X107290000Y-101490747D01*
X107327708Y-101512518D01*
X107467591Y-101550000D01*
X107612409Y-101550000D01*
X107752292Y-101512518D01*
X107790000Y-101490747D01*
X107790000Y-102478508D01*
X107880128Y-102464234D01*
X108097570Y-102393582D01*
X108301276Y-102289788D01*
X108486242Y-102155402D01*
X108647905Y-101993739D01*
X108709371Y-101909137D01*
X108764701Y-101866470D01*
X108834314Y-101860491D01*
X108896109Y-101893096D01*
X108910007Y-101909134D01*
X108971714Y-101994066D01*
X109133434Y-102155786D01*
X109318462Y-102290217D01*
X109450599Y-102357544D01*
X109522244Y-102394049D01*
X109739751Y-102464721D01*
X109739752Y-102464721D01*
X109739755Y-102464722D01*
X109965646Y-102500500D01*
X109965647Y-102500500D01*
X110194353Y-102500500D01*
X110194354Y-102500500D01*
X110420245Y-102464722D01*
X110420248Y-102464721D01*
X110420249Y-102464721D01*
X110637755Y-102394049D01*
X110637755Y-102394048D01*
X110637758Y-102394048D01*
X110841538Y-102290217D01*
X111026566Y-102155786D01*
X111188286Y-101994066D01*
X111322717Y-101809038D01*
X111426548Y-101605258D01*
X111480208Y-101440110D01*
X111497221Y-101387749D01*
X111497221Y-101387748D01*
X111497222Y-101387745D01*
X111533000Y-101161854D01*
X111533000Y-100838146D01*
X111497222Y-100612255D01*
X111497221Y-100612251D01*
X111497221Y-100612250D01*
X111426549Y-100394744D01*
X111422553Y-100386901D01*
X111395565Y-100333935D01*
X116937500Y-100333935D01*
X116937500Y-102129670D01*
X116937501Y-102129676D01*
X116943908Y-102189283D01*
X116994202Y-102324128D01*
X116994206Y-102324135D01*
X117080452Y-102439344D01*
X117080455Y-102439347D01*
X117195664Y-102525593D01*
X117195671Y-102525597D01*
X117327082Y-102574610D01*
X117383016Y-102616481D01*
X117407433Y-102681945D01*
X117392582Y-102750218D01*
X117371431Y-102778473D01*
X117257889Y-102892015D01*
X117132951Y-103063979D01*
X117036444Y-103253385D01*
X116970753Y-103455560D01*
X116937500Y-103665513D01*
X116937500Y-103878086D01*
X116969296Y-104078842D01*
X116970754Y-104088043D01*
X117018016Y-104233501D01*
X117036444Y-104290214D01*
X117132951Y-104479620D01*
X117257890Y-104651586D01*
X117408213Y-104801909D01*
X117580182Y-104926850D01*
X117588946Y-104931316D01*
X117639742Y-104979291D01*
X117656536Y-105047112D01*
X117633998Y-105113247D01*
X117588946Y-105152284D01*
X117580182Y-105156749D01*
X117408213Y-105281690D01*
X117257890Y-105432013D01*
X117132951Y-105603979D01*
X117036444Y-105793385D01*
X116970753Y-105995560D01*
X116937500Y-106205513D01*
X116937500Y-106418086D01*
X116970753Y-106628039D01*
X117036444Y-106830214D01*
X117132951Y-107019620D01*
X117257890Y-107191586D01*
X117408213Y-107341909D01*
X117580182Y-107466850D01*
X117588946Y-107471316D01*
X117639742Y-107519291D01*
X117656536Y-107587112D01*
X117633998Y-107653247D01*
X117588946Y-107692284D01*
X117580182Y-107696749D01*
X117408213Y-107821690D01*
X117257890Y-107972013D01*
X117132951Y-108143979D01*
X117036444Y-108333385D01*
X116970753Y-108535560D01*
X116937500Y-108745513D01*
X116937500Y-108958086D01*
X116970753Y-109168039D01*
X117036444Y-109370214D01*
X117132951Y-109559620D01*
X117257890Y-109731586D01*
X117408213Y-109881909D01*
X117580182Y-110006850D01*
X117588946Y-110011316D01*
X117639742Y-110059291D01*
X117656536Y-110127112D01*
X117633998Y-110193247D01*
X117588946Y-110232284D01*
X117580182Y-110236749D01*
X117408213Y-110361690D01*
X117257890Y-110512013D01*
X117132951Y-110683979D01*
X117036444Y-110873385D01*
X116970753Y-111075560D01*
X116970314Y-111078333D01*
X116937500Y-111285513D01*
X116937500Y-111498087D01*
X116970754Y-111708043D01*
X117034299Y-111903614D01*
X117036444Y-111910214D01*
X117132951Y-112099620D01*
X117257890Y-112271586D01*
X117408213Y-112421909D01*
X117580182Y-112546850D01*
X117588946Y-112551316D01*
X117639742Y-112599291D01*
X117656536Y-112667112D01*
X117633998Y-112733247D01*
X117588946Y-112772284D01*
X117580182Y-112776749D01*
X117408213Y-112901690D01*
X117257890Y-113052013D01*
X117132951Y-113223979D01*
X117036444Y-113413385D01*
X116970753Y-113615560D01*
X116937500Y-113825513D01*
X116937500Y-114038086D01*
X116970753Y-114248039D01*
X117036444Y-114450214D01*
X117132951Y-114639620D01*
X117257890Y-114811586D01*
X117408213Y-114961909D01*
X117580182Y-115086850D01*
X117588946Y-115091316D01*
X117639742Y-115139291D01*
X117656536Y-115207112D01*
X117633998Y-115273247D01*
X117588946Y-115312284D01*
X117580182Y-115316749D01*
X117408213Y-115441690D01*
X117257890Y-115592013D01*
X117132951Y-115763979D01*
X117036444Y-115953385D01*
X116970753Y-116155560D01*
X116937500Y-116365513D01*
X116937500Y-116578086D01*
X116970753Y-116788039D01*
X117036444Y-116990214D01*
X117132951Y-117179620D01*
X117257890Y-117351586D01*
X117408213Y-117501909D01*
X117580182Y-117626850D01*
X117588946Y-117631316D01*
X117639742Y-117679291D01*
X117656536Y-117747112D01*
X117633998Y-117813247D01*
X117588946Y-117852284D01*
X117580182Y-117856749D01*
X117408213Y-117981690D01*
X117257890Y-118132013D01*
X117132951Y-118303979D01*
X117036444Y-118493385D01*
X116970753Y-118695560D01*
X116937500Y-118905513D01*
X116937500Y-119118087D01*
X116970754Y-119328043D01*
X116972319Y-119332861D01*
X117036444Y-119530214D01*
X117132951Y-119719620D01*
X117257890Y-119891586D01*
X117408213Y-120041909D01*
X117580182Y-120166850D01*
X117588946Y-120171316D01*
X117639742Y-120219291D01*
X117656536Y-120287112D01*
X117633998Y-120353247D01*
X117588946Y-120392284D01*
X117580182Y-120396749D01*
X117408213Y-120521690D01*
X117257890Y-120672013D01*
X117132951Y-120843979D01*
X117036444Y-121033385D01*
X116970753Y-121235560D01*
X116950016Y-121366490D01*
X116937500Y-121445513D01*
X116937500Y-121658087D01*
X116970754Y-121868043D01*
X117033089Y-122059890D01*
X117036444Y-122070214D01*
X117132951Y-122259620D01*
X117257890Y-122431586D01*
X117408213Y-122581909D01*
X117580182Y-122706850D01*
X117588946Y-122711316D01*
X117639742Y-122759291D01*
X117656536Y-122827112D01*
X117633998Y-122893247D01*
X117588946Y-122932284D01*
X117580182Y-122936749D01*
X117408213Y-123061690D01*
X117257890Y-123212013D01*
X117132951Y-123383979D01*
X117036444Y-123573385D01*
X116970753Y-123775560D01*
X116937500Y-123985513D01*
X116937500Y-124198086D01*
X116970753Y-124408039D01*
X117036444Y-124610214D01*
X117132951Y-124799620D01*
X117257890Y-124971586D01*
X117408213Y-125121909D01*
X117580182Y-125246850D01*
X117588946Y-125251316D01*
X117639742Y-125299291D01*
X117656536Y-125367112D01*
X117633998Y-125433247D01*
X117588946Y-125472284D01*
X117580182Y-125476749D01*
X117408213Y-125601690D01*
X117257890Y-125752013D01*
X117132951Y-125923979D01*
X117036444Y-126113385D01*
X116970753Y-126315560D01*
X116937500Y-126525513D01*
X116937500Y-126738086D01*
X116970753Y-126948039D01*
X117036444Y-127150214D01*
X117132951Y-127339620D01*
X117257890Y-127511586D01*
X117408213Y-127661909D01*
X117580182Y-127786850D01*
X117588946Y-127791316D01*
X117639742Y-127839291D01*
X117656536Y-127907112D01*
X117633998Y-127973247D01*
X117588946Y-128012284D01*
X117580182Y-128016749D01*
X117408213Y-128141690D01*
X117257890Y-128292013D01*
X117132951Y-128463979D01*
X117036444Y-128653385D01*
X116970753Y-128855560D01*
X116937500Y-129065513D01*
X116937500Y-129278086D01*
X116970753Y-129488039D01*
X117036444Y-129690214D01*
X117132951Y-129879620D01*
X117257890Y-130051586D01*
X117408213Y-130201909D01*
X117580182Y-130326850D01*
X117588946Y-130331316D01*
X117639742Y-130379291D01*
X117656536Y-130447112D01*
X117633998Y-130513247D01*
X117588946Y-130552284D01*
X117580182Y-130556749D01*
X117408213Y-130681690D01*
X117257890Y-130832013D01*
X117132951Y-131003979D01*
X117036444Y-131193385D01*
X116970753Y-131395560D01*
X116937500Y-131605513D01*
X116937500Y-131818086D01*
X116970753Y-132028039D01*
X117036444Y-132230214D01*
X117132951Y-132419620D01*
X117257890Y-132591586D01*
X117408213Y-132741909D01*
X117580182Y-132866850D01*
X117588946Y-132871316D01*
X117639742Y-132919291D01*
X117656536Y-132987112D01*
X117633998Y-133053247D01*
X117588946Y-133092284D01*
X117580182Y-133096749D01*
X117408213Y-133221690D01*
X117257890Y-133372013D01*
X117132951Y-133543979D01*
X117036444Y-133733385D01*
X116970753Y-133935560D01*
X116937500Y-134145513D01*
X116937500Y-134358086D01*
X116970753Y-134568039D01*
X116970753Y-134568041D01*
X116970754Y-134568043D01*
X117002952Y-134667139D01*
X117036444Y-134770214D01*
X117132951Y-134959620D01*
X117257890Y-135131586D01*
X117408213Y-135281909D01*
X117580182Y-135406850D01*
X117588946Y-135411316D01*
X117639742Y-135459291D01*
X117656536Y-135527112D01*
X117633998Y-135593247D01*
X117588946Y-135632284D01*
X117580182Y-135636749D01*
X117408213Y-135761690D01*
X117257890Y-135912013D01*
X117132951Y-136083979D01*
X117036444Y-136273385D01*
X116970753Y-136475560D01*
X116937500Y-136685513D01*
X116937500Y-136898086D01*
X116970753Y-137108039D01*
X117036444Y-137310214D01*
X117132951Y-137499620D01*
X117257890Y-137671586D01*
X117408213Y-137821909D01*
X117580182Y-137946850D01*
X117588946Y-137951316D01*
X117639742Y-137999291D01*
X117656536Y-138067112D01*
X117633998Y-138133247D01*
X117588946Y-138172284D01*
X117580182Y-138176749D01*
X117408213Y-138301690D01*
X117257890Y-138452013D01*
X117132951Y-138623979D01*
X117036444Y-138813385D01*
X116970753Y-139015560D01*
X116937500Y-139225513D01*
X116937500Y-139438086D01*
X116970753Y-139648039D01*
X117036444Y-139850214D01*
X117132951Y-140039620D01*
X117257890Y-140211586D01*
X117408213Y-140361909D01*
X117580182Y-140486850D01*
X117588946Y-140491316D01*
X117639742Y-140539291D01*
X117656536Y-140607112D01*
X117633998Y-140673247D01*
X117588946Y-140712284D01*
X117580182Y-140716749D01*
X117408213Y-140841690D01*
X117257890Y-140992013D01*
X117132951Y-141163979D01*
X117036444Y-141353385D01*
X116970753Y-141555560D01*
X116937500Y-141765513D01*
X116937500Y-141978086D01*
X116970753Y-142188039D01*
X117036444Y-142390214D01*
X117132951Y-142579620D01*
X117257890Y-142751586D01*
X117408213Y-142901909D01*
X117580182Y-143026850D01*
X117588946Y-143031316D01*
X117639742Y-143079291D01*
X117656536Y-143147112D01*
X117633998Y-143213247D01*
X117588946Y-143252284D01*
X117580182Y-143256749D01*
X117408213Y-143381690D01*
X117257890Y-143532013D01*
X117132951Y-143703979D01*
X117036444Y-143893385D01*
X116970753Y-144095560D01*
X116937500Y-144305513D01*
X116937500Y-144518087D01*
X116970754Y-144728043D01*
X116978629Y-144752281D01*
X117036444Y-144930214D01*
X117132951Y-145119620D01*
X117257890Y-145291586D01*
X117408213Y-145441909D01*
X117580182Y-145566850D01*
X117588946Y-145571316D01*
X117639742Y-145619291D01*
X117656536Y-145687112D01*
X117633998Y-145753247D01*
X117588946Y-145792284D01*
X117580182Y-145796749D01*
X117408213Y-145921690D01*
X117257890Y-146072013D01*
X117132951Y-146243979D01*
X117036444Y-146433385D01*
X116970753Y-146635560D01*
X116937500Y-146845513D01*
X116937500Y-147058086D01*
X116970753Y-147268039D01*
X117036444Y-147470214D01*
X117132951Y-147659620D01*
X117257890Y-147831586D01*
X117408213Y-147981909D01*
X117580179Y-148106848D01*
X117580181Y-148106849D01*
X117580184Y-148106851D01*
X117769588Y-148203357D01*
X117971757Y-148269046D01*
X118181713Y-148302300D01*
X118181714Y-148302300D01*
X118394286Y-148302300D01*
X118394287Y-148302300D01*
X118604243Y-148269046D01*
X118806412Y-148203357D01*
X118995816Y-148106851D01*
X119017789Y-148090886D01*
X119167786Y-147981909D01*
X119167788Y-147981906D01*
X119167792Y-147981904D01*
X119318104Y-147831592D01*
X119318106Y-147831588D01*
X119318109Y-147831586D01*
X119443048Y-147659620D01*
X119443047Y-147659620D01*
X119443051Y-147659616D01*
X119447514Y-147650854D01*
X119495488Y-147600059D01*
X119563308Y-147583263D01*
X119629444Y-147605799D01*
X119668486Y-147650856D01*
X119672951Y-147659620D01*
X119797890Y-147831586D01*
X119948213Y-147981909D01*
X120120179Y-148106848D01*
X120120181Y-148106849D01*
X120120184Y-148106851D01*
X120309588Y-148203357D01*
X120511757Y-148269046D01*
X120721713Y-148302300D01*
X120721714Y-148302300D01*
X120934286Y-148302300D01*
X120934287Y-148302300D01*
X121144243Y-148269046D01*
X121346412Y-148203357D01*
X121535816Y-148106851D01*
X121557789Y-148090886D01*
X121707786Y-147981909D01*
X121707788Y-147981906D01*
X121707792Y-147981904D01*
X121858104Y-147831592D01*
X121858106Y-147831588D01*
X121858109Y-147831586D01*
X121983048Y-147659620D01*
X121983047Y-147659620D01*
X121983051Y-147659616D01*
X122079557Y-147470212D01*
X122145246Y-147268043D01*
X122178500Y-147058087D01*
X122178500Y-146845513D01*
X122145246Y-146635557D01*
X122079557Y-146433388D01*
X121983051Y-146243984D01*
X121983049Y-146243981D01*
X121983048Y-146243979D01*
X121858109Y-146072013D01*
X121707786Y-145921690D01*
X121535820Y-145796751D01*
X121535115Y-145796391D01*
X121527054Y-145792285D01*
X121476259Y-145744312D01*
X121459463Y-145676492D01*
X121481999Y-145610356D01*
X121527054Y-145571315D01*
X121535816Y-145566851D01*
X121557789Y-145550886D01*
X121707786Y-145441909D01*
X121707788Y-145441906D01*
X121707792Y-145441904D01*
X121858104Y-145291592D01*
X121858106Y-145291588D01*
X121858109Y-145291586D01*
X121983048Y-145119620D01*
X121983047Y-145119620D01*
X121983051Y-145119616D01*
X122079557Y-144930212D01*
X122145246Y-144728043D01*
X122178500Y-144518087D01*
X122178500Y-144305513D01*
X122145246Y-144095557D01*
X122079557Y-143893388D01*
X121983051Y-143703984D01*
X121983049Y-143703981D01*
X121983048Y-143703979D01*
X121858109Y-143532013D01*
X121707786Y-143381690D01*
X121535820Y-143256751D01*
X121535115Y-143256391D01*
X121527054Y-143252285D01*
X121476259Y-143204312D01*
X121459463Y-143136492D01*
X121481999Y-143070356D01*
X121527054Y-143031315D01*
X121535816Y-143026851D01*
X121557789Y-143010886D01*
X121707786Y-142901909D01*
X121707788Y-142901906D01*
X121707792Y-142901904D01*
X121858104Y-142751592D01*
X121858106Y-142751588D01*
X121858109Y-142751586D01*
X121983048Y-142579620D01*
X121983047Y-142579620D01*
X121983051Y-142579616D01*
X122079557Y-142390212D01*
X122145246Y-142188043D01*
X122178500Y-141978087D01*
X122178500Y-141765513D01*
X122145246Y-141555557D01*
X122079557Y-141353388D01*
X121983051Y-141163984D01*
X121983049Y-141163981D01*
X121983048Y-141163979D01*
X121858109Y-140992013D01*
X121707786Y-140841690D01*
X121535820Y-140716751D01*
X121535115Y-140716391D01*
X121527054Y-140712285D01*
X121476259Y-140664312D01*
X121459463Y-140596492D01*
X121481999Y-140530356D01*
X121527054Y-140491315D01*
X121535816Y-140486851D01*
X121557789Y-140470886D01*
X121707786Y-140361909D01*
X121707788Y-140361906D01*
X121707792Y-140361904D01*
X121858104Y-140211592D01*
X121858106Y-140211588D01*
X121858109Y-140211586D01*
X121983048Y-140039620D01*
X121983047Y-140039620D01*
X121983051Y-140039616D01*
X122079557Y-139850212D01*
X122145246Y-139648043D01*
X122178500Y-139438087D01*
X122178500Y-139225513D01*
X122145246Y-139015557D01*
X122079557Y-138813388D01*
X121983051Y-138623984D01*
X121983049Y-138623981D01*
X121983048Y-138623979D01*
X121858109Y-138452013D01*
X121707786Y-138301690D01*
X121535820Y-138176751D01*
X121535115Y-138176391D01*
X121527054Y-138172285D01*
X121476259Y-138124312D01*
X121459463Y-138056492D01*
X121481999Y-137990356D01*
X121527054Y-137951315D01*
X121535816Y-137946851D01*
X121557789Y-137930886D01*
X121707786Y-137821909D01*
X121707788Y-137821906D01*
X121707792Y-137821904D01*
X121858104Y-137671592D01*
X121858106Y-137671588D01*
X121858109Y-137671586D01*
X121983048Y-137499620D01*
X121983047Y-137499620D01*
X121983051Y-137499616D01*
X122079557Y-137310212D01*
X122145246Y-137108043D01*
X122178500Y-136898087D01*
X122178500Y-136685513D01*
X122145246Y-136475557D01*
X122079557Y-136273388D01*
X121983051Y-136083984D01*
X121983049Y-136083981D01*
X121983048Y-136083979D01*
X121858109Y-135912013D01*
X121707786Y-135761690D01*
X121535820Y-135636751D01*
X121535115Y-135636391D01*
X121527054Y-135632285D01*
X121476259Y-135584312D01*
X121459463Y-135516492D01*
X121481999Y-135450356D01*
X121527054Y-135411315D01*
X121535816Y-135406851D01*
X121592954Y-135365338D01*
X121707786Y-135281909D01*
X121707788Y-135281906D01*
X121707792Y-135281904D01*
X121858104Y-135131592D01*
X121858106Y-135131588D01*
X121858109Y-135131586D01*
X121983048Y-134959620D01*
X121983047Y-134959620D01*
X121983051Y-134959616D01*
X122079557Y-134770212D01*
X122145246Y-134568043D01*
X122178500Y-134358087D01*
X122178500Y-134145513D01*
X122145246Y-133935557D01*
X122079557Y-133733388D01*
X121983051Y-133543984D01*
X121983049Y-133543981D01*
X121983048Y-133543979D01*
X121858109Y-133372013D01*
X121707786Y-133221690D01*
X121535820Y-133096751D01*
X121535115Y-133096391D01*
X121527054Y-133092285D01*
X121476259Y-133044312D01*
X121459463Y-132976492D01*
X121481999Y-132910356D01*
X121527054Y-132871315D01*
X121535816Y-132866851D01*
X121557789Y-132850886D01*
X121707786Y-132741909D01*
X121707788Y-132741906D01*
X121707792Y-132741904D01*
X121858104Y-132591592D01*
X121858106Y-132591588D01*
X121858109Y-132591586D01*
X121983048Y-132419620D01*
X121983047Y-132419620D01*
X121983051Y-132419616D01*
X122079557Y-132230212D01*
X122145246Y-132028043D01*
X122178500Y-131818087D01*
X122178500Y-131605513D01*
X122145246Y-131395557D01*
X122079557Y-131193388D01*
X121983051Y-131003984D01*
X121983049Y-131003981D01*
X121983048Y-131003979D01*
X121858109Y-130832013D01*
X121707786Y-130681690D01*
X121535820Y-130556751D01*
X121535115Y-130556391D01*
X121527054Y-130552285D01*
X121476259Y-130504312D01*
X121459463Y-130436492D01*
X121481999Y-130370356D01*
X121527054Y-130331315D01*
X121535816Y-130326851D01*
X121557789Y-130310886D01*
X121707786Y-130201909D01*
X121707788Y-130201906D01*
X121707792Y-130201904D01*
X121858104Y-130051592D01*
X121858106Y-130051588D01*
X121858109Y-130051586D01*
X121983048Y-129879620D01*
X121983047Y-129879620D01*
X121983051Y-129879616D01*
X122079557Y-129690212D01*
X122145246Y-129488043D01*
X122178500Y-129278087D01*
X122178500Y-129065513D01*
X122145246Y-128855557D01*
X122079557Y-128653388D01*
X121983051Y-128463984D01*
X121983049Y-128463981D01*
X121983048Y-128463979D01*
X121858109Y-128292013D01*
X121707786Y-128141690D01*
X121535817Y-128016749D01*
X121526504Y-128012004D01*
X121475707Y-127964030D01*
X121458912Y-127896209D01*
X121481449Y-127830074D01*
X121526507Y-127791032D01*
X121535555Y-127786422D01*
X121589716Y-127747070D01*
X121589717Y-127747070D01*
X120957408Y-127114762D01*
X121020993Y-127097725D01*
X121135007Y-127031899D01*
X121228099Y-126938807D01*
X121293925Y-126824793D01*
X121310962Y-126761208D01*
X121943270Y-127393517D01*
X121943270Y-127393516D01*
X121982622Y-127339354D01*
X122079095Y-127150017D01*
X122144757Y-126947930D01*
X122144757Y-126947927D01*
X122178000Y-126738046D01*
X122178000Y-126525553D01*
X122144757Y-126315672D01*
X122144757Y-126315669D01*
X122079095Y-126113582D01*
X121982624Y-125924249D01*
X121943270Y-125870082D01*
X121943269Y-125870082D01*
X121310962Y-126502390D01*
X121293925Y-126438807D01*
X121228099Y-126324793D01*
X121135007Y-126231701D01*
X121020993Y-126165875D01*
X120957409Y-126148837D01*
X121589716Y-125516528D01*
X121535550Y-125477175D01*
X121525954Y-125472286D01*
X121475157Y-125424312D01*
X121458361Y-125356492D01*
X121480897Y-125290356D01*
X121525954Y-125251314D01*
X121535554Y-125246422D01*
X121589716Y-125207070D01*
X121589717Y-125207070D01*
X120957408Y-124574762D01*
X121020993Y-124557725D01*
X121135007Y-124491899D01*
X121228099Y-124398807D01*
X121293925Y-124284793D01*
X121310962Y-124221208D01*
X121943270Y-124853517D01*
X121943270Y-124853516D01*
X121982622Y-124799354D01*
X122079095Y-124610017D01*
X122144757Y-124407930D01*
X122144757Y-124407927D01*
X122178000Y-124198046D01*
X122178000Y-123985553D01*
X122144757Y-123775672D01*
X122144757Y-123775669D01*
X122079095Y-123573582D01*
X121982624Y-123384249D01*
X121943270Y-123330082D01*
X121943269Y-123330082D01*
X121310962Y-123962390D01*
X121293925Y-123898807D01*
X121228099Y-123784793D01*
X121135007Y-123691701D01*
X121020993Y-123625875D01*
X120957409Y-123608837D01*
X121589716Y-122976528D01*
X121535547Y-122937173D01*
X121535547Y-122937172D01*
X121526500Y-122932563D01*
X121475706Y-122884588D01*
X121458912Y-122816766D01*
X121481451Y-122750632D01*
X121526508Y-122711593D01*
X121535816Y-122706851D01*
X121615007Y-122649315D01*
X121707786Y-122581909D01*
X121707788Y-122581906D01*
X121707792Y-122581904D01*
X121858104Y-122431592D01*
X121858106Y-122431588D01*
X121858109Y-122431586D01*
X121983048Y-122259620D01*
X121983047Y-122259620D01*
X121983051Y-122259616D01*
X122079557Y-122070212D01*
X122145246Y-121868043D01*
X122178500Y-121658087D01*
X122178500Y-121445513D01*
X122145246Y-121235557D01*
X122079557Y-121033388D01*
X121983051Y-120843984D01*
X121983049Y-120843981D01*
X121983048Y-120843979D01*
X121858109Y-120672013D01*
X121707786Y-120521690D01*
X121535820Y-120396751D01*
X121535115Y-120396391D01*
X121527054Y-120392285D01*
X121476259Y-120344312D01*
X121459463Y-120276492D01*
X121481999Y-120210356D01*
X121527054Y-120171315D01*
X121535816Y-120166851D01*
X121603299Y-120117822D01*
X121707786Y-120041909D01*
X121707788Y-120041906D01*
X121707792Y-120041904D01*
X121858104Y-119891592D01*
X121858106Y-119891588D01*
X121858109Y-119891586D01*
X121983048Y-119719620D01*
X121983047Y-119719620D01*
X121983051Y-119719616D01*
X122079557Y-119530212D01*
X122145246Y-119328043D01*
X122178500Y-119118087D01*
X122178500Y-118905513D01*
X122145246Y-118695557D01*
X122079557Y-118493388D01*
X121983051Y-118303984D01*
X121983049Y-118303981D01*
X121983048Y-118303979D01*
X121858109Y-118132013D01*
X121747249Y-118021153D01*
X142199500Y-118021153D01*
X142199500Y-118178846D01*
X142230261Y-118333489D01*
X142230264Y-118333501D01*
X142290603Y-118479174D01*
X142290604Y-118479175D01*
X142290606Y-118479179D01*
X142320476Y-118523882D01*
X142351602Y-118570465D01*
X142372480Y-118637142D01*
X142372500Y-118639356D01*
X142372500Y-119760642D01*
X142352815Y-119827681D01*
X142351602Y-119829533D01*
X142290609Y-119920814D01*
X142290602Y-119920827D01*
X142230264Y-120066498D01*
X142230261Y-120066510D01*
X142199500Y-120221153D01*
X142199500Y-120378846D01*
X142230261Y-120533489D01*
X142230264Y-120533501D01*
X142290602Y-120679172D01*
X142290609Y-120679185D01*
X142378210Y-120810288D01*
X142378213Y-120810292D01*
X142489707Y-120921786D01*
X142489711Y-120921789D01*
X142620814Y-121009390D01*
X142620827Y-121009397D01*
X142733826Y-121056202D01*
X142766503Y-121069737D01*
X142921153Y-121100499D01*
X142921156Y-121100500D01*
X142921158Y-121100500D01*
X143078844Y-121100500D01*
X143078845Y-121100499D01*
X143233497Y-121069737D01*
X143379179Y-121009394D01*
X143510289Y-120921789D01*
X143621789Y-120810289D01*
X143709394Y-120679179D01*
X143769737Y-120533497D01*
X143800500Y-120378842D01*
X143800500Y-120221158D01*
X143800500Y-120221155D01*
X143800499Y-120221153D01*
X143790585Y-120171314D01*
X143769737Y-120066503D01*
X143741279Y-119997799D01*
X143709397Y-119920827D01*
X143709390Y-119920814D01*
X143648398Y-119829533D01*
X143627520Y-119762855D01*
X143627500Y-119760642D01*
X143627500Y-118639356D01*
X143647185Y-118572317D01*
X143648398Y-118570465D01*
X143709394Y-118479179D01*
X143769737Y-118333497D01*
X143800500Y-118178842D01*
X143800500Y-118021158D01*
X143800500Y-118021155D01*
X143800499Y-118021153D01*
X143776425Y-117900125D01*
X143769737Y-117866503D01*
X143763847Y-117852284D01*
X143709397Y-117720827D01*
X143709390Y-117720814D01*
X143621789Y-117589711D01*
X143621786Y-117589707D01*
X143510292Y-117478213D01*
X143510288Y-117478210D01*
X143379185Y-117390609D01*
X143379172Y-117390602D01*
X143233501Y-117330264D01*
X143233489Y-117330261D01*
X143078845Y-117299500D01*
X143078842Y-117299500D01*
X142921158Y-117299500D01*
X142921155Y-117299500D01*
X142766510Y-117330261D01*
X142766498Y-117330264D01*
X142620827Y-117390602D01*
X142620814Y-117390609D01*
X142489711Y-117478210D01*
X142489707Y-117478213D01*
X142378213Y-117589707D01*
X142378210Y-117589711D01*
X142290609Y-117720814D01*
X142290602Y-117720827D01*
X142230264Y-117866498D01*
X142230261Y-117866510D01*
X142199500Y-118021153D01*
X121747249Y-118021153D01*
X121707786Y-117981690D01*
X121535820Y-117856751D01*
X121535115Y-117856391D01*
X121527054Y-117852285D01*
X121476259Y-117804312D01*
X121459463Y-117736492D01*
X121481999Y-117670356D01*
X121527054Y-117631315D01*
X121535816Y-117626851D01*
X121624680Y-117562288D01*
X121707786Y-117501909D01*
X121707788Y-117501906D01*
X121707792Y-117501904D01*
X121858104Y-117351592D01*
X121858106Y-117351588D01*
X121858109Y-117351586D01*
X121983048Y-117179620D01*
X121983047Y-117179620D01*
X121983051Y-117179616D01*
X122079557Y-116990212D01*
X122145246Y-116788043D01*
X122178500Y-116578087D01*
X122178500Y-116365513D01*
X122145246Y-116155557D01*
X122079557Y-115953388D01*
X121983051Y-115763984D01*
X121983049Y-115763981D01*
X121983048Y-115763979D01*
X121858109Y-115592013D01*
X121707786Y-115441690D01*
X121535820Y-115316751D01*
X121535115Y-115316391D01*
X121527054Y-115312285D01*
X121476259Y-115264312D01*
X121459463Y-115196492D01*
X121481999Y-115130356D01*
X121527054Y-115091315D01*
X121535816Y-115086851D01*
X121622138Y-115024135D01*
X121707786Y-114961909D01*
X121707788Y-114961906D01*
X121707792Y-114961904D01*
X121858104Y-114811592D01*
X121858106Y-114811588D01*
X121858109Y-114811586D01*
X121983048Y-114639620D01*
X121983047Y-114639620D01*
X121983051Y-114639616D01*
X122079557Y-114450212D01*
X122145246Y-114248043D01*
X122178500Y-114038087D01*
X122178500Y-113825513D01*
X122145246Y-113615557D01*
X122079557Y-113413388D01*
X121983051Y-113223984D01*
X121943889Y-113170082D01*
X121895511Y-113103494D01*
X121895508Y-113103491D01*
X121871792Y-113070849D01*
X121858104Y-113052008D01*
X121840031Y-113033935D01*
X149149500Y-113033935D01*
X149149500Y-114829670D01*
X149149501Y-114829676D01*
X149155908Y-114889283D01*
X149206202Y-115024128D01*
X149206206Y-115024135D01*
X149292452Y-115139344D01*
X149292455Y-115139347D01*
X149407664Y-115225593D01*
X149407671Y-115225597D01*
X149542517Y-115275891D01*
X149542516Y-115275891D01*
X149549444Y-115276635D01*
X149602127Y-115282300D01*
X151397872Y-115282299D01*
X151457483Y-115275891D01*
X151592331Y-115225596D01*
X151707546Y-115139346D01*
X151793796Y-115024131D01*
X151844091Y-114889283D01*
X151850500Y-114829673D01*
X151850499Y-114805779D01*
X151853330Y-114792763D01*
X151863940Y-114773325D01*
X151870179Y-114752075D01*
X151886803Y-114731443D01*
X151886808Y-114731436D01*
X151886811Y-114731434D01*
X151886818Y-114731426D01*
X152557037Y-114061208D01*
X152574075Y-114124793D01*
X152639901Y-114238807D01*
X152732993Y-114331899D01*
X152847007Y-114397725D01*
X152910590Y-114414762D01*
X152278282Y-115047069D01*
X152278282Y-115047070D01*
X152332449Y-115086424D01*
X152521782Y-115182895D01*
X152723870Y-115248557D01*
X152933754Y-115281800D01*
X153146246Y-115281800D01*
X153356127Y-115248557D01*
X153356130Y-115248557D01*
X153558217Y-115182895D01*
X153747554Y-115086422D01*
X153801716Y-115047070D01*
X153801717Y-115047070D01*
X153169408Y-114414762D01*
X153232993Y-114397725D01*
X153347007Y-114331899D01*
X153440099Y-114238807D01*
X153505925Y-114124793D01*
X153522962Y-114061208D01*
X154155270Y-114693517D01*
X154155270Y-114693516D01*
X154194622Y-114639355D01*
X154199232Y-114630307D01*
X154247205Y-114579509D01*
X154315025Y-114562712D01*
X154381161Y-114585247D01*
X154420204Y-114630304D01*
X154424949Y-114639617D01*
X154549890Y-114811586D01*
X154700213Y-114961909D01*
X154872179Y-115086848D01*
X154872181Y-115086849D01*
X154872184Y-115086851D01*
X155061588Y-115183357D01*
X155263757Y-115249046D01*
X155473713Y-115282300D01*
X155473714Y-115282300D01*
X155686286Y-115282300D01*
X155686287Y-115282300D01*
X155896243Y-115249046D01*
X156098412Y-115183357D01*
X156287816Y-115086851D01*
X156374138Y-115024135D01*
X156459786Y-114961909D01*
X156459788Y-114961906D01*
X156459792Y-114961904D01*
X156610104Y-114811592D01*
X156610106Y-114811588D01*
X156610109Y-114811586D01*
X156735048Y-114639620D01*
X156735047Y-114639620D01*
X156735051Y-114639616D01*
X156739514Y-114630854D01*
X156787488Y-114580059D01*
X156855308Y-114563263D01*
X156921444Y-114585799D01*
X156960486Y-114630856D01*
X156964951Y-114639620D01*
X157089890Y-114811586D01*
X157240213Y-114961909D01*
X157412179Y-115086848D01*
X157412181Y-115086849D01*
X157412184Y-115086851D01*
X157601588Y-115183357D01*
X157803757Y-115249046D01*
X158013713Y-115282300D01*
X158013714Y-115282300D01*
X158226286Y-115282300D01*
X158226287Y-115282300D01*
X158436243Y-115249046D01*
X158638412Y-115183357D01*
X158827816Y-115086851D01*
X158914138Y-115024135D01*
X158999786Y-114961909D01*
X158999788Y-114961906D01*
X158999792Y-114961904D01*
X159150104Y-114811592D01*
X159150106Y-114811588D01*
X159150109Y-114811586D01*
X159235890Y-114693517D01*
X159275051Y-114639616D01*
X159279793Y-114630308D01*
X159327763Y-114579511D01*
X159395583Y-114562711D01*
X159461719Y-114585245D01*
X159500763Y-114630300D01*
X159505373Y-114639347D01*
X159544728Y-114693516D01*
X160177037Y-114061208D01*
X160194075Y-114124793D01*
X160259901Y-114238807D01*
X160352993Y-114331899D01*
X160467007Y-114397725D01*
X160530590Y-114414762D01*
X159898282Y-115047069D01*
X159898282Y-115047070D01*
X159952449Y-115086424D01*
X160141782Y-115182895D01*
X160343870Y-115248557D01*
X160553754Y-115281800D01*
X160766246Y-115281800D01*
X160976127Y-115248557D01*
X160976130Y-115248557D01*
X161178217Y-115182895D01*
X161367554Y-115086422D01*
X161421716Y-115047070D01*
X161421717Y-115047070D01*
X160789408Y-114414762D01*
X160852993Y-114397725D01*
X160967007Y-114331899D01*
X161060099Y-114238807D01*
X161125925Y-114124793D01*
X161142962Y-114061208D01*
X161775270Y-114693517D01*
X161775270Y-114693516D01*
X161814622Y-114639355D01*
X161819232Y-114630307D01*
X161867205Y-114579509D01*
X161935025Y-114562712D01*
X162001161Y-114585247D01*
X162040204Y-114630304D01*
X162044949Y-114639617D01*
X162169890Y-114811586D01*
X162320213Y-114961909D01*
X162492179Y-115086848D01*
X162492181Y-115086849D01*
X162492184Y-115086851D01*
X162681588Y-115183357D01*
X162883757Y-115249046D01*
X163093713Y-115282300D01*
X163093714Y-115282300D01*
X163306286Y-115282300D01*
X163306287Y-115282300D01*
X163516243Y-115249046D01*
X163718412Y-115183357D01*
X163907816Y-115086851D01*
X163994138Y-115024135D01*
X164079786Y-114961909D01*
X164079788Y-114961906D01*
X164079792Y-114961904D01*
X164230104Y-114811592D01*
X164230106Y-114811588D01*
X164230109Y-114811586D01*
X164355048Y-114639620D01*
X164355047Y-114639620D01*
X164355051Y-114639616D01*
X164359514Y-114630854D01*
X164407488Y-114580059D01*
X164475308Y-114563263D01*
X164541444Y-114585799D01*
X164580486Y-114630856D01*
X164584951Y-114639620D01*
X164709890Y-114811586D01*
X164860213Y-114961909D01*
X165032179Y-115086848D01*
X165032181Y-115086849D01*
X165032184Y-115086851D01*
X165221588Y-115183357D01*
X165423757Y-115249046D01*
X165633713Y-115282300D01*
X165633714Y-115282300D01*
X165846286Y-115282300D01*
X165846287Y-115282300D01*
X166056243Y-115249046D01*
X166258412Y-115183357D01*
X166447816Y-115086851D01*
X166534138Y-115024135D01*
X166619786Y-114961909D01*
X166619788Y-114961906D01*
X166619792Y-114961904D01*
X166770104Y-114811592D01*
X166770106Y-114811588D01*
X166770109Y-114811586D01*
X166895048Y-114639620D01*
X166895047Y-114639620D01*
X166895051Y-114639616D01*
X166991557Y-114450212D01*
X167057246Y-114248043D01*
X167090500Y-114038087D01*
X167090500Y-113825513D01*
X167057246Y-113615557D01*
X166991557Y-113413388D01*
X166895051Y-113223984D01*
X166895049Y-113223981D01*
X166895048Y-113223979D01*
X166770109Y-113052013D01*
X166619786Y-112901690D01*
X166447820Y-112776751D01*
X166258414Y-112680244D01*
X166258413Y-112680243D01*
X166258412Y-112680243D01*
X166056243Y-112614554D01*
X166056241Y-112614553D01*
X166056240Y-112614553D01*
X165894957Y-112589008D01*
X165846287Y-112581300D01*
X165633713Y-112581300D01*
X165585042Y-112589008D01*
X165423760Y-112614553D01*
X165221585Y-112680244D01*
X165032179Y-112776751D01*
X164860213Y-112901690D01*
X164709890Y-113052013D01*
X164584949Y-113223982D01*
X164580484Y-113232746D01*
X164532509Y-113283542D01*
X164464688Y-113300336D01*
X164398553Y-113277798D01*
X164359516Y-113232746D01*
X164355050Y-113223982D01*
X164230109Y-113052013D01*
X164079786Y-112901690D01*
X163907820Y-112776751D01*
X163718414Y-112680244D01*
X163718413Y-112680243D01*
X163718412Y-112680243D01*
X163516243Y-112614554D01*
X163516241Y-112614553D01*
X163516240Y-112614553D01*
X163354957Y-112589008D01*
X163306287Y-112581300D01*
X163093713Y-112581300D01*
X163045042Y-112589008D01*
X162883760Y-112614553D01*
X162681585Y-112680244D01*
X162492179Y-112776751D01*
X162320213Y-112901690D01*
X162169890Y-113052013D01*
X162044949Y-113223982D01*
X162040202Y-113233299D01*
X161992227Y-113284093D01*
X161924405Y-113300887D01*
X161858271Y-113278348D01*
X161819234Y-113233295D01*
X161814626Y-113224252D01*
X161775270Y-113170082D01*
X161775269Y-113170082D01*
X161142962Y-113802390D01*
X161125925Y-113738807D01*
X161060099Y-113624793D01*
X160967007Y-113531701D01*
X160852993Y-113465875D01*
X160789409Y-113448837D01*
X161421716Y-112816528D01*
X161367550Y-112777175D01*
X161178217Y-112680704D01*
X160976129Y-112615042D01*
X160766246Y-112581800D01*
X160553754Y-112581800D01*
X160343872Y-112615042D01*
X160343869Y-112615042D01*
X160141782Y-112680704D01*
X159952439Y-112777180D01*
X159898282Y-112816527D01*
X159898282Y-112816528D01*
X160530591Y-113448837D01*
X160467007Y-113465875D01*
X160352993Y-113531701D01*
X160259901Y-113624793D01*
X160194075Y-113738807D01*
X160177037Y-113802391D01*
X159544728Y-113170082D01*
X159544727Y-113170082D01*
X159505380Y-113224240D01*
X159505376Y-113224246D01*
X159500760Y-113233305D01*
X159452781Y-113284097D01*
X159384959Y-113300887D01*
X159318826Y-113278343D01*
X159279794Y-113233293D01*
X159275051Y-113223984D01*
X159275049Y-113223981D01*
X159275048Y-113223979D01*
X159150109Y-113052013D01*
X158999786Y-112901690D01*
X158827820Y-112776751D01*
X158638414Y-112680244D01*
X158638413Y-112680243D01*
X158638412Y-112680243D01*
X158436243Y-112614554D01*
X158436241Y-112614553D01*
X158436240Y-112614553D01*
X158274957Y-112589008D01*
X158226287Y-112581300D01*
X158013713Y-112581300D01*
X157965042Y-112589008D01*
X157803760Y-112614553D01*
X157601585Y-112680244D01*
X157412179Y-112776751D01*
X157240213Y-112901690D01*
X157089890Y-113052013D01*
X156964949Y-113223982D01*
X156960484Y-113232746D01*
X156912509Y-113283542D01*
X156844688Y-113300336D01*
X156778553Y-113277798D01*
X156739516Y-113232746D01*
X156735050Y-113223982D01*
X156610109Y-113052013D01*
X156459786Y-112901690D01*
X156287820Y-112776751D01*
X156098414Y-112680244D01*
X156098413Y-112680243D01*
X156098412Y-112680243D01*
X155896243Y-112614554D01*
X155896241Y-112614553D01*
X155896240Y-112614553D01*
X155734957Y-112589008D01*
X155686287Y-112581300D01*
X155473713Y-112581300D01*
X155425042Y-112589008D01*
X155263760Y-112614553D01*
X155061585Y-112680244D01*
X154872179Y-112776751D01*
X154700213Y-112901690D01*
X154549890Y-113052013D01*
X154424949Y-113223982D01*
X154420202Y-113233299D01*
X154372227Y-113284093D01*
X154304405Y-113300887D01*
X154238271Y-113278348D01*
X154199234Y-113233295D01*
X154194626Y-113224252D01*
X154155270Y-113170082D01*
X154155269Y-113170082D01*
X153522962Y-113802390D01*
X153505925Y-113738807D01*
X153440099Y-113624793D01*
X153347007Y-113531701D01*
X153232993Y-113465875D01*
X153169409Y-113448837D01*
X153801716Y-112816528D01*
X153747550Y-112777175D01*
X153558217Y-112680704D01*
X153356129Y-112615042D01*
X153146246Y-112581800D01*
X152933754Y-112581800D01*
X152723872Y-112615042D01*
X152723869Y-112615042D01*
X152521782Y-112680704D01*
X152332439Y-112777180D01*
X152278282Y-112816527D01*
X152278282Y-112816528D01*
X152910591Y-113448837D01*
X152847007Y-113465875D01*
X152732993Y-113531701D01*
X152639901Y-113624793D01*
X152574075Y-113738807D01*
X152557037Y-113802391D01*
X151886818Y-113132172D01*
X151853333Y-113070849D01*
X151853330Y-113070836D01*
X151850499Y-113057815D01*
X151850499Y-113033928D01*
X151844091Y-112974317D01*
X151815926Y-112898802D01*
X151793798Y-112839473D01*
X151793793Y-112839464D01*
X151707547Y-112724255D01*
X151707544Y-112724252D01*
X151592335Y-112638006D01*
X151592328Y-112638002D01*
X151457482Y-112587708D01*
X151457483Y-112587708D01*
X151397883Y-112581301D01*
X151397881Y-112581300D01*
X151397873Y-112581300D01*
X151397864Y-112581300D01*
X149602129Y-112581300D01*
X149602123Y-112581301D01*
X149542516Y-112587708D01*
X149407671Y-112638002D01*
X149407664Y-112638006D01*
X149292455Y-112724252D01*
X149292452Y-112724255D01*
X149206206Y-112839464D01*
X149206202Y-112839471D01*
X149155908Y-112974317D01*
X149149501Y-113033916D01*
X149149500Y-113033935D01*
X121840031Y-113033935D01*
X121707792Y-112901696D01*
X121707786Y-112901690D01*
X121535820Y-112776751D01*
X121535115Y-112776391D01*
X121527054Y-112772285D01*
X121476259Y-112724312D01*
X121459463Y-112656492D01*
X121481999Y-112590356D01*
X121527054Y-112551315D01*
X121535816Y-112546851D01*
X121607057Y-112495092D01*
X121707786Y-112421909D01*
X121707788Y-112421906D01*
X121707792Y-112421904D01*
X121858104Y-112271592D01*
X121858106Y-112271588D01*
X121858109Y-112271586D01*
X121970060Y-112117497D01*
X121983051Y-112099616D01*
X122079557Y-111910212D01*
X122145246Y-111708043D01*
X122178500Y-111498087D01*
X122178500Y-111285513D01*
X122145246Y-111075557D01*
X122079557Y-110873388D01*
X121983051Y-110683984D01*
X121983049Y-110683981D01*
X121983048Y-110683979D01*
X121858109Y-110512013D01*
X121707786Y-110361690D01*
X121535820Y-110236751D01*
X121535115Y-110236391D01*
X121527054Y-110232285D01*
X121476259Y-110184312D01*
X121459463Y-110116492D01*
X121481999Y-110050356D01*
X121527054Y-110011315D01*
X121535816Y-110006851D01*
X121557789Y-109990886D01*
X121707786Y-109881909D01*
X121707788Y-109881906D01*
X121707792Y-109881904D01*
X121858104Y-109731592D01*
X121858106Y-109731588D01*
X121858109Y-109731586D01*
X121983048Y-109559620D01*
X121983047Y-109559620D01*
X121983051Y-109559616D01*
X122079557Y-109370212D01*
X122145246Y-109168043D01*
X122178500Y-108958087D01*
X122178500Y-108745513D01*
X122145246Y-108535557D01*
X122079557Y-108333388D01*
X121983051Y-108143984D01*
X121983049Y-108143981D01*
X121983048Y-108143979D01*
X121858109Y-107972013D01*
X121707786Y-107821690D01*
X121535820Y-107696751D01*
X121535115Y-107696391D01*
X121527054Y-107692285D01*
X121476259Y-107644312D01*
X121459463Y-107576492D01*
X121481999Y-107510356D01*
X121527054Y-107471315D01*
X121535816Y-107466851D01*
X121557789Y-107450886D01*
X121707786Y-107341909D01*
X121707788Y-107341906D01*
X121707792Y-107341904D01*
X121858104Y-107191592D01*
X121858106Y-107191588D01*
X121858109Y-107191586D01*
X121983048Y-107019620D01*
X121983047Y-107019620D01*
X121983051Y-107019616D01*
X122079557Y-106830212D01*
X122145246Y-106628043D01*
X122178500Y-106418087D01*
X122178500Y-106205513D01*
X122145246Y-105995557D01*
X122079557Y-105793388D01*
X121983051Y-105603984D01*
X121983049Y-105603981D01*
X121983048Y-105603979D01*
X121858109Y-105432013D01*
X121707786Y-105281690D01*
X121535820Y-105156751D01*
X121535115Y-105156391D01*
X121527054Y-105152285D01*
X121476259Y-105104312D01*
X121459463Y-105036492D01*
X121481999Y-104970356D01*
X121527054Y-104931315D01*
X121535816Y-104926851D01*
X121557789Y-104910886D01*
X121707786Y-104801909D01*
X121707788Y-104801906D01*
X121707792Y-104801904D01*
X121858104Y-104651592D01*
X121858106Y-104651588D01*
X121858109Y-104651586D01*
X121983048Y-104479620D01*
X121983047Y-104479620D01*
X121983051Y-104479616D01*
X122079557Y-104290212D01*
X122145246Y-104088043D01*
X122178500Y-103878087D01*
X122178500Y-103665513D01*
X122145246Y-103455557D01*
X122079557Y-103253388D01*
X121983051Y-103063984D01*
X121983049Y-103063981D01*
X121983048Y-103063979D01*
X121858109Y-102892013D01*
X121707786Y-102741690D01*
X121535820Y-102616751D01*
X121535115Y-102616391D01*
X121527054Y-102612285D01*
X121476259Y-102564312D01*
X121459463Y-102496492D01*
X121481999Y-102430356D01*
X121527054Y-102391315D01*
X121535816Y-102386851D01*
X121622138Y-102324135D01*
X121707786Y-102261909D01*
X121707788Y-102261906D01*
X121707792Y-102261904D01*
X121858104Y-102111592D01*
X121858106Y-102111588D01*
X121858109Y-102111586D01*
X121983048Y-101939620D01*
X121983050Y-101939617D01*
X121983051Y-101939616D01*
X122079557Y-101750212D01*
X122145246Y-101548043D01*
X122178500Y-101338087D01*
X122178500Y-101125513D01*
X122145246Y-100915557D01*
X122079557Y-100713388D01*
X121983051Y-100523984D01*
X121983049Y-100523981D01*
X121983048Y-100523979D01*
X121858109Y-100352013D01*
X121707786Y-100201690D01*
X121535820Y-100076751D01*
X121346414Y-99980244D01*
X121346413Y-99980243D01*
X121346412Y-99980243D01*
X121144243Y-99914554D01*
X121144241Y-99914553D01*
X121144240Y-99914553D01*
X120982957Y-99889008D01*
X120934287Y-99881300D01*
X120721713Y-99881300D01*
X120673042Y-99889008D01*
X120511760Y-99914553D01*
X120309585Y-99980244D01*
X120120179Y-100076751D01*
X119948215Y-100201689D01*
X119834673Y-100315231D01*
X119773350Y-100348715D01*
X119703658Y-100343731D01*
X119647725Y-100301859D01*
X119630810Y-100270882D01*
X119581797Y-100139471D01*
X119581793Y-100139464D01*
X119495547Y-100024255D01*
X119495544Y-100024252D01*
X119380335Y-99938006D01*
X119380328Y-99938002D01*
X119245482Y-99887708D01*
X119245483Y-99887708D01*
X119185883Y-99881301D01*
X119185881Y-99881300D01*
X119185873Y-99881300D01*
X119185864Y-99881300D01*
X117390129Y-99881300D01*
X117390123Y-99881301D01*
X117330516Y-99887708D01*
X117195671Y-99938002D01*
X117195664Y-99938006D01*
X117080455Y-100024252D01*
X117080452Y-100024255D01*
X116994206Y-100139464D01*
X116994202Y-100139471D01*
X116943908Y-100274317D01*
X116937501Y-100333916D01*
X116937500Y-100333935D01*
X111395565Y-100333935D01*
X111351069Y-100246606D01*
X111322717Y-100190962D01*
X111188286Y-100005934D01*
X111026566Y-99844214D01*
X110841538Y-99709783D01*
X110732831Y-99654394D01*
X110637755Y-99605950D01*
X110420248Y-99535278D01*
X110234812Y-99505908D01*
X110194354Y-99499500D01*
X109965646Y-99499500D01*
X109925188Y-99505908D01*
X109739753Y-99535278D01*
X109739750Y-99535278D01*
X109522244Y-99605950D01*
X109318461Y-99709783D01*
X109252550Y-99757671D01*
X109133434Y-99844214D01*
X109133432Y-99844216D01*
X109133431Y-99844216D01*
X108971716Y-100005931D01*
X108971709Y-100005940D01*
X108910007Y-100090864D01*
X108854677Y-100133530D01*
X108785063Y-100139508D01*
X108723269Y-100106901D01*
X108709372Y-100090863D01*
X108647907Y-100006263D01*
X108647902Y-100006257D01*
X108486242Y-99844597D01*
X108301276Y-99710211D01*
X108097568Y-99606417D01*
X107880124Y-99535765D01*
X107790000Y-99521490D01*
X107790000Y-100509252D01*
X107752292Y-100487482D01*
X107612409Y-100450000D01*
X107467591Y-100450000D01*
X107327708Y-100487482D01*
X107290000Y-100509252D01*
X107290000Y-99521490D01*
X107289999Y-99521490D01*
X107199875Y-99535765D01*
X106982431Y-99606417D01*
X106778719Y-99710213D01*
X106595939Y-99843010D01*
X106530132Y-99866490D01*
X106462079Y-99850664D01*
X106413384Y-99800558D01*
X106406875Y-99786033D01*
X106396296Y-99757669D01*
X106396295Y-99757667D01*
X106396293Y-99757664D01*
X106310047Y-99642455D01*
X106310044Y-99642452D01*
X106194835Y-99556206D01*
X106194828Y-99556202D01*
X106059982Y-99505908D01*
X106059983Y-99505908D01*
X106000383Y-99499501D01*
X106000381Y-99499500D01*
X106000373Y-99499500D01*
X106000364Y-99499500D01*
X103999629Y-99499500D01*
X103999623Y-99499501D01*
X103940016Y-99505908D01*
X103805171Y-99556202D01*
X103805164Y-99556206D01*
X103689955Y-99642452D01*
X103689952Y-99642455D01*
X103603706Y-99757664D01*
X103603702Y-99757671D01*
X103553408Y-99892517D01*
X103547001Y-99952116D01*
X103547000Y-99952135D01*
X100500500Y-99952135D01*
X100500500Y-98461153D01*
X136659500Y-98461153D01*
X136659500Y-98618846D01*
X136690261Y-98773489D01*
X136690264Y-98773501D01*
X136750602Y-98919172D01*
X136750609Y-98919185D01*
X136838210Y-99050288D01*
X136838213Y-99050292D01*
X136949707Y-99161786D01*
X136949711Y-99161789D01*
X137080814Y-99249390D01*
X137080827Y-99249397D01*
X137226498Y-99309735D01*
X137226503Y-99309737D01*
X137381153Y-99340499D01*
X137381156Y-99340500D01*
X137381158Y-99340500D01*
X137401719Y-99340500D01*
X137468758Y-99360185D01*
X137489400Y-99376819D01*
X142174907Y-104062326D01*
X142208392Y-104123649D01*
X142208843Y-104125815D01*
X142230261Y-104233491D01*
X142230264Y-104233501D01*
X142290602Y-104379172D01*
X142290609Y-104379185D01*
X142378210Y-104510288D01*
X142378213Y-104510292D01*
X142489707Y-104621786D01*
X142489711Y-104621789D01*
X142620814Y-104709390D01*
X142620827Y-104709397D01*
X142766498Y-104769735D01*
X142766503Y-104769737D01*
X142921153Y-104800499D01*
X142921156Y-104800500D01*
X142921158Y-104800500D01*
X143078844Y-104800500D01*
X143078845Y-104800499D01*
X143233497Y-104769737D01*
X143379179Y-104709394D01*
X143510289Y-104621789D01*
X143621789Y-104510289D01*
X143709394Y-104379179D01*
X143769737Y-104233497D01*
X143800500Y-104078842D01*
X143800500Y-103921158D01*
X143800500Y-103921155D01*
X143800499Y-103921153D01*
X143769737Y-103766503D01*
X143727906Y-103665513D01*
X143709397Y-103620827D01*
X143709390Y-103620814D01*
X143621789Y-103489711D01*
X143621786Y-103489707D01*
X143510292Y-103378213D01*
X143510288Y-103378210D01*
X143379185Y-103290609D01*
X143379172Y-103290602D01*
X143233501Y-103230264D01*
X143233491Y-103230261D01*
X143125815Y-103208843D01*
X143063904Y-103176458D01*
X143062326Y-103174907D01*
X140221354Y-100333935D01*
X149149500Y-100333935D01*
X149149500Y-102129670D01*
X149149501Y-102129676D01*
X149155908Y-102189283D01*
X149206202Y-102324128D01*
X149206206Y-102324135D01*
X149292452Y-102439344D01*
X149292455Y-102439347D01*
X149407664Y-102525593D01*
X149407671Y-102525597D01*
X149542517Y-102575891D01*
X149542516Y-102575891D01*
X149549444Y-102576635D01*
X149602127Y-102582300D01*
X151397872Y-102582299D01*
X151457483Y-102575891D01*
X151592331Y-102525596D01*
X151707546Y-102439346D01*
X151793796Y-102324131D01*
X151844091Y-102189283D01*
X151850500Y-102129673D01*
X151850499Y-102105779D01*
X151853330Y-102092763D01*
X151863940Y-102073325D01*
X151870179Y-102052075D01*
X151886803Y-102031443D01*
X151886808Y-102031436D01*
X151886811Y-102031434D01*
X151886818Y-102031426D01*
X152557037Y-101361208D01*
X152574075Y-101424793D01*
X152639901Y-101538807D01*
X152732993Y-101631899D01*
X152847007Y-101697725D01*
X152910590Y-101714762D01*
X152278282Y-102347069D01*
X152278282Y-102347070D01*
X152332449Y-102386424D01*
X152521782Y-102482895D01*
X152723870Y-102548557D01*
X152933754Y-102581800D01*
X153146246Y-102581800D01*
X153356127Y-102548557D01*
X153356130Y-102548557D01*
X153558217Y-102482895D01*
X153747554Y-102386422D01*
X153801716Y-102347070D01*
X153801717Y-102347070D01*
X153169408Y-101714762D01*
X153232993Y-101697725D01*
X153347007Y-101631899D01*
X153440099Y-101538807D01*
X153505925Y-101424793D01*
X153522962Y-101361208D01*
X154155270Y-101993517D01*
X154155270Y-101993516D01*
X154194622Y-101939355D01*
X154199232Y-101930307D01*
X154247205Y-101879509D01*
X154315025Y-101862712D01*
X154381161Y-101885247D01*
X154420204Y-101930304D01*
X154424949Y-101939617D01*
X154549890Y-102111586D01*
X154700213Y-102261909D01*
X154872179Y-102386848D01*
X154872181Y-102386849D01*
X154872184Y-102386851D01*
X155061588Y-102483357D01*
X155263757Y-102549046D01*
X155473713Y-102582300D01*
X155473714Y-102582300D01*
X155686286Y-102582300D01*
X155686287Y-102582300D01*
X155896243Y-102549046D01*
X156098412Y-102483357D01*
X156287816Y-102386851D01*
X156374138Y-102324135D01*
X156459786Y-102261909D01*
X156459788Y-102261906D01*
X156459792Y-102261904D01*
X156610104Y-102111592D01*
X156610106Y-102111588D01*
X156610109Y-102111586D01*
X156735048Y-101939620D01*
X156735050Y-101939617D01*
X156735051Y-101939616D01*
X156739514Y-101930854D01*
X156787488Y-101880059D01*
X156855308Y-101863263D01*
X156921444Y-101885799D01*
X156960486Y-101930856D01*
X156964951Y-101939620D01*
X157089890Y-102111586D01*
X157240213Y-102261909D01*
X157412179Y-102386848D01*
X157412181Y-102386849D01*
X157412184Y-102386851D01*
X157601588Y-102483357D01*
X157803757Y-102549046D01*
X158013713Y-102582300D01*
X158013714Y-102582300D01*
X158226286Y-102582300D01*
X158226287Y-102582300D01*
X158436243Y-102549046D01*
X158638412Y-102483357D01*
X158827816Y-102386851D01*
X158914138Y-102324135D01*
X158999786Y-102261909D01*
X158999788Y-102261906D01*
X158999792Y-102261904D01*
X159150104Y-102111592D01*
X159150106Y-102111588D01*
X159150109Y-102111586D01*
X159275048Y-101939620D01*
X159275050Y-101939617D01*
X159275051Y-101939616D01*
X159279514Y-101930854D01*
X159327488Y-101880059D01*
X159395308Y-101863263D01*
X159461444Y-101885799D01*
X159500486Y-101930856D01*
X159504951Y-101939620D01*
X159629890Y-102111586D01*
X159780213Y-102261909D01*
X159952179Y-102386848D01*
X159952181Y-102386849D01*
X159952184Y-102386851D01*
X160141588Y-102483357D01*
X160343757Y-102549046D01*
X160553713Y-102582300D01*
X160553714Y-102582300D01*
X160766286Y-102582300D01*
X160766287Y-102582300D01*
X160976243Y-102549046D01*
X161178412Y-102483357D01*
X161367816Y-102386851D01*
X161454138Y-102324135D01*
X161539786Y-102261909D01*
X161539788Y-102261906D01*
X161539792Y-102261904D01*
X161690104Y-102111592D01*
X161690106Y-102111588D01*
X161690109Y-102111586D01*
X161815048Y-101939620D01*
X161815050Y-101939617D01*
X161815051Y-101939616D01*
X161819514Y-101930854D01*
X161867488Y-101880059D01*
X161935308Y-101863263D01*
X162001444Y-101885799D01*
X162040486Y-101930856D01*
X162044951Y-101939620D01*
X162169890Y-102111586D01*
X162320213Y-102261909D01*
X162492179Y-102386848D01*
X162492181Y-102386849D01*
X162492184Y-102386851D01*
X162681588Y-102483357D01*
X162883757Y-102549046D01*
X163093713Y-102582300D01*
X163093714Y-102582300D01*
X163306286Y-102582300D01*
X163306287Y-102582300D01*
X163516243Y-102549046D01*
X163718412Y-102483357D01*
X163907816Y-102386851D01*
X163994138Y-102324135D01*
X164079786Y-102261909D01*
X164079788Y-102261906D01*
X164079792Y-102261904D01*
X164230104Y-102111592D01*
X164230106Y-102111588D01*
X164230109Y-102111586D01*
X164355048Y-101939620D01*
X164355050Y-101939617D01*
X164355051Y-101939616D01*
X164359514Y-101930854D01*
X164407488Y-101880059D01*
X164475308Y-101863263D01*
X164541444Y-101885799D01*
X164580486Y-101930856D01*
X164584951Y-101939620D01*
X164709890Y-102111586D01*
X164860213Y-102261909D01*
X165032179Y-102386848D01*
X165032181Y-102386849D01*
X165032184Y-102386851D01*
X165221588Y-102483357D01*
X165423757Y-102549046D01*
X165633713Y-102582300D01*
X165633714Y-102582300D01*
X165846286Y-102582300D01*
X165846287Y-102582300D01*
X166056243Y-102549046D01*
X166258412Y-102483357D01*
X166447816Y-102386851D01*
X166534138Y-102324135D01*
X166619786Y-102261909D01*
X166619788Y-102261906D01*
X166619792Y-102261904D01*
X166770104Y-102111592D01*
X166770106Y-102111588D01*
X166770109Y-102111586D01*
X166895048Y-101939620D01*
X166895050Y-101939617D01*
X166895051Y-101939616D01*
X166991557Y-101750212D01*
X167057246Y-101548043D01*
X167090500Y-101338087D01*
X167090500Y-101125513D01*
X167057246Y-100915557D01*
X166991557Y-100713388D01*
X166895051Y-100523984D01*
X166841299Y-100450000D01*
X166807511Y-100403494D01*
X166807508Y-100403491D01*
X166783792Y-100370849D01*
X166770104Y-100352008D01*
X166752031Y-100333935D01*
X177897500Y-100333935D01*
X177897500Y-102129670D01*
X177897501Y-102129676D01*
X177903908Y-102189283D01*
X177954202Y-102324128D01*
X177954206Y-102324135D01*
X178040452Y-102439344D01*
X178040455Y-102439347D01*
X178155664Y-102525593D01*
X178155671Y-102525597D01*
X178287082Y-102574610D01*
X178343016Y-102616481D01*
X178367433Y-102681945D01*
X178352582Y-102750218D01*
X178331431Y-102778473D01*
X178217889Y-102892015D01*
X178092951Y-103063979D01*
X177996444Y-103253385D01*
X177930753Y-103455560D01*
X177897500Y-103665513D01*
X177897500Y-103878086D01*
X177929296Y-104078842D01*
X177930754Y-104088043D01*
X177978016Y-104233501D01*
X177996444Y-104290214D01*
X178092951Y-104479620D01*
X178217890Y-104651586D01*
X178368213Y-104801909D01*
X178540182Y-104926850D01*
X178548946Y-104931316D01*
X178599742Y-104979291D01*
X178616536Y-105047112D01*
X178593998Y-105113247D01*
X178548946Y-105152284D01*
X178540182Y-105156749D01*
X178368213Y-105281690D01*
X178217890Y-105432013D01*
X178092951Y-105603979D01*
X177996444Y-105793385D01*
X177930753Y-105995560D01*
X177897500Y-106205513D01*
X177897500Y-106418086D01*
X177930753Y-106628039D01*
X177996444Y-106830214D01*
X178092951Y-107019620D01*
X178217890Y-107191586D01*
X178368213Y-107341909D01*
X178540182Y-107466850D01*
X178548946Y-107471316D01*
X178599742Y-107519291D01*
X178616536Y-107587112D01*
X178593998Y-107653247D01*
X178548946Y-107692284D01*
X178540182Y-107696749D01*
X178368213Y-107821690D01*
X178217890Y-107972013D01*
X178092951Y-108143979D01*
X177996444Y-108333385D01*
X177930753Y-108535560D01*
X177897500Y-108745513D01*
X177897500Y-108958086D01*
X177930753Y-109168039D01*
X177996444Y-109370214D01*
X178092951Y-109559620D01*
X178217890Y-109731586D01*
X178368213Y-109881909D01*
X178540182Y-110006850D01*
X178548946Y-110011316D01*
X178599742Y-110059291D01*
X178616536Y-110127112D01*
X178593998Y-110193247D01*
X178548946Y-110232284D01*
X178540182Y-110236749D01*
X178368213Y-110361690D01*
X178217890Y-110512013D01*
X178092951Y-110683979D01*
X177996444Y-110873385D01*
X177930753Y-111075560D01*
X177930314Y-111078333D01*
X177897500Y-111285513D01*
X177897500Y-111498087D01*
X177930754Y-111708043D01*
X177994299Y-111903614D01*
X177996444Y-111910214D01*
X178092951Y-112099620D01*
X178217890Y-112271586D01*
X178368213Y-112421909D01*
X178540182Y-112546850D01*
X178548946Y-112551316D01*
X178599742Y-112599291D01*
X178616536Y-112667112D01*
X178593998Y-112733247D01*
X178548946Y-112772284D01*
X178540182Y-112776749D01*
X178368213Y-112901690D01*
X178217890Y-113052013D01*
X178092951Y-113223979D01*
X177996444Y-113413385D01*
X177930753Y-113615560D01*
X177897500Y-113825513D01*
X177897500Y-114038086D01*
X177930753Y-114248039D01*
X177996444Y-114450214D01*
X178092951Y-114639620D01*
X178217890Y-114811586D01*
X178368213Y-114961909D01*
X178540182Y-115086850D01*
X178548946Y-115091316D01*
X178599742Y-115139291D01*
X178616536Y-115207112D01*
X178593998Y-115273247D01*
X178548946Y-115312284D01*
X178540182Y-115316749D01*
X178368213Y-115441690D01*
X178217890Y-115592013D01*
X178092951Y-115763979D01*
X177996444Y-115953385D01*
X177930753Y-116155560D01*
X177897500Y-116365513D01*
X177897500Y-116578086D01*
X177930753Y-116788039D01*
X177996444Y-116990214D01*
X178092951Y-117179620D01*
X178217890Y-117351586D01*
X178368213Y-117501909D01*
X178540182Y-117626850D01*
X178548946Y-117631316D01*
X178599742Y-117679291D01*
X178616536Y-117747112D01*
X178593998Y-117813247D01*
X178548946Y-117852284D01*
X178540182Y-117856749D01*
X178368213Y-117981690D01*
X178217890Y-118132013D01*
X178092951Y-118303979D01*
X177996444Y-118493385D01*
X177930753Y-118695560D01*
X177897500Y-118905513D01*
X177897500Y-119118087D01*
X177930754Y-119328043D01*
X177932319Y-119332861D01*
X177996444Y-119530214D01*
X178092951Y-119719620D01*
X178217890Y-119891586D01*
X178368213Y-120041909D01*
X178540182Y-120166850D01*
X178548946Y-120171316D01*
X178599742Y-120219291D01*
X178616536Y-120287112D01*
X178593998Y-120353247D01*
X178548946Y-120392284D01*
X178540182Y-120396749D01*
X178368213Y-120521690D01*
X178217890Y-120672013D01*
X178092951Y-120843979D01*
X177996444Y-121033385D01*
X177930753Y-121235560D01*
X177910016Y-121366490D01*
X177897500Y-121445513D01*
X177897500Y-121658087D01*
X177930754Y-121868043D01*
X177993089Y-122059890D01*
X177996444Y-122070214D01*
X178092951Y-122259620D01*
X178217890Y-122431586D01*
X178368213Y-122581909D01*
X178540182Y-122706850D01*
X178548946Y-122711316D01*
X178599742Y-122759291D01*
X178616536Y-122827112D01*
X178593998Y-122893247D01*
X178548946Y-122932284D01*
X178540182Y-122936749D01*
X178368213Y-123061690D01*
X178217890Y-123212013D01*
X178092951Y-123383979D01*
X177996444Y-123573385D01*
X177930753Y-123775560D01*
X177897500Y-123985513D01*
X177897500Y-124198086D01*
X177930753Y-124408039D01*
X177996444Y-124610214D01*
X178092951Y-124799620D01*
X178217890Y-124971586D01*
X178368213Y-125121909D01*
X178540182Y-125246850D01*
X178548946Y-125251316D01*
X178599742Y-125299291D01*
X178616536Y-125367112D01*
X178593998Y-125433247D01*
X178548946Y-125472284D01*
X178540182Y-125476749D01*
X178368213Y-125601690D01*
X178217890Y-125752013D01*
X178092951Y-125923979D01*
X177996444Y-126113385D01*
X177930753Y-126315560D01*
X177897500Y-126525513D01*
X177897500Y-126738086D01*
X177930753Y-126948039D01*
X177996444Y-127150214D01*
X178092951Y-127339620D01*
X178217890Y-127511586D01*
X178368213Y-127661909D01*
X178540182Y-127786850D01*
X178548946Y-127791316D01*
X178599742Y-127839291D01*
X178616536Y-127907112D01*
X178593998Y-127973247D01*
X178548946Y-128012284D01*
X178540182Y-128016749D01*
X178368213Y-128141690D01*
X178217890Y-128292013D01*
X178092951Y-128463979D01*
X177996444Y-128653385D01*
X177930753Y-128855560D01*
X177897500Y-129065513D01*
X177897500Y-129278086D01*
X177930753Y-129488039D01*
X177996444Y-129690214D01*
X178092951Y-129879620D01*
X178217890Y-130051586D01*
X178368213Y-130201909D01*
X178540182Y-130326850D01*
X178548946Y-130331316D01*
X178599742Y-130379291D01*
X178616536Y-130447112D01*
X178593998Y-130513247D01*
X178548946Y-130552284D01*
X178540182Y-130556749D01*
X178368213Y-130681690D01*
X178217890Y-130832013D01*
X178092951Y-131003979D01*
X177996444Y-131193385D01*
X177930753Y-131395560D01*
X177897500Y-131605513D01*
X177897500Y-131818086D01*
X177930753Y-132028039D01*
X177996444Y-132230214D01*
X178092951Y-132419620D01*
X178217890Y-132591586D01*
X178368213Y-132741909D01*
X178540182Y-132866850D01*
X178548946Y-132871316D01*
X178599742Y-132919291D01*
X178616536Y-132987112D01*
X178593998Y-133053247D01*
X178548946Y-133092284D01*
X178540182Y-133096749D01*
X178368213Y-133221690D01*
X178217890Y-133372013D01*
X178092951Y-133543979D01*
X177996444Y-133733385D01*
X177930753Y-133935560D01*
X177897500Y-134145513D01*
X177897500Y-134358086D01*
X177930753Y-134568039D01*
X177930753Y-134568041D01*
X177930754Y-134568043D01*
X177962952Y-134667139D01*
X177996444Y-134770214D01*
X178092951Y-134959620D01*
X178217890Y-135131586D01*
X178368213Y-135281909D01*
X178540182Y-135406850D01*
X178548946Y-135411316D01*
X178599742Y-135459291D01*
X178616536Y-135527112D01*
X178593998Y-135593247D01*
X178548946Y-135632284D01*
X178540182Y-135636749D01*
X178368213Y-135761690D01*
X178217890Y-135912013D01*
X178092951Y-136083979D01*
X177996444Y-136273385D01*
X177930753Y-136475560D01*
X177897500Y-136685513D01*
X177897500Y-136898086D01*
X177930753Y-137108039D01*
X177996444Y-137310214D01*
X178092951Y-137499620D01*
X178217890Y-137671586D01*
X178368213Y-137821909D01*
X178540182Y-137946850D01*
X178548946Y-137951316D01*
X178599742Y-137999291D01*
X178616536Y-138067112D01*
X178593998Y-138133247D01*
X178548946Y-138172284D01*
X178540182Y-138176749D01*
X178368213Y-138301690D01*
X178217890Y-138452013D01*
X178092951Y-138623979D01*
X177996444Y-138813385D01*
X177930753Y-139015560D01*
X177897500Y-139225513D01*
X177897500Y-139438086D01*
X177930753Y-139648039D01*
X177996444Y-139850214D01*
X178092951Y-140039620D01*
X178217890Y-140211586D01*
X178368213Y-140361909D01*
X178540182Y-140486850D01*
X178548946Y-140491316D01*
X178599742Y-140539291D01*
X178616536Y-140607112D01*
X178593998Y-140673247D01*
X178548946Y-140712284D01*
X178540182Y-140716749D01*
X178368213Y-140841690D01*
X178217890Y-140992013D01*
X178092951Y-141163979D01*
X177996444Y-141353385D01*
X177930753Y-141555560D01*
X177897500Y-141765513D01*
X177897500Y-141978086D01*
X177930753Y-142188039D01*
X177996444Y-142390214D01*
X178092951Y-142579620D01*
X178217890Y-142751586D01*
X178368213Y-142901909D01*
X178540182Y-143026850D01*
X178548946Y-143031316D01*
X178599742Y-143079291D01*
X178616536Y-143147112D01*
X178593998Y-143213247D01*
X178548946Y-143252284D01*
X178540182Y-143256749D01*
X178368213Y-143381690D01*
X178217890Y-143532013D01*
X178092951Y-143703979D01*
X177996444Y-143893385D01*
X177930753Y-144095560D01*
X177897500Y-144305513D01*
X177897500Y-144518087D01*
X177930754Y-144728043D01*
X177938629Y-144752281D01*
X177996444Y-144930214D01*
X178092951Y-145119620D01*
X178217890Y-145291586D01*
X178368213Y-145441909D01*
X178540182Y-145566850D01*
X178548946Y-145571316D01*
X178599742Y-145619291D01*
X178616536Y-145687112D01*
X178593998Y-145753247D01*
X178548946Y-145792284D01*
X178540182Y-145796749D01*
X178368213Y-145921690D01*
X178217890Y-146072013D01*
X178092951Y-146243979D01*
X177996444Y-146433385D01*
X177930753Y-146635560D01*
X177897500Y-146845513D01*
X177897500Y-147058086D01*
X177930753Y-147268039D01*
X177996444Y-147470214D01*
X178092951Y-147659620D01*
X178217890Y-147831586D01*
X178368213Y-147981909D01*
X178540179Y-148106848D01*
X178540181Y-148106849D01*
X178540184Y-148106851D01*
X178729588Y-148203357D01*
X178931757Y-148269046D01*
X179141713Y-148302300D01*
X179141714Y-148302300D01*
X179354286Y-148302300D01*
X179354287Y-148302300D01*
X179564243Y-148269046D01*
X179766412Y-148203357D01*
X179955816Y-148106851D01*
X179977789Y-148090886D01*
X180127786Y-147981909D01*
X180127788Y-147981906D01*
X180127792Y-147981904D01*
X180278104Y-147831592D01*
X180278106Y-147831588D01*
X180278109Y-147831586D01*
X180403048Y-147659620D01*
X180403047Y-147659620D01*
X180403051Y-147659616D01*
X180407514Y-147650854D01*
X180455488Y-147600059D01*
X180523308Y-147583263D01*
X180589444Y-147605799D01*
X180628486Y-147650856D01*
X180632951Y-147659620D01*
X180757890Y-147831586D01*
X180908213Y-147981909D01*
X181080179Y-148106848D01*
X181080181Y-148106849D01*
X181080184Y-148106851D01*
X181269588Y-148203357D01*
X181471757Y-148269046D01*
X181681713Y-148302300D01*
X181681714Y-148302300D01*
X181894286Y-148302300D01*
X181894287Y-148302300D01*
X182104243Y-148269046D01*
X182306412Y-148203357D01*
X182495816Y-148106851D01*
X182517789Y-148090886D01*
X182667786Y-147981909D01*
X182667788Y-147981906D01*
X182667792Y-147981904D01*
X182818104Y-147831592D01*
X182818106Y-147831588D01*
X182818109Y-147831586D01*
X182943048Y-147659620D01*
X182943047Y-147659620D01*
X182943051Y-147659616D01*
X183039557Y-147470212D01*
X183105246Y-147268043D01*
X183138500Y-147058087D01*
X183138500Y-146845513D01*
X183105246Y-146635557D01*
X183039557Y-146433388D01*
X182943051Y-146243984D01*
X182943049Y-146243981D01*
X182943048Y-146243979D01*
X182818109Y-146072013D01*
X182667786Y-145921690D01*
X182495820Y-145796751D01*
X182495115Y-145796391D01*
X182487054Y-145792285D01*
X182436259Y-145744312D01*
X182419463Y-145676492D01*
X182441999Y-145610356D01*
X182487054Y-145571315D01*
X182495816Y-145566851D01*
X182517789Y-145550886D01*
X182667786Y-145441909D01*
X182667788Y-145441906D01*
X182667792Y-145441904D01*
X182818104Y-145291592D01*
X182818106Y-145291588D01*
X182818109Y-145291586D01*
X182943048Y-145119620D01*
X182943047Y-145119620D01*
X182943051Y-145119616D01*
X183039557Y-144930212D01*
X183083930Y-144793646D01*
X190799500Y-144793646D01*
X190799500Y-145206353D01*
X190839952Y-145617084D01*
X190920464Y-146021848D01*
X190920467Y-146021859D01*
X191040274Y-146416814D01*
X191198214Y-146798113D01*
X191198216Y-146798118D01*
X191392759Y-147162081D01*
X191392770Y-147162099D01*
X191622052Y-147505244D01*
X191622062Y-147505258D01*
X191883885Y-147824291D01*
X192175708Y-148116114D01*
X192175713Y-148116118D01*
X192175714Y-148116119D01*
X192494747Y-148377942D01*
X192837907Y-148607234D01*
X192837916Y-148607239D01*
X192837918Y-148607240D01*
X193201881Y-148801783D01*
X193201883Y-148801783D01*
X193201889Y-148801787D01*
X193583187Y-148959726D01*
X193978131Y-149079530D01*
X193978137Y-149079531D01*
X193978140Y-149079532D01*
X193978151Y-149079535D01*
X194382915Y-149160047D01*
X194793643Y-149200500D01*
X194793646Y-149200500D01*
X195206354Y-149200500D01*
X195206357Y-149200500D01*
X195617085Y-149160047D01*
X195695884Y-149144372D01*
X196021848Y-149079535D01*
X196021859Y-149079532D01*
X196021859Y-149079531D01*
X196021869Y-149079530D01*
X196416813Y-148959726D01*
X196798111Y-148801787D01*
X197162093Y-148607234D01*
X197505253Y-148377942D01*
X197824286Y-148116119D01*
X198116119Y-147824286D01*
X198377942Y-147505253D01*
X198607234Y-147162093D01*
X198801787Y-146798111D01*
X198959726Y-146416813D01*
X199079530Y-146021869D01*
X199079532Y-146021859D01*
X199079535Y-146021848D01*
X199160047Y-145617084D01*
X199164555Y-145571314D01*
X199200500Y-145206357D01*
X199200500Y-144793643D01*
X199160047Y-144382915D01*
X199144651Y-144305513D01*
X199079535Y-143978151D01*
X199079532Y-143978140D01*
X199079531Y-143978137D01*
X199079530Y-143978131D01*
X198959726Y-143583187D01*
X198801787Y-143201889D01*
X198766831Y-143136492D01*
X198607240Y-142837918D01*
X198607239Y-142837916D01*
X198607234Y-142837907D01*
X198377942Y-142494747D01*
X198116119Y-142175714D01*
X198116118Y-142175713D01*
X198116114Y-142175708D01*
X197824291Y-141883885D01*
X197505258Y-141622062D01*
X197505257Y-141622061D01*
X197505253Y-141622058D01*
X197162093Y-141392766D01*
X197162088Y-141392763D01*
X197162081Y-141392759D01*
X196798118Y-141198216D01*
X196798113Y-141198214D01*
X196416814Y-141040274D01*
X196021859Y-140920467D01*
X196021848Y-140920464D01*
X195617084Y-140839952D01*
X195307741Y-140809485D01*
X195206357Y-140799500D01*
X194793643Y-140799500D01*
X194699966Y-140808726D01*
X194382915Y-140839952D01*
X193978151Y-140920464D01*
X193978140Y-140920467D01*
X193583185Y-141040274D01*
X193201886Y-141198214D01*
X193201881Y-141198216D01*
X192837918Y-141392759D01*
X192837900Y-141392770D01*
X192494755Y-141622052D01*
X192494741Y-141622062D01*
X192175708Y-141883885D01*
X191883885Y-142175708D01*
X191622062Y-142494741D01*
X191622052Y-142494755D01*
X191392770Y-142837900D01*
X191392759Y-142837918D01*
X191198216Y-143201881D01*
X191198214Y-143201886D01*
X191040274Y-143583185D01*
X190920467Y-143978140D01*
X190920464Y-143978151D01*
X190839952Y-144382915D01*
X190799500Y-144793646D01*
X183083930Y-144793646D01*
X183105246Y-144728043D01*
X183138500Y-144518087D01*
X183138500Y-144305513D01*
X183105246Y-144095557D01*
X183039557Y-143893388D01*
X182943051Y-143703984D01*
X182943049Y-143703981D01*
X182943048Y-143703979D01*
X182818109Y-143532013D01*
X182667786Y-143381690D01*
X182495820Y-143256751D01*
X182495115Y-143256391D01*
X182487054Y-143252285D01*
X182436259Y-143204312D01*
X182419463Y-143136492D01*
X182441999Y-143070356D01*
X182487054Y-143031315D01*
X182495816Y-143026851D01*
X182517789Y-143010886D01*
X182667786Y-142901909D01*
X182667788Y-142901906D01*
X182667792Y-142901904D01*
X182818104Y-142751592D01*
X182818106Y-142751588D01*
X182818109Y-142751586D01*
X182943048Y-142579620D01*
X182943047Y-142579620D01*
X182943051Y-142579616D01*
X183039557Y-142390212D01*
X183105246Y-142188043D01*
X183138500Y-141978087D01*
X183138500Y-141765513D01*
X183105246Y-141555557D01*
X183039557Y-141353388D01*
X182943051Y-141163984D01*
X182943049Y-141163981D01*
X182943048Y-141163979D01*
X182818109Y-140992013D01*
X182667786Y-140841690D01*
X182495820Y-140716751D01*
X182495115Y-140716391D01*
X182487054Y-140712285D01*
X182436259Y-140664312D01*
X182419463Y-140596492D01*
X182441999Y-140530356D01*
X182487054Y-140491315D01*
X182495816Y-140486851D01*
X182517789Y-140470886D01*
X182667786Y-140361909D01*
X182667788Y-140361906D01*
X182667792Y-140361904D01*
X182818104Y-140211592D01*
X182818106Y-140211588D01*
X182818109Y-140211586D01*
X182943048Y-140039620D01*
X182943047Y-140039620D01*
X182943051Y-140039616D01*
X183039557Y-139850212D01*
X183105246Y-139648043D01*
X183138500Y-139438087D01*
X183138500Y-139225513D01*
X183105246Y-139015557D01*
X183039557Y-138813388D01*
X182943051Y-138623984D01*
X182943049Y-138623981D01*
X182943048Y-138623979D01*
X182818109Y-138452013D01*
X182667786Y-138301690D01*
X182495820Y-138176751D01*
X182495115Y-138176391D01*
X182487054Y-138172285D01*
X182436259Y-138124312D01*
X182419463Y-138056492D01*
X182441999Y-137990356D01*
X182487054Y-137951315D01*
X182495816Y-137946851D01*
X182517789Y-137930886D01*
X182667786Y-137821909D01*
X182667788Y-137821906D01*
X182667792Y-137821904D01*
X182818104Y-137671592D01*
X182818106Y-137671588D01*
X182818109Y-137671586D01*
X182943048Y-137499620D01*
X182943047Y-137499620D01*
X182943051Y-137499616D01*
X183039557Y-137310212D01*
X183105246Y-137108043D01*
X183138500Y-136898087D01*
X183138500Y-136685513D01*
X183105246Y-136475557D01*
X183039557Y-136273388D01*
X182943051Y-136083984D01*
X182943049Y-136083981D01*
X182943048Y-136083979D01*
X182818109Y-135912013D01*
X182667786Y-135761690D01*
X182495820Y-135636751D01*
X182495115Y-135636391D01*
X182487054Y-135632285D01*
X182436259Y-135584312D01*
X182419463Y-135516492D01*
X182441999Y-135450356D01*
X182487054Y-135411315D01*
X182495816Y-135406851D01*
X182552954Y-135365338D01*
X182667786Y-135281909D01*
X182667788Y-135281906D01*
X182667792Y-135281904D01*
X182818104Y-135131592D01*
X182818106Y-135131588D01*
X182818109Y-135131586D01*
X182943048Y-134959620D01*
X182943047Y-134959620D01*
X182943051Y-134959616D01*
X183039557Y-134770212D01*
X183073050Y-134667133D01*
X188549500Y-134667133D01*
X188549500Y-135332866D01*
X188580266Y-135527112D01*
X188583246Y-135545926D01*
X188649908Y-135751089D01*
X188747843Y-135943299D01*
X188874641Y-136117821D01*
X189027179Y-136270359D01*
X189201701Y-136397157D01*
X189393911Y-136495092D01*
X189599074Y-136561754D01*
X189666796Y-136572480D01*
X189812134Y-136595500D01*
X189812139Y-136595500D01*
X190027866Y-136595500D01*
X190146230Y-136576752D01*
X190240926Y-136561754D01*
X190446089Y-136495092D01*
X190638299Y-136397157D01*
X190812821Y-136270359D01*
X190965359Y-136117821D01*
X191089682Y-135946704D01*
X191145012Y-135904040D01*
X191214626Y-135898061D01*
X191276420Y-135930667D01*
X191290315Y-135946702D01*
X191414641Y-136117821D01*
X191567179Y-136270359D01*
X191741701Y-136397157D01*
X191933911Y-136495092D01*
X192139074Y-136561754D01*
X192206796Y-136572480D01*
X192352134Y-136595500D01*
X192352139Y-136595500D01*
X192567866Y-136595500D01*
X192686230Y-136576752D01*
X192780926Y-136561754D01*
X192986089Y-136495092D01*
X193178299Y-136397157D01*
X193352821Y-136270359D01*
X193495186Y-136127993D01*
X193556505Y-136094511D01*
X193626197Y-136099495D01*
X193682131Y-136141366D01*
X193695248Y-136163277D01*
X193695640Y-136164118D01*
X193787684Y-136313345D01*
X193911654Y-136437315D01*
X194060875Y-136529356D01*
X194060880Y-136529358D01*
X194227302Y-136584505D01*
X194227309Y-136584506D01*
X194330019Y-136594999D01*
X194749999Y-136594999D01*
X194750000Y-136594998D01*
X194750000Y-135542709D01*
X194770339Y-135554452D01*
X194921667Y-135595000D01*
X195078333Y-135595000D01*
X195229661Y-135554452D01*
X195250000Y-135542709D01*
X195250000Y-136594999D01*
X195669972Y-136594999D01*
X195669986Y-136594998D01*
X195772697Y-136584505D01*
X195939119Y-136529358D01*
X195939124Y-136529356D01*
X196088345Y-136437315D01*
X196212315Y-136313345D01*
X196304356Y-136164124D01*
X196304358Y-136164119D01*
X196359505Y-135997697D01*
X196359506Y-135997690D01*
X196369999Y-135894986D01*
X196370000Y-135894973D01*
X196370000Y-135250000D01*
X195542709Y-135250000D01*
X195554452Y-135229661D01*
X195595000Y-135078333D01*
X195595000Y-134921667D01*
X195554452Y-134770339D01*
X195542709Y-134750000D01*
X196369999Y-134750000D01*
X196369999Y-134105028D01*
X196369998Y-134105013D01*
X196359505Y-134002302D01*
X196304358Y-133835880D01*
X196304356Y-133835875D01*
X196212315Y-133686654D01*
X196088345Y-133562684D01*
X195939124Y-133470643D01*
X195939119Y-133470641D01*
X195772697Y-133415494D01*
X195772690Y-133415493D01*
X195669986Y-133405000D01*
X195250000Y-133405000D01*
X195250000Y-134457290D01*
X195229661Y-134445548D01*
X195078333Y-134405000D01*
X194921667Y-134405000D01*
X194770339Y-134445548D01*
X194750000Y-134457290D01*
X194750000Y-133405000D01*
X194330028Y-133405000D01*
X194330012Y-133405001D01*
X194227302Y-133415494D01*
X194060880Y-133470641D01*
X194060875Y-133470643D01*
X193911654Y-133562684D01*
X193787684Y-133686654D01*
X193695637Y-133835885D01*
X193695245Y-133836728D01*
X193694821Y-133837208D01*
X193691851Y-133842025D01*
X193691027Y-133841517D01*
X193649072Y-133889167D01*
X193581879Y-133908318D01*
X193514998Y-133888101D01*
X193495183Y-133872003D01*
X193352823Y-133729643D01*
X193352821Y-133729641D01*
X193178299Y-133602843D01*
X192986089Y-133504908D01*
X192780926Y-133438246D01*
X192780924Y-133438245D01*
X192780922Y-133438245D01*
X192567866Y-133404500D01*
X192567861Y-133404500D01*
X192352139Y-133404500D01*
X192352134Y-133404500D01*
X192139077Y-133438245D01*
X191933908Y-133504909D01*
X191741700Y-133602843D01*
X191642129Y-133675186D01*
X191567179Y-133729641D01*
X191567177Y-133729643D01*
X191567176Y-133729643D01*
X191414643Y-133882176D01*
X191414643Y-133882177D01*
X191414641Y-133882179D01*
X191337729Y-133988038D01*
X191290318Y-134053294D01*
X191234988Y-134095959D01*
X191165374Y-134101938D01*
X191103579Y-134069332D01*
X191089682Y-134053294D01*
X191067435Y-134022674D01*
X190965359Y-133882179D01*
X190812821Y-133729641D01*
X190638299Y-133602843D01*
X190446089Y-133504908D01*
X190240926Y-133438246D01*
X190240924Y-133438245D01*
X190240922Y-133438245D01*
X190027866Y-133404500D01*
X190027861Y-133404500D01*
X189812139Y-133404500D01*
X189812134Y-133404500D01*
X189599077Y-133438245D01*
X189393908Y-133504909D01*
X189201700Y-133602843D01*
X189102129Y-133675186D01*
X189027179Y-133729641D01*
X189027177Y-133729643D01*
X189027176Y-133729643D01*
X188874643Y-133882176D01*
X188874643Y-133882177D01*
X188874641Y-133882179D01*
X188855650Y-133908318D01*
X188747843Y-134056700D01*
X188649909Y-134248908D01*
X188583245Y-134454077D01*
X188549500Y-134667133D01*
X183073050Y-134667133D01*
X183105246Y-134568043D01*
X183138500Y-134358087D01*
X183138500Y-134145513D01*
X183105246Y-133935557D01*
X183039557Y-133733388D01*
X182943051Y-133543984D01*
X182943049Y-133543981D01*
X182943048Y-133543979D01*
X182818109Y-133372013D01*
X182667786Y-133221690D01*
X182495820Y-133096751D01*
X182495115Y-133096391D01*
X182487054Y-133092285D01*
X182436259Y-133044312D01*
X182419463Y-132976492D01*
X182441999Y-132910356D01*
X182487054Y-132871315D01*
X182495816Y-132866851D01*
X182517789Y-132850886D01*
X182667786Y-132741909D01*
X182667788Y-132741906D01*
X182667792Y-132741904D01*
X182818104Y-132591592D01*
X182818106Y-132591588D01*
X182818109Y-132591586D01*
X182943048Y-132419620D01*
X182943047Y-132419620D01*
X182943051Y-132419616D01*
X183039557Y-132230212D01*
X183105246Y-132028043D01*
X183138500Y-131818087D01*
X183138500Y-131605513D01*
X183105246Y-131395557D01*
X183039557Y-131193388D01*
X182943051Y-131003984D01*
X182943049Y-131003981D01*
X182943048Y-131003979D01*
X182818109Y-130832013D01*
X182667786Y-130681690D01*
X182495820Y-130556751D01*
X182495115Y-130556391D01*
X182487054Y-130552285D01*
X182436259Y-130504312D01*
X182419463Y-130436492D01*
X182441999Y-130370356D01*
X182487054Y-130331315D01*
X182495816Y-130326851D01*
X182517789Y-130310886D01*
X182667786Y-130201909D01*
X182667788Y-130201906D01*
X182667792Y-130201904D01*
X182818104Y-130051592D01*
X182818106Y-130051588D01*
X182818109Y-130051586D01*
X182943048Y-129879620D01*
X182943047Y-129879620D01*
X182943051Y-129879616D01*
X183039557Y-129690212D01*
X183105246Y-129488043D01*
X183138500Y-129278087D01*
X183138500Y-129065513D01*
X183105246Y-128855557D01*
X183039557Y-128653388D01*
X182943051Y-128463984D01*
X182943049Y-128463981D01*
X182943048Y-128463979D01*
X182818109Y-128292013D01*
X182667786Y-128141690D01*
X182495820Y-128016751D01*
X182495115Y-128016391D01*
X182487054Y-128012285D01*
X182436259Y-127964312D01*
X182419463Y-127896492D01*
X182441999Y-127830356D01*
X182487054Y-127791315D01*
X182495816Y-127786851D01*
X182550572Y-127747069D01*
X182667786Y-127661909D01*
X182667788Y-127661906D01*
X182667792Y-127661904D01*
X182818104Y-127511592D01*
X182818106Y-127511588D01*
X182818109Y-127511586D01*
X182943048Y-127339620D01*
X182943047Y-127339620D01*
X182943051Y-127339616D01*
X183039557Y-127150212D01*
X183105246Y-126948043D01*
X183138500Y-126738087D01*
X183138500Y-126525513D01*
X183105246Y-126315557D01*
X183039557Y-126113388D01*
X182943051Y-125923984D01*
X182943049Y-125923981D01*
X182943048Y-125923979D01*
X182818109Y-125752013D01*
X182667786Y-125601690D01*
X182495820Y-125476751D01*
X182495115Y-125476391D01*
X182487054Y-125472285D01*
X182436259Y-125424312D01*
X182419463Y-125356492D01*
X182441999Y-125290356D01*
X182487054Y-125251315D01*
X182495816Y-125246851D01*
X182594187Y-125175381D01*
X182667786Y-125121909D01*
X182667788Y-125121906D01*
X182667792Y-125121904D01*
X182818104Y-124971592D01*
X182818106Y-124971588D01*
X182818109Y-124971586D01*
X182943048Y-124799620D01*
X182943047Y-124799620D01*
X182943051Y-124799616D01*
X183039557Y-124610212D01*
X183105246Y-124408043D01*
X183138500Y-124198087D01*
X183138500Y-123985513D01*
X183105246Y-123775557D01*
X183039557Y-123573388D01*
X182943051Y-123383984D01*
X182943049Y-123383981D01*
X182943048Y-123383979D01*
X182818109Y-123212013D01*
X182667786Y-123061690D01*
X182495820Y-122936751D01*
X182487600Y-122932563D01*
X182487054Y-122932285D01*
X182436259Y-122884312D01*
X182419463Y-122816492D01*
X182441999Y-122750356D01*
X182487054Y-122711315D01*
X182495816Y-122706851D01*
X182517789Y-122690886D01*
X182667786Y-122581909D01*
X182667788Y-122581906D01*
X182667792Y-122581904D01*
X182818104Y-122431592D01*
X182818106Y-122431588D01*
X182818109Y-122431586D01*
X182943048Y-122259620D01*
X182943047Y-122259620D01*
X182943051Y-122259616D01*
X183039557Y-122070212D01*
X183105246Y-121868043D01*
X183138500Y-121658087D01*
X183138500Y-121452135D01*
X188547000Y-121452135D01*
X188547000Y-123547870D01*
X188547001Y-123547876D01*
X188553408Y-123607483D01*
X188603702Y-123742328D01*
X188603706Y-123742335D01*
X188689952Y-123857544D01*
X188689955Y-123857547D01*
X188805164Y-123943793D01*
X188805171Y-123943797D01*
X188940017Y-123994091D01*
X188940016Y-123994091D01*
X188946944Y-123994835D01*
X188999627Y-124000500D01*
X191000372Y-124000499D01*
X191059983Y-123994091D01*
X191194831Y-123943796D01*
X191310046Y-123857546D01*
X191396296Y-123742331D01*
X191406872Y-123713974D01*
X191448740Y-123658041D01*
X191514204Y-123633622D01*
X191582477Y-123648472D01*
X191595940Y-123656988D01*
X191778723Y-123789788D01*
X191982429Y-123893582D01*
X192199871Y-123964234D01*
X192290000Y-123978509D01*
X192290000Y-122990747D01*
X192327708Y-123012518D01*
X192467591Y-123050000D01*
X192612409Y-123050000D01*
X192752292Y-123012518D01*
X192790000Y-122990747D01*
X192790000Y-123978508D01*
X192880128Y-123964234D01*
X193097570Y-123893582D01*
X193301276Y-123789788D01*
X193486242Y-123655402D01*
X193647905Y-123493739D01*
X193709371Y-123409137D01*
X193764701Y-123366470D01*
X193834314Y-123360491D01*
X193896109Y-123393096D01*
X193910007Y-123409134D01*
X193971714Y-123494066D01*
X194133434Y-123655786D01*
X194318462Y-123790217D01*
X194450599Y-123857544D01*
X194522244Y-123894049D01*
X194739751Y-123964721D01*
X194739752Y-123964721D01*
X194739755Y-123964722D01*
X194965646Y-124000500D01*
X194965647Y-124000500D01*
X195194353Y-124000500D01*
X195194354Y-124000500D01*
X195420245Y-123964722D01*
X195420248Y-123964721D01*
X195420249Y-123964721D01*
X195637755Y-123894049D01*
X195637755Y-123894048D01*
X195637758Y-123894048D01*
X195841538Y-123790217D01*
X196026566Y-123655786D01*
X196188286Y-123494066D01*
X196322717Y-123309038D01*
X196426548Y-123105258D01*
X196482750Y-122932286D01*
X196497221Y-122887749D01*
X196497221Y-122887748D01*
X196497222Y-122887745D01*
X196533000Y-122661854D01*
X196533000Y-122338146D01*
X196497222Y-122112255D01*
X196497221Y-122112251D01*
X196497221Y-122112250D01*
X196426549Y-121894744D01*
X196322716Y-121690961D01*
X196188286Y-121505934D01*
X196026566Y-121344214D01*
X195841538Y-121209783D01*
X195637755Y-121105950D01*
X195420248Y-121035278D01*
X195234812Y-121005908D01*
X195194354Y-120999500D01*
X194965646Y-120999500D01*
X194890349Y-121011426D01*
X194739753Y-121035278D01*
X194739750Y-121035278D01*
X194522244Y-121105950D01*
X194318461Y-121209783D01*
X194252550Y-121257671D01*
X194133434Y-121344214D01*
X194133432Y-121344216D01*
X194133431Y-121344216D01*
X193971716Y-121505931D01*
X193971709Y-121505940D01*
X193910007Y-121590864D01*
X193854677Y-121633530D01*
X193785063Y-121639508D01*
X193723269Y-121606901D01*
X193709372Y-121590863D01*
X193647907Y-121506263D01*
X193647902Y-121506257D01*
X193486242Y-121344597D01*
X193301276Y-121210211D01*
X193097568Y-121106417D01*
X192880124Y-121035765D01*
X192790000Y-121021490D01*
X192790000Y-122009252D01*
X192752292Y-121987482D01*
X192612409Y-121950000D01*
X192467591Y-121950000D01*
X192327708Y-121987482D01*
X192290000Y-122009252D01*
X192290000Y-121021490D01*
X192289999Y-121021490D01*
X192199875Y-121035765D01*
X191982431Y-121106417D01*
X191778719Y-121210213D01*
X191595939Y-121343010D01*
X191530132Y-121366490D01*
X191462079Y-121350664D01*
X191413384Y-121300558D01*
X191406875Y-121286033D01*
X191396296Y-121257669D01*
X191396295Y-121257667D01*
X191396293Y-121257664D01*
X191310047Y-121142455D01*
X191310044Y-121142452D01*
X191194835Y-121056206D01*
X191194828Y-121056202D01*
X191059982Y-121005908D01*
X191059983Y-121005908D01*
X191000383Y-120999501D01*
X191000381Y-120999500D01*
X191000373Y-120999500D01*
X191000364Y-120999500D01*
X188999629Y-120999500D01*
X188999623Y-120999501D01*
X188940016Y-121005908D01*
X188805171Y-121056202D01*
X188805164Y-121056206D01*
X188689955Y-121142452D01*
X188689952Y-121142455D01*
X188603706Y-121257664D01*
X188603702Y-121257671D01*
X188553408Y-121392517D01*
X188547001Y-121452116D01*
X188547000Y-121452135D01*
X183138500Y-121452135D01*
X183138500Y-121445513D01*
X183105246Y-121235557D01*
X183039557Y-121033388D01*
X182943051Y-120843984D01*
X182943049Y-120843981D01*
X182943048Y-120843979D01*
X182818109Y-120672013D01*
X182667786Y-120521690D01*
X182495820Y-120396751D01*
X182495115Y-120396391D01*
X182487054Y-120392285D01*
X182436259Y-120344312D01*
X182419463Y-120276492D01*
X182441999Y-120210356D01*
X182487054Y-120171315D01*
X182495816Y-120166851D01*
X182563299Y-120117822D01*
X182667786Y-120041909D01*
X182667788Y-120041906D01*
X182667792Y-120041904D01*
X182818104Y-119891592D01*
X182818106Y-119891588D01*
X182818109Y-119891586D01*
X182943048Y-119719620D01*
X182943047Y-119719620D01*
X182943051Y-119719616D01*
X183039557Y-119530212D01*
X183105246Y-119328043D01*
X183138500Y-119118087D01*
X183138500Y-118905513D01*
X183105246Y-118695557D01*
X183039557Y-118493388D01*
X182943051Y-118303984D01*
X182943049Y-118303981D01*
X182943048Y-118303979D01*
X182818109Y-118132013D01*
X182667786Y-117981690D01*
X182495820Y-117856751D01*
X182495115Y-117856391D01*
X182487054Y-117852285D01*
X182436259Y-117804312D01*
X182419463Y-117736492D01*
X182441999Y-117670356D01*
X182487054Y-117631315D01*
X182495816Y-117626851D01*
X182584680Y-117562288D01*
X182667786Y-117501909D01*
X182667788Y-117501906D01*
X182667792Y-117501904D01*
X182818104Y-117351592D01*
X182818106Y-117351588D01*
X182818109Y-117351586D01*
X182943048Y-117179620D01*
X182943047Y-117179620D01*
X182943051Y-117179616D01*
X183039557Y-116990212D01*
X183105246Y-116788043D01*
X183138500Y-116578087D01*
X183138500Y-116365513D01*
X183105246Y-116155557D01*
X183039557Y-115953388D01*
X182943051Y-115763984D01*
X182943049Y-115763981D01*
X182943048Y-115763979D01*
X182818109Y-115592013D01*
X182667786Y-115441690D01*
X182495820Y-115316751D01*
X182495115Y-115316391D01*
X182487054Y-115312285D01*
X182436259Y-115264312D01*
X182419463Y-115196492D01*
X182441999Y-115130356D01*
X182487054Y-115091315D01*
X182495816Y-115086851D01*
X182582138Y-115024135D01*
X182667786Y-114961909D01*
X182667788Y-114961906D01*
X182667792Y-114961904D01*
X182818104Y-114811592D01*
X182818106Y-114811588D01*
X182818109Y-114811586D01*
X182943048Y-114639620D01*
X182943047Y-114639620D01*
X182943051Y-114639616D01*
X183039557Y-114450212D01*
X183105246Y-114248043D01*
X183138500Y-114038087D01*
X183138500Y-113825513D01*
X183105246Y-113615557D01*
X183039557Y-113413388D01*
X182943051Y-113223984D01*
X182943049Y-113223981D01*
X182943048Y-113223979D01*
X182818109Y-113052013D01*
X182667786Y-112901690D01*
X182495820Y-112776751D01*
X182495115Y-112776391D01*
X182487054Y-112772285D01*
X182436259Y-112724312D01*
X182419463Y-112656492D01*
X182441999Y-112590356D01*
X182487054Y-112551315D01*
X182495816Y-112546851D01*
X182567057Y-112495092D01*
X182667786Y-112421909D01*
X182667788Y-112421906D01*
X182667792Y-112421904D01*
X182818104Y-112271592D01*
X182818106Y-112271588D01*
X182818109Y-112271586D01*
X182930060Y-112117497D01*
X182943051Y-112099616D01*
X183039557Y-111910212D01*
X183105246Y-111708043D01*
X183138500Y-111498087D01*
X183138500Y-111285513D01*
X183105246Y-111075557D01*
X183039557Y-110873388D01*
X182943051Y-110683984D01*
X182943049Y-110683981D01*
X182943048Y-110683979D01*
X182818109Y-110512013D01*
X182667786Y-110361690D01*
X182495820Y-110236751D01*
X182495115Y-110236391D01*
X182487054Y-110232285D01*
X182436259Y-110184312D01*
X182419463Y-110116492D01*
X182441999Y-110050356D01*
X182487054Y-110011315D01*
X182495816Y-110006851D01*
X182517789Y-109990886D01*
X182667786Y-109881909D01*
X182667788Y-109881906D01*
X182667792Y-109881904D01*
X182818104Y-109731592D01*
X182818106Y-109731588D01*
X182818109Y-109731586D01*
X182943048Y-109559620D01*
X182943047Y-109559620D01*
X182943051Y-109559616D01*
X183039557Y-109370212D01*
X183105246Y-109168043D01*
X183138500Y-108958087D01*
X183138500Y-108745513D01*
X183105246Y-108535557D01*
X183039557Y-108333388D01*
X182943051Y-108143984D01*
X182943049Y-108143981D01*
X182943048Y-108143979D01*
X182818109Y-107972013D01*
X182667786Y-107821690D01*
X182495820Y-107696751D01*
X182495115Y-107696391D01*
X182487054Y-107692285D01*
X182436259Y-107644312D01*
X182419463Y-107576492D01*
X182441999Y-107510356D01*
X182487054Y-107471315D01*
X182495816Y-107466851D01*
X182517789Y-107450886D01*
X182667786Y-107341909D01*
X182667788Y-107341906D01*
X182667792Y-107341904D01*
X182818104Y-107191592D01*
X182818106Y-107191588D01*
X182818109Y-107191586D01*
X182943048Y-107019620D01*
X182943047Y-107019620D01*
X182943051Y-107019616D01*
X183039557Y-106830212D01*
X183105246Y-106628043D01*
X183138500Y-106418087D01*
X183138500Y-106205513D01*
X183105246Y-105995557D01*
X183039557Y-105793388D01*
X182943051Y-105603984D01*
X182943049Y-105603981D01*
X182943048Y-105603979D01*
X182818109Y-105432013D01*
X182667786Y-105281690D01*
X182495820Y-105156751D01*
X182495115Y-105156391D01*
X182487054Y-105152285D01*
X182436259Y-105104312D01*
X182419463Y-105036492D01*
X182441999Y-104970356D01*
X182487054Y-104931315D01*
X182495816Y-104926851D01*
X182517789Y-104910886D01*
X182667786Y-104801909D01*
X182667788Y-104801906D01*
X182667792Y-104801904D01*
X182818104Y-104651592D01*
X182818106Y-104651588D01*
X182818109Y-104651586D01*
X182943048Y-104479620D01*
X182943047Y-104479620D01*
X182943051Y-104479616D01*
X183039557Y-104290212D01*
X183105246Y-104088043D01*
X183138500Y-103878087D01*
X183138500Y-103665513D01*
X183105246Y-103455557D01*
X183039557Y-103253388D01*
X182943051Y-103063984D01*
X182943049Y-103063981D01*
X182943048Y-103063979D01*
X182818109Y-102892013D01*
X182667786Y-102741690D01*
X182495820Y-102616751D01*
X182495115Y-102616391D01*
X182487054Y-102612285D01*
X182436259Y-102564312D01*
X182419463Y-102496492D01*
X182441999Y-102430356D01*
X182487054Y-102391315D01*
X182495816Y-102386851D01*
X182582138Y-102324135D01*
X182667786Y-102261909D01*
X182667788Y-102261906D01*
X182667792Y-102261904D01*
X182818104Y-102111592D01*
X182818106Y-102111588D01*
X182818109Y-102111586D01*
X182943048Y-101939620D01*
X182943050Y-101939617D01*
X182943051Y-101939616D01*
X183039557Y-101750212D01*
X183105246Y-101548043D01*
X183138500Y-101338087D01*
X183138500Y-101125513D01*
X183105246Y-100915557D01*
X183039557Y-100713388D01*
X182943051Y-100523984D01*
X182943049Y-100523981D01*
X182943048Y-100523979D01*
X182818109Y-100352013D01*
X182667786Y-100201690D01*
X182495820Y-100076751D01*
X182306414Y-99980244D01*
X182306413Y-99980243D01*
X182306412Y-99980243D01*
X182104243Y-99914554D01*
X182104241Y-99914553D01*
X182104240Y-99914553D01*
X181942957Y-99889008D01*
X181894287Y-99881300D01*
X181681713Y-99881300D01*
X181633042Y-99889008D01*
X181471760Y-99914553D01*
X181269585Y-99980244D01*
X181080179Y-100076751D01*
X180908215Y-100201689D01*
X180794673Y-100315231D01*
X180733350Y-100348715D01*
X180663658Y-100343731D01*
X180607725Y-100301859D01*
X180590810Y-100270882D01*
X180541797Y-100139471D01*
X180541793Y-100139464D01*
X180455547Y-100024255D01*
X180455544Y-100024252D01*
X180340335Y-99938006D01*
X180340328Y-99938002D01*
X180205482Y-99887708D01*
X180205483Y-99887708D01*
X180145883Y-99881301D01*
X180145881Y-99881300D01*
X180145873Y-99881300D01*
X180145864Y-99881300D01*
X178350129Y-99881300D01*
X178350123Y-99881301D01*
X178290516Y-99887708D01*
X178155671Y-99938002D01*
X178155664Y-99938006D01*
X178040455Y-100024252D01*
X178040452Y-100024255D01*
X177954206Y-100139464D01*
X177954202Y-100139471D01*
X177903908Y-100274317D01*
X177897501Y-100333916D01*
X177897500Y-100333935D01*
X166752031Y-100333935D01*
X166619792Y-100201696D01*
X166619786Y-100201690D01*
X166447820Y-100076751D01*
X166258414Y-99980244D01*
X166258413Y-99980243D01*
X166258412Y-99980243D01*
X166056243Y-99914554D01*
X166056241Y-99914553D01*
X166056240Y-99914553D01*
X165894957Y-99889008D01*
X165846287Y-99881300D01*
X165633713Y-99881300D01*
X165585042Y-99889008D01*
X165423760Y-99914553D01*
X165221585Y-99980244D01*
X165032179Y-100076751D01*
X164860213Y-100201690D01*
X164709890Y-100352013D01*
X164584949Y-100523982D01*
X164580484Y-100532746D01*
X164532509Y-100583542D01*
X164464688Y-100600336D01*
X164398553Y-100577798D01*
X164359516Y-100532746D01*
X164355050Y-100523982D01*
X164230109Y-100352013D01*
X164079786Y-100201690D01*
X163907820Y-100076751D01*
X163718414Y-99980244D01*
X163718413Y-99980243D01*
X163718412Y-99980243D01*
X163516243Y-99914554D01*
X163516241Y-99914553D01*
X163516240Y-99914553D01*
X163354957Y-99889008D01*
X163306287Y-99881300D01*
X163093713Y-99881300D01*
X163045042Y-99889008D01*
X162883760Y-99914553D01*
X162681585Y-99980244D01*
X162492179Y-100076751D01*
X162320213Y-100201690D01*
X162169890Y-100352013D01*
X162044949Y-100523982D01*
X162040484Y-100532746D01*
X161992509Y-100583542D01*
X161924688Y-100600336D01*
X161858553Y-100577798D01*
X161819516Y-100532746D01*
X161815050Y-100523982D01*
X161690109Y-100352013D01*
X161539786Y-100201690D01*
X161367820Y-100076751D01*
X161178414Y-99980244D01*
X161178413Y-99980243D01*
X161178412Y-99980243D01*
X160976243Y-99914554D01*
X160976241Y-99914553D01*
X160976240Y-99914553D01*
X160814957Y-99889008D01*
X160766287Y-99881300D01*
X160553713Y-99881300D01*
X160505042Y-99889008D01*
X160343760Y-99914553D01*
X160141585Y-99980244D01*
X159952179Y-100076751D01*
X159780213Y-100201690D01*
X159629890Y-100352013D01*
X159504949Y-100523982D01*
X159500484Y-100532746D01*
X159452509Y-100583542D01*
X159384688Y-100600336D01*
X159318553Y-100577798D01*
X159279516Y-100532746D01*
X159275050Y-100523982D01*
X159150109Y-100352013D01*
X158999786Y-100201690D01*
X158827820Y-100076751D01*
X158638414Y-99980244D01*
X158638413Y-99980243D01*
X158638412Y-99980243D01*
X158436243Y-99914554D01*
X158436241Y-99914553D01*
X158436240Y-99914553D01*
X158274957Y-99889008D01*
X158226287Y-99881300D01*
X158013713Y-99881300D01*
X157965042Y-99889008D01*
X157803760Y-99914553D01*
X157601585Y-99980244D01*
X157412179Y-100076751D01*
X157240213Y-100201690D01*
X157089890Y-100352013D01*
X156964949Y-100523982D01*
X156960484Y-100532746D01*
X156912509Y-100583542D01*
X156844688Y-100600336D01*
X156778553Y-100577798D01*
X156739516Y-100532746D01*
X156735050Y-100523982D01*
X156610109Y-100352013D01*
X156459786Y-100201690D01*
X156287820Y-100076751D01*
X156098414Y-99980244D01*
X156098413Y-99980243D01*
X156098412Y-99980243D01*
X155896243Y-99914554D01*
X155896241Y-99914553D01*
X155896240Y-99914553D01*
X155734957Y-99889008D01*
X155686287Y-99881300D01*
X155473713Y-99881300D01*
X155425042Y-99889008D01*
X155263760Y-99914553D01*
X155061585Y-99980244D01*
X154872179Y-100076751D01*
X154700213Y-100201690D01*
X154549890Y-100352013D01*
X154424949Y-100523982D01*
X154420202Y-100533299D01*
X154372227Y-100584093D01*
X154304405Y-100600887D01*
X154238271Y-100578348D01*
X154199234Y-100533295D01*
X154194626Y-100524252D01*
X154155270Y-100470082D01*
X154155269Y-100470082D01*
X153522962Y-101102390D01*
X153505925Y-101038807D01*
X153440099Y-100924793D01*
X153347007Y-100831701D01*
X153232993Y-100765875D01*
X153169409Y-100748837D01*
X153801716Y-100116528D01*
X153747550Y-100077175D01*
X153558217Y-99980704D01*
X153356129Y-99915042D01*
X153146246Y-99881800D01*
X152933754Y-99881800D01*
X152723872Y-99915042D01*
X152723869Y-99915042D01*
X152521782Y-99980704D01*
X152332439Y-100077180D01*
X152278282Y-100116527D01*
X152278282Y-100116528D01*
X152910591Y-100748837D01*
X152847007Y-100765875D01*
X152732993Y-100831701D01*
X152639901Y-100924793D01*
X152574075Y-101038807D01*
X152557037Y-101102391D01*
X151886818Y-100432172D01*
X151853333Y-100370849D01*
X151853330Y-100370836D01*
X151850499Y-100357815D01*
X151850499Y-100333928D01*
X151844091Y-100274317D01*
X151813002Y-100190962D01*
X151793798Y-100139473D01*
X151793793Y-100139464D01*
X151707547Y-100024255D01*
X151707544Y-100024252D01*
X151592335Y-99938006D01*
X151592328Y-99938002D01*
X151457482Y-99887708D01*
X151457483Y-99887708D01*
X151397883Y-99881301D01*
X151397881Y-99881300D01*
X151397873Y-99881300D01*
X151397864Y-99881300D01*
X149602129Y-99881300D01*
X149602123Y-99881301D01*
X149542516Y-99887708D01*
X149407671Y-99938002D01*
X149407664Y-99938006D01*
X149292455Y-100024252D01*
X149292452Y-100024255D01*
X149206206Y-100139464D01*
X149206202Y-100139471D01*
X149155908Y-100274317D01*
X149149501Y-100333916D01*
X149149500Y-100333935D01*
X140221354Y-100333935D01*
X138787402Y-98899983D01*
X188699500Y-98899983D01*
X188699500Y-100100001D01*
X188699501Y-100100018D01*
X188710000Y-100202796D01*
X188710001Y-100202799D01*
X188759444Y-100352007D01*
X188765186Y-100369334D01*
X188857288Y-100518656D01*
X188981344Y-100642712D01*
X189130666Y-100734814D01*
X189297203Y-100789999D01*
X189399991Y-100800500D01*
X190600008Y-100800499D01*
X190702797Y-100789999D01*
X190869334Y-100734814D01*
X191018656Y-100642712D01*
X191142712Y-100518656D01*
X191234814Y-100369334D01*
X191258102Y-100299054D01*
X191262110Y-100291050D01*
X191280060Y-100271772D01*
X191295055Y-100250116D01*
X191303495Y-100246606D01*
X191309725Y-100239917D01*
X191335249Y-100233404D01*
X191359571Y-100223292D01*
X191375834Y-100223048D01*
X191377425Y-100222643D01*
X191378523Y-100223008D01*
X191382719Y-100222946D01*
X191420525Y-100225921D01*
X192100000Y-99546446D01*
X192100000Y-99552661D01*
X192127259Y-99654394D01*
X192179920Y-99745606D01*
X192254394Y-99820080D01*
X192345606Y-99872741D01*
X192447339Y-99900000D01*
X192453553Y-99900000D01*
X191774076Y-100579474D01*
X191818650Y-100611859D01*
X192000968Y-100704755D01*
X192195582Y-100767990D01*
X192397683Y-100800000D01*
X192602317Y-100800000D01*
X192804417Y-100767990D01*
X192999031Y-100704755D01*
X193181349Y-100611859D01*
X193225921Y-100579474D01*
X192546447Y-99900000D01*
X192552661Y-99900000D01*
X192654394Y-99872741D01*
X192745606Y-99820080D01*
X192820080Y-99745606D01*
X192872741Y-99654394D01*
X192900000Y-99552661D01*
X192900000Y-99546447D01*
X193579474Y-100225921D01*
X193611859Y-100181349D01*
X193704755Y-99999031D01*
X193767990Y-99804417D01*
X193800000Y-99602317D01*
X193800000Y-99397682D01*
X193767990Y-99195582D01*
X193704755Y-99000968D01*
X193611859Y-98818650D01*
X193579474Y-98774077D01*
X193579474Y-98774076D01*
X192900000Y-99453551D01*
X192900000Y-99447339D01*
X192872741Y-99345606D01*
X192820080Y-99254394D01*
X192745606Y-99179920D01*
X192654394Y-99127259D01*
X192552661Y-99100000D01*
X192546446Y-99100000D01*
X193225922Y-98420524D01*
X193225921Y-98420523D01*
X193181359Y-98388147D01*
X193181350Y-98388141D01*
X192999031Y-98295244D01*
X192804417Y-98232009D01*
X192602317Y-98200000D01*
X192397683Y-98200000D01*
X192195582Y-98232009D01*
X192000968Y-98295244D01*
X191818644Y-98388143D01*
X191774077Y-98420523D01*
X191774077Y-98420524D01*
X192453554Y-99100000D01*
X192447339Y-99100000D01*
X192345606Y-99127259D01*
X192254394Y-99179920D01*
X192179920Y-99254394D01*
X192127259Y-99345606D01*
X192100000Y-99447339D01*
X192100000Y-99453553D01*
X191420524Y-98774077D01*
X191382719Y-98777053D01*
X191314341Y-98762689D01*
X191264584Y-98713638D01*
X191262110Y-98708949D01*
X191258101Y-98700942D01*
X191234814Y-98630666D01*
X191142712Y-98481344D01*
X191018656Y-98357288D01*
X190869334Y-98265186D01*
X190702797Y-98210001D01*
X190702795Y-98210000D01*
X190600010Y-98199500D01*
X189399998Y-98199500D01*
X189399981Y-98199501D01*
X189297203Y-98210000D01*
X189297200Y-98210001D01*
X189130668Y-98265185D01*
X189130663Y-98265187D01*
X188981342Y-98357289D01*
X188857289Y-98481342D01*
X188765187Y-98630663D01*
X188765186Y-98630666D01*
X188710001Y-98797203D01*
X188710001Y-98797204D01*
X188710000Y-98797204D01*
X188699500Y-98899983D01*
X138787402Y-98899983D01*
X138265228Y-98377809D01*
X138231743Y-98316486D01*
X138231291Y-98314317D01*
X138229737Y-98306504D01*
X138229736Y-98306501D01*
X138169397Y-98160827D01*
X138169390Y-98160814D01*
X138081789Y-98029711D01*
X138081786Y-98029707D01*
X137970292Y-97918213D01*
X137970288Y-97918210D01*
X137839185Y-97830609D01*
X137839172Y-97830602D01*
X137693501Y-97770264D01*
X137693489Y-97770261D01*
X137538845Y-97739500D01*
X137538842Y-97739500D01*
X137381158Y-97739500D01*
X137381155Y-97739500D01*
X137226510Y-97770261D01*
X137226498Y-97770264D01*
X137080827Y-97830602D01*
X137080814Y-97830609D01*
X136949711Y-97918210D01*
X136949707Y-97918213D01*
X136838213Y-98029707D01*
X136838210Y-98029711D01*
X136750609Y-98160814D01*
X136750602Y-98160827D01*
X136690264Y-98306498D01*
X136690261Y-98306510D01*
X136659500Y-98461153D01*
X100500500Y-98461153D01*
X100500500Y-94897682D01*
X146700000Y-94897682D01*
X146700000Y-95102317D01*
X146732009Y-95304417D01*
X146795244Y-95499031D01*
X146888141Y-95681350D01*
X146888147Y-95681359D01*
X146920523Y-95725921D01*
X146920524Y-95725922D01*
X147600000Y-95046446D01*
X147600000Y-95052661D01*
X147627259Y-95154394D01*
X147679920Y-95245606D01*
X147754394Y-95320080D01*
X147845606Y-95372741D01*
X147947339Y-95400000D01*
X147953553Y-95400000D01*
X147274076Y-96079474D01*
X147318650Y-96111859D01*
X147500968Y-96204755D01*
X147695582Y-96267990D01*
X147897683Y-96300000D01*
X148102317Y-96300000D01*
X148304417Y-96267990D01*
X148499031Y-96204755D01*
X148681349Y-96111859D01*
X148725921Y-96079474D01*
X148046447Y-95400000D01*
X148052661Y-95400000D01*
X148154394Y-95372741D01*
X148245606Y-95320080D01*
X148320080Y-95245606D01*
X148372741Y-95154394D01*
X148400000Y-95052661D01*
X148400000Y-95046447D01*
X149079473Y-95725921D01*
X149117280Y-95722946D01*
X149185658Y-95737310D01*
X149235415Y-95786361D01*
X149244714Y-95807556D01*
X149265186Y-95869334D01*
X149357288Y-96018656D01*
X149481344Y-96142712D01*
X149630666Y-96234814D01*
X149797203Y-96289999D01*
X149899991Y-96300500D01*
X151100008Y-96300499D01*
X151202797Y-96289999D01*
X151369334Y-96234814D01*
X151518656Y-96142712D01*
X151642712Y-96018656D01*
X151734814Y-95869334D01*
X151789999Y-95702797D01*
X151800500Y-95600009D01*
X151800499Y-94399992D01*
X151789999Y-94297203D01*
X151734814Y-94130666D01*
X151642712Y-93981344D01*
X151518656Y-93857288D01*
X151369334Y-93765186D01*
X151202797Y-93710001D01*
X151202795Y-93710000D01*
X151100010Y-93699500D01*
X149899998Y-93699500D01*
X149899981Y-93699501D01*
X149797203Y-93710000D01*
X149797200Y-93710001D01*
X149630668Y-93765185D01*
X149630663Y-93765187D01*
X149481342Y-93857289D01*
X149357289Y-93981342D01*
X149265187Y-94130663D01*
X149265185Y-94130668D01*
X149244717Y-94192438D01*
X149204944Y-94249883D01*
X149140428Y-94276706D01*
X149117283Y-94277052D01*
X149079474Y-94274076D01*
X148400000Y-94953551D01*
X148400000Y-94947339D01*
X148372741Y-94845606D01*
X148320080Y-94754394D01*
X148245606Y-94679920D01*
X148154394Y-94627259D01*
X148052661Y-94600000D01*
X148046446Y-94600000D01*
X148725922Y-93920524D01*
X148725921Y-93920523D01*
X148681359Y-93888147D01*
X148681350Y-93888141D01*
X148499031Y-93795244D01*
X148304417Y-93732009D01*
X148102317Y-93700000D01*
X147897683Y-93700000D01*
X147695582Y-93732009D01*
X147500968Y-93795244D01*
X147318644Y-93888143D01*
X147274077Y-93920523D01*
X147274077Y-93920524D01*
X147953554Y-94600000D01*
X147947339Y-94600000D01*
X147845606Y-94627259D01*
X147754394Y-94679920D01*
X147679920Y-94754394D01*
X147627259Y-94845606D01*
X147600000Y-94947339D01*
X147600000Y-94953553D01*
X146920524Y-94274077D01*
X146920523Y-94274077D01*
X146888143Y-94318644D01*
X146795244Y-94500968D01*
X146732009Y-94695582D01*
X146700000Y-94897682D01*
X100500500Y-94897682D01*
X100500500Y-80199983D01*
X103499500Y-80199983D01*
X103499500Y-81800001D01*
X103499501Y-81800018D01*
X103510000Y-81902796D01*
X103510001Y-81902799D01*
X103526569Y-81952796D01*
X103565186Y-82069334D01*
X103657288Y-82218656D01*
X103781344Y-82342712D01*
X103930666Y-82434814D01*
X104097203Y-82489999D01*
X104199991Y-82500500D01*
X105800008Y-82500499D01*
X105902797Y-82489999D01*
X106069334Y-82434814D01*
X106218656Y-82342712D01*
X106342712Y-82218656D01*
X106434814Y-82069334D01*
X106489999Y-81902797D01*
X106500500Y-81800009D01*
X106500499Y-80881947D01*
X108500000Y-80881947D01*
X108500000Y-81118052D01*
X108536934Y-81351247D01*
X108609897Y-81575802D01*
X108717087Y-81786174D01*
X108777338Y-81869104D01*
X108777340Y-81869105D01*
X109517037Y-81129408D01*
X109534075Y-81192993D01*
X109599901Y-81307007D01*
X109692993Y-81400099D01*
X109807007Y-81465925D01*
X109870590Y-81482962D01*
X109130893Y-82222658D01*
X109213828Y-82282914D01*
X109424197Y-82390102D01*
X109648752Y-82463065D01*
X109648751Y-82463065D01*
X109881948Y-82500000D01*
X110118052Y-82500000D01*
X110351247Y-82463065D01*
X110575802Y-82390102D01*
X110786163Y-82282918D01*
X110786169Y-82282914D01*
X110869104Y-82222658D01*
X110869105Y-82222658D01*
X110129408Y-81482962D01*
X110192993Y-81465925D01*
X110307007Y-81400099D01*
X110400099Y-81307007D01*
X110465925Y-81192993D01*
X110482962Y-81129409D01*
X111222658Y-81869105D01*
X111222658Y-81869104D01*
X111282914Y-81786169D01*
X111282918Y-81786163D01*
X111390102Y-81575802D01*
X111463065Y-81351247D01*
X111500000Y-81118052D01*
X111500000Y-80881947D01*
X111463065Y-80648752D01*
X111390102Y-80424197D01*
X111282914Y-80213828D01*
X111222658Y-80130894D01*
X111222658Y-80130893D01*
X110482962Y-80870590D01*
X110465925Y-80807007D01*
X110400099Y-80692993D01*
X110307007Y-80599901D01*
X110192993Y-80534075D01*
X110129409Y-80517037D01*
X110752733Y-79893713D01*
X128489500Y-79893713D01*
X128489500Y-80106286D01*
X128522753Y-80316239D01*
X128588444Y-80518414D01*
X128684951Y-80707820D01*
X128809890Y-80879786D01*
X128960213Y-81030109D01*
X129132179Y-81155048D01*
X129132181Y-81155049D01*
X129132184Y-81155051D01*
X129321588Y-81251557D01*
X129523757Y-81317246D01*
X129733713Y-81350500D01*
X129733714Y-81350500D01*
X129946286Y-81350500D01*
X129946287Y-81350500D01*
X130156243Y-81317246D01*
X130358412Y-81251557D01*
X130547816Y-81155051D01*
X130634138Y-81092335D01*
X130719786Y-81030109D01*
X130719788Y-81030106D01*
X130719792Y-81030104D01*
X130870104Y-80879792D01*
X130870106Y-80879788D01*
X130870109Y-80879786D01*
X130955890Y-80761717D01*
X130995051Y-80707816D01*
X130999793Y-80698508D01*
X131047763Y-80647711D01*
X131115583Y-80630911D01*
X131181719Y-80653445D01*
X131220763Y-80698500D01*
X131225373Y-80707547D01*
X131264728Y-80761716D01*
X131897037Y-80129408D01*
X131914075Y-80192993D01*
X131979901Y-80307007D01*
X132072993Y-80400099D01*
X132187007Y-80465925D01*
X132250590Y-80482962D01*
X131618282Y-81115269D01*
X131618282Y-81115270D01*
X131672449Y-81154624D01*
X131861782Y-81251095D01*
X132063870Y-81316757D01*
X132273754Y-81350000D01*
X132486246Y-81350000D01*
X132696127Y-81316757D01*
X132696130Y-81316757D01*
X132898217Y-81251095D01*
X133087554Y-81154622D01*
X133141716Y-81115270D01*
X133141717Y-81115270D01*
X132509408Y-80482962D01*
X132572993Y-80465925D01*
X132687007Y-80400099D01*
X132780099Y-80307007D01*
X132845925Y-80192993D01*
X132862962Y-80129408D01*
X133495270Y-80761717D01*
X133495270Y-80761716D01*
X133534622Y-80707555D01*
X133539232Y-80698507D01*
X133587205Y-80647709D01*
X133655025Y-80630912D01*
X133721161Y-80653447D01*
X133760204Y-80698504D01*
X133764949Y-80707817D01*
X133889890Y-80879786D01*
X134040213Y-81030109D01*
X134212179Y-81155048D01*
X134212181Y-81155049D01*
X134212184Y-81155051D01*
X134401588Y-81251557D01*
X134603757Y-81317246D01*
X134813713Y-81350500D01*
X134813714Y-81350500D01*
X135026286Y-81350500D01*
X135026287Y-81350500D01*
X135236243Y-81317246D01*
X135438412Y-81251557D01*
X135627816Y-81155051D01*
X135714138Y-81092335D01*
X135799786Y-81030109D01*
X135799788Y-81030106D01*
X135799792Y-81030104D01*
X135950104Y-80879792D01*
X135950106Y-80879788D01*
X135950109Y-80879786D01*
X136075048Y-80707820D01*
X136075047Y-80707820D01*
X136075051Y-80707816D01*
X136079514Y-80699054D01*
X136127488Y-80648259D01*
X136195308Y-80631463D01*
X136261444Y-80653999D01*
X136300486Y-80699056D01*
X136304951Y-80707820D01*
X136429890Y-80879786D01*
X136580213Y-81030109D01*
X136752179Y-81155048D01*
X136752181Y-81155049D01*
X136752184Y-81155051D01*
X136941588Y-81251557D01*
X137143757Y-81317246D01*
X137353713Y-81350500D01*
X137353714Y-81350500D01*
X137566286Y-81350500D01*
X137566287Y-81350500D01*
X137776243Y-81317246D01*
X137978412Y-81251557D01*
X138167816Y-81155051D01*
X138339792Y-81030104D01*
X138453329Y-80916566D01*
X138514648Y-80883084D01*
X138584340Y-80888068D01*
X138640274Y-80929939D01*
X138657189Y-80960917D01*
X138706202Y-81092328D01*
X138706206Y-81092335D01*
X138792452Y-81207544D01*
X138792455Y-81207547D01*
X138907664Y-81293793D01*
X138907671Y-81293797D01*
X139042517Y-81344091D01*
X139042516Y-81344091D01*
X139049444Y-81344835D01*
X139102127Y-81350500D01*
X140897872Y-81350499D01*
X140957483Y-81344091D01*
X141092331Y-81293796D01*
X141207546Y-81207546D01*
X141293796Y-81092331D01*
X141344091Y-80957483D01*
X141350500Y-80897873D01*
X141350499Y-79393643D01*
X152459500Y-79393643D01*
X152459500Y-80606356D01*
X152459501Y-80606372D01*
X152495097Y-80876754D01*
X152565684Y-81140188D01*
X152670047Y-81392144D01*
X152670054Y-81392159D01*
X152806415Y-81628343D01*
X152972439Y-81844710D01*
X152972445Y-81844717D01*
X153165282Y-82037554D01*
X153165289Y-82037560D01*
X153381656Y-82203584D01*
X153617840Y-82339945D01*
X153617855Y-82339952D01*
X153745225Y-82392710D01*
X153869810Y-82444315D01*
X154133244Y-82514902D01*
X154403637Y-82550500D01*
X154403644Y-82550500D01*
X154676356Y-82550500D01*
X154676363Y-82550500D01*
X154946756Y-82514902D01*
X155210190Y-82444315D01*
X155462156Y-82339947D01*
X155698344Y-82203584D01*
X155914712Y-82037559D01*
X156107559Y-81844712D01*
X156197126Y-81727985D01*
X156253551Y-81686784D01*
X156323297Y-81682629D01*
X156384218Y-81716841D01*
X156416971Y-81778557D01*
X156419500Y-81803471D01*
X156419500Y-81849999D01*
X156419501Y-81850019D01*
X156430000Y-81952796D01*
X156430001Y-81952799D01*
X156468618Y-82069336D01*
X156485186Y-82119334D01*
X156577288Y-82268656D01*
X156701344Y-82392712D01*
X156850666Y-82484814D01*
X157017203Y-82539999D01*
X157119991Y-82550500D01*
X159880008Y-82550499D01*
X159982797Y-82539999D01*
X160149334Y-82484814D01*
X160298656Y-82392712D01*
X160422712Y-82268656D01*
X160514814Y-82119334D01*
X160569999Y-81952797D01*
X160580500Y-81850009D01*
X160580499Y-78149992D01*
X160569999Y-78047203D01*
X160514814Y-77880666D01*
X160422712Y-77731344D01*
X160298656Y-77607288D01*
X160149334Y-77515186D01*
X159982797Y-77460001D01*
X159982795Y-77460000D01*
X159880010Y-77449500D01*
X157119998Y-77449500D01*
X157119981Y-77449501D01*
X157017203Y-77460000D01*
X157017200Y-77460001D01*
X156850668Y-77515185D01*
X156850663Y-77515187D01*
X156701342Y-77607289D01*
X156577289Y-77731342D01*
X156485187Y-77880663D01*
X156485186Y-77880666D01*
X156430001Y-78047203D01*
X156430001Y-78047204D01*
X156430000Y-78047204D01*
X156419500Y-78149983D01*
X156419500Y-78196524D01*
X156399815Y-78263563D01*
X156347011Y-78309318D01*
X156277853Y-78319262D01*
X156214297Y-78290237D01*
X156197124Y-78272011D01*
X156139200Y-78196524D01*
X156107559Y-78155288D01*
X156107557Y-78155286D01*
X156107554Y-78155282D01*
X155914717Y-77962445D01*
X155914710Y-77962439D01*
X155698343Y-77796415D01*
X155462159Y-77660054D01*
X155462144Y-77660047D01*
X155210188Y-77555684D01*
X154946754Y-77485097D01*
X154676372Y-77449501D01*
X154676369Y-77449500D01*
X154676363Y-77449500D01*
X154403637Y-77449500D01*
X154403631Y-77449500D01*
X154403627Y-77449501D01*
X154133245Y-77485097D01*
X153869811Y-77555684D01*
X153617855Y-77660047D01*
X153617840Y-77660054D01*
X153381656Y-77796415D01*
X153165289Y-77962439D01*
X153165282Y-77962445D01*
X152972445Y-78155282D01*
X152972439Y-78155289D01*
X152806415Y-78371656D01*
X152670054Y-78607840D01*
X152670047Y-78607855D01*
X152565684Y-78859811D01*
X152495097Y-79123245D01*
X152459501Y-79393627D01*
X152459500Y-79393643D01*
X141350499Y-79393643D01*
X141350499Y-79102128D01*
X141344091Y-79042517D01*
X141342810Y-79039083D01*
X141293797Y-78907671D01*
X141293793Y-78907664D01*
X141207547Y-78792455D01*
X141207544Y-78792452D01*
X141092335Y-78706206D01*
X141092328Y-78706202D01*
X140957482Y-78655908D01*
X140957483Y-78655908D01*
X140897883Y-78649501D01*
X140897881Y-78649500D01*
X140897873Y-78649500D01*
X140897864Y-78649500D01*
X139102129Y-78649500D01*
X139102123Y-78649501D01*
X139042516Y-78655908D01*
X138907671Y-78706202D01*
X138907664Y-78706206D01*
X138792455Y-78792452D01*
X138792452Y-78792455D01*
X138706206Y-78907664D01*
X138706203Y-78907669D01*
X138657189Y-79039083D01*
X138615317Y-79095016D01*
X138549853Y-79119433D01*
X138481580Y-79104581D01*
X138453326Y-79083430D01*
X138339786Y-78969890D01*
X138167820Y-78844951D01*
X137978414Y-78748444D01*
X137978413Y-78748443D01*
X137978412Y-78748443D01*
X137776243Y-78682754D01*
X137776241Y-78682753D01*
X137776240Y-78682753D01*
X137614957Y-78657208D01*
X137566287Y-78649500D01*
X137353713Y-78649500D01*
X137305042Y-78657208D01*
X137143760Y-78682753D01*
X136941585Y-78748444D01*
X136752179Y-78844951D01*
X136580213Y-78969890D01*
X136429890Y-79120213D01*
X136304949Y-79292182D01*
X136300484Y-79300946D01*
X136252509Y-79351742D01*
X136184688Y-79368536D01*
X136118553Y-79345998D01*
X136079516Y-79300946D01*
X136075050Y-79292182D01*
X135950109Y-79120213D01*
X135799786Y-78969890D01*
X135627820Y-78844951D01*
X135438414Y-78748444D01*
X135438413Y-78748443D01*
X135438412Y-78748443D01*
X135236243Y-78682754D01*
X135236241Y-78682753D01*
X135236240Y-78682753D01*
X135074957Y-78657208D01*
X135026287Y-78649500D01*
X134813713Y-78649500D01*
X134765042Y-78657208D01*
X134603760Y-78682753D01*
X134401585Y-78748444D01*
X134212179Y-78844951D01*
X134040213Y-78969890D01*
X133889890Y-79120213D01*
X133764949Y-79292182D01*
X133760202Y-79301499D01*
X133712227Y-79352293D01*
X133644405Y-79369087D01*
X133578271Y-79346548D01*
X133539234Y-79301495D01*
X133534626Y-79292452D01*
X133495270Y-79238282D01*
X133495269Y-79238282D01*
X132862962Y-79870590D01*
X132845925Y-79807007D01*
X132780099Y-79692993D01*
X132687007Y-79599901D01*
X132572993Y-79534075D01*
X132509409Y-79517037D01*
X133141716Y-78884728D01*
X133087550Y-78845375D01*
X132898217Y-78748904D01*
X132696129Y-78683242D01*
X132486246Y-78650000D01*
X132273754Y-78650000D01*
X132063872Y-78683242D01*
X132063869Y-78683242D01*
X131861782Y-78748904D01*
X131672439Y-78845380D01*
X131618282Y-78884727D01*
X131618282Y-78884728D01*
X132250591Y-79517037D01*
X132187007Y-79534075D01*
X132072993Y-79599901D01*
X131979901Y-79692993D01*
X131914075Y-79807007D01*
X131897037Y-79870591D01*
X131264728Y-79238282D01*
X131264727Y-79238282D01*
X131225380Y-79292440D01*
X131225376Y-79292446D01*
X131220760Y-79301505D01*
X131172781Y-79352297D01*
X131104959Y-79369087D01*
X131038826Y-79346543D01*
X130999794Y-79301493D01*
X130995051Y-79292184D01*
X130995049Y-79292181D01*
X130995048Y-79292179D01*
X130870109Y-79120213D01*
X130719786Y-78969890D01*
X130547820Y-78844951D01*
X130358414Y-78748444D01*
X130358413Y-78748443D01*
X130358412Y-78748443D01*
X130156243Y-78682754D01*
X130156241Y-78682753D01*
X130156240Y-78682753D01*
X129994957Y-78657208D01*
X129946287Y-78649500D01*
X129733713Y-78649500D01*
X129685042Y-78657208D01*
X129523760Y-78682753D01*
X129321585Y-78748444D01*
X129132179Y-78844951D01*
X128960213Y-78969890D01*
X128809890Y-79120213D01*
X128684951Y-79292179D01*
X128588444Y-79481585D01*
X128522753Y-79683760D01*
X128489500Y-79893713D01*
X110752733Y-79893713D01*
X110845286Y-79801160D01*
X110869105Y-79777340D01*
X110869104Y-79777338D01*
X110786174Y-79717087D01*
X110575802Y-79609897D01*
X110351247Y-79536934D01*
X110351248Y-79536934D01*
X110118052Y-79500000D01*
X109881948Y-79500000D01*
X109648752Y-79536934D01*
X109424197Y-79609897D01*
X109213830Y-79717084D01*
X109130894Y-79777340D01*
X109870591Y-80517037D01*
X109807007Y-80534075D01*
X109692993Y-80599901D01*
X109599901Y-80692993D01*
X109534075Y-80807007D01*
X109517037Y-80870591D01*
X108777340Y-80130894D01*
X108717084Y-80213830D01*
X108609897Y-80424197D01*
X108536934Y-80648752D01*
X108500000Y-80881947D01*
X106500499Y-80881947D01*
X106500499Y-80199992D01*
X106493440Y-80130893D01*
X106489999Y-80097203D01*
X106489998Y-80097200D01*
X106457789Y-80000000D01*
X106434814Y-79930666D01*
X106342712Y-79781344D01*
X106218656Y-79657288D01*
X106069334Y-79565186D01*
X105902797Y-79510001D01*
X105902795Y-79510000D01*
X105800010Y-79499500D01*
X104199998Y-79499500D01*
X104199981Y-79499501D01*
X104097203Y-79510000D01*
X104097200Y-79510001D01*
X103930668Y-79565185D01*
X103930663Y-79565187D01*
X103781342Y-79657289D01*
X103657289Y-79781342D01*
X103565187Y-79930663D01*
X103565185Y-79930668D01*
X103542211Y-79999999D01*
X103510001Y-80097203D01*
X103510001Y-80097204D01*
X103510000Y-80097204D01*
X103499500Y-80199983D01*
X100500500Y-80199983D01*
X100500500Y-65052155D01*
X102100000Y-65052155D01*
X102100000Y-65750000D01*
X103124722Y-65750000D01*
X103080667Y-65826306D01*
X103050000Y-65940756D01*
X103050000Y-66059244D01*
X103080667Y-66173694D01*
X103124722Y-66250000D01*
X102100000Y-66250000D01*
X102100000Y-66947844D01*
X102106401Y-67007372D01*
X102106403Y-67007379D01*
X102156645Y-67142086D01*
X102156649Y-67142093D01*
X102242809Y-67257187D01*
X102242812Y-67257190D01*
X102357906Y-67343350D01*
X102357913Y-67343354D01*
X102492620Y-67393596D01*
X102492627Y-67393598D01*
X102552155Y-67399999D01*
X102552172Y-67400000D01*
X103250000Y-67400000D01*
X103250000Y-66375277D01*
X103326306Y-66419333D01*
X103440756Y-66450000D01*
X103559244Y-66450000D01*
X103673694Y-66419333D01*
X103750000Y-66375277D01*
X103750000Y-67400000D01*
X104447828Y-67400000D01*
X104447844Y-67399999D01*
X104507372Y-67393598D01*
X104507379Y-67393596D01*
X104642086Y-67343354D01*
X104642093Y-67343350D01*
X104757187Y-67257190D01*
X104757190Y-67257187D01*
X104843350Y-67142093D01*
X104843354Y-67142086D01*
X104873213Y-67062031D01*
X104915084Y-67006097D01*
X104980548Y-66981680D01*
X105048821Y-66996531D01*
X105077076Y-67017683D01*
X105127636Y-67068243D01*
X105127641Y-67068247D01*
X105283192Y-67181260D01*
X105305978Y-67197815D01*
X105422501Y-67257187D01*
X105502393Y-67297895D01*
X105502396Y-67297896D01*
X105607221Y-67331955D01*
X105712049Y-67366015D01*
X105929778Y-67400500D01*
X105929779Y-67400500D01*
X106150221Y-67400500D01*
X106150222Y-67400500D01*
X106367951Y-67366015D01*
X106577606Y-67297895D01*
X106774022Y-67197815D01*
X106952365Y-67068242D01*
X107108242Y-66912365D01*
X107237815Y-66734022D01*
X107337895Y-66537606D01*
X107406015Y-66327951D01*
X107440500Y-66110222D01*
X107440500Y-65889778D01*
X107406015Y-65672049D01*
X107371955Y-65567221D01*
X107337896Y-65462396D01*
X107337895Y-65462393D01*
X107303237Y-65394375D01*
X107237815Y-65265978D01*
X107171723Y-65175009D01*
X107108247Y-65087641D01*
X107108243Y-65087636D01*
X106952363Y-64931756D01*
X106952358Y-64931752D01*
X106774025Y-64802187D01*
X106774024Y-64802186D01*
X106774022Y-64802185D01*
X106711096Y-64770122D01*
X106577606Y-64702104D01*
X106577603Y-64702103D01*
X106367952Y-64633985D01*
X106259086Y-64616742D01*
X106150222Y-64599500D01*
X105929778Y-64599500D01*
X105857201Y-64610995D01*
X105712047Y-64633985D01*
X105502396Y-64702103D01*
X105502393Y-64702104D01*
X105305974Y-64802187D01*
X105127641Y-64931752D01*
X105127636Y-64931756D01*
X105077075Y-64982317D01*
X105015752Y-65015801D01*
X104946060Y-65010816D01*
X104890127Y-64968945D01*
X104873213Y-64937968D01*
X104843354Y-64857913D01*
X104843350Y-64857906D01*
X104757190Y-64742812D01*
X104757187Y-64742809D01*
X104642093Y-64656649D01*
X104642086Y-64656645D01*
X104507379Y-64606403D01*
X104507372Y-64606401D01*
X104447844Y-64600000D01*
X103750000Y-64600000D01*
X103750000Y-65624722D01*
X103673694Y-65580667D01*
X103559244Y-65550000D01*
X103440756Y-65550000D01*
X103326306Y-65580667D01*
X103250000Y-65624722D01*
X103250000Y-64600000D01*
X102552155Y-64600000D01*
X102492627Y-64606401D01*
X102492620Y-64606403D01*
X102357913Y-64656645D01*
X102357906Y-64656649D01*
X102242812Y-64742809D01*
X102242809Y-64742812D01*
X102156649Y-64857906D01*
X102156645Y-64857913D01*
X102106403Y-64992620D01*
X102106401Y-64992627D01*
X102100000Y-65052155D01*
X100500500Y-65052155D01*
X100500500Y-60031421D01*
X108050000Y-60031421D01*
X108050000Y-60750000D01*
X109800000Y-60750000D01*
X109800000Y-61250000D01*
X108050001Y-61250000D01*
X108050001Y-61968588D01*
X108052794Y-62021191D01*
X108097237Y-62250987D01*
X108179879Y-62469975D01*
X108298339Y-62671841D01*
X108298344Y-62671848D01*
X108449211Y-62850786D01*
X108449213Y-62850788D01*
X108628151Y-63001655D01*
X108628158Y-63001660D01*
X108830024Y-63120120D01*
X109049012Y-63202762D01*
X109278809Y-63247205D01*
X109331382Y-63249998D01*
X109331421Y-63249999D01*
X110049999Y-63249999D01*
X110050000Y-63249998D01*
X110050000Y-62433012D01*
X110107007Y-62465925D01*
X110234174Y-62500000D01*
X110365826Y-62500000D01*
X110492993Y-62465925D01*
X110550000Y-62433012D01*
X110550000Y-63249999D01*
X111268576Y-63249999D01*
X111268588Y-63249998D01*
X111321191Y-63247205D01*
X111550987Y-63202762D01*
X111769975Y-63120120D01*
X111971841Y-63001660D01*
X111971848Y-63001655D01*
X112150786Y-62850788D01*
X112150788Y-62850786D01*
X112301655Y-62671848D01*
X112301660Y-62671841D01*
X112420120Y-62469975D01*
X112502762Y-62250986D01*
X112503756Y-62245851D01*
X112535811Y-62183769D01*
X112596342Y-62148872D01*
X112666130Y-62152240D01*
X112723019Y-62192805D01*
X112748946Y-62257686D01*
X112749500Y-62269395D01*
X112749500Y-65797870D01*
X112749501Y-65797876D01*
X112755908Y-65857483D01*
X112806202Y-65992328D01*
X112806206Y-65992335D01*
X112892452Y-66107544D01*
X112892455Y-66107547D01*
X113007664Y-66193793D01*
X113007671Y-66193797D01*
X113142517Y-66244091D01*
X113142516Y-66244091D01*
X113149444Y-66244835D01*
X113202127Y-66250500D01*
X116797872Y-66250499D01*
X116857483Y-66244091D01*
X116992331Y-66193796D01*
X117107546Y-66107546D01*
X117193796Y-65992331D01*
X117244091Y-65857483D01*
X117250500Y-65797873D01*
X117250499Y-62202128D01*
X117244091Y-62142517D01*
X117241980Y-62136858D01*
X117193797Y-62007671D01*
X117193793Y-62007664D01*
X117107547Y-61892455D01*
X117107544Y-61892452D01*
X116992335Y-61806206D01*
X116992328Y-61806202D01*
X116857482Y-61755908D01*
X116857483Y-61755908D01*
X116797883Y-61749501D01*
X116797881Y-61749500D01*
X116797873Y-61749500D01*
X116797864Y-61749500D01*
X113202129Y-61749500D01*
X113202123Y-61749501D01*
X113142516Y-61755908D01*
X113007671Y-61806202D01*
X113007664Y-61806206D01*
X112892455Y-61892452D01*
X112892452Y-61892455D01*
X112806206Y-62007664D01*
X112806202Y-62007671D01*
X112787988Y-62056507D01*
X112746117Y-62112441D01*
X112680652Y-62136858D01*
X112612379Y-62122006D01*
X112562974Y-62072601D01*
X112547981Y-62006594D01*
X112549999Y-61968615D01*
X112550000Y-61968578D01*
X112550000Y-61250000D01*
X110800000Y-61250000D01*
X110800000Y-60750000D01*
X112549999Y-60750000D01*
X112549999Y-60031423D01*
X112549998Y-60031411D01*
X112547205Y-59978808D01*
X112502762Y-59749012D01*
X112420120Y-59530024D01*
X112301660Y-59328158D01*
X112301655Y-59328151D01*
X112150788Y-59149213D01*
X112150786Y-59149211D01*
X111971848Y-58998344D01*
X111971841Y-58998339D01*
X111769975Y-58879879D01*
X111550987Y-58797237D01*
X111321190Y-58752794D01*
X111268617Y-58750001D01*
X111268579Y-58750000D01*
X110550000Y-58750000D01*
X110550000Y-59566988D01*
X110492993Y-59534075D01*
X110365826Y-59500000D01*
X110234174Y-59500000D01*
X110107007Y-59534075D01*
X110050000Y-59566988D01*
X110050000Y-58750000D01*
X109331423Y-58750000D01*
X109331411Y-58750001D01*
X109278808Y-58752794D01*
X109049012Y-58797237D01*
X108830024Y-58879879D01*
X108628158Y-58998339D01*
X108628151Y-58998344D01*
X108449213Y-59149211D01*
X108449211Y-59149213D01*
X108298344Y-59328151D01*
X108298339Y-59328158D01*
X108179879Y-59530024D01*
X108097237Y-59749012D01*
X108052794Y-59978808D01*
X108052794Y-59978809D01*
X108050001Y-60031382D01*
X108050000Y-60031421D01*
X100500500Y-60031421D01*
X100500500Y-54793643D01*
X100799500Y-54793643D01*
X100799500Y-55206357D01*
X100808674Y-55299500D01*
X100839952Y-55617084D01*
X100920464Y-56021848D01*
X100920467Y-56021859D01*
X101040274Y-56416814D01*
X101198214Y-56798113D01*
X101198216Y-56798118D01*
X101392759Y-57162081D01*
X101392770Y-57162099D01*
X101622052Y-57505244D01*
X101622062Y-57505258D01*
X101883885Y-57824291D01*
X102175708Y-58116114D01*
X102175713Y-58116118D01*
X102175714Y-58116119D01*
X102494747Y-58377942D01*
X102837907Y-58607234D01*
X102837916Y-58607239D01*
X102837918Y-58607240D01*
X103201881Y-58801783D01*
X103201883Y-58801783D01*
X103201889Y-58801787D01*
X103583187Y-58959726D01*
X103978131Y-59079530D01*
X103978137Y-59079531D01*
X103978140Y-59079532D01*
X103978151Y-59079535D01*
X104382915Y-59160047D01*
X104793643Y-59200500D01*
X104793646Y-59200500D01*
X105206354Y-59200500D01*
X105206357Y-59200500D01*
X105617085Y-59160047D01*
X105695884Y-59144372D01*
X106021848Y-59079535D01*
X106021859Y-59079532D01*
X106021859Y-59079531D01*
X106021869Y-59079530D01*
X106416813Y-58959726D01*
X106798111Y-58801787D01*
X107162093Y-58607234D01*
X107505253Y-58377942D01*
X107824286Y-58116119D01*
X107826602Y-58113803D01*
X107829449Y-58110957D01*
X108116114Y-57824291D01*
X108116119Y-57824286D01*
X108377942Y-57505253D01*
X108591391Y-57185803D01*
X112750000Y-57185803D01*
X112750000Y-57750000D01*
X113566988Y-57750000D01*
X113534075Y-57807007D01*
X113500000Y-57934174D01*
X113500000Y-58065826D01*
X113534075Y-58192993D01*
X113566988Y-58250000D01*
X112750001Y-58250000D01*
X112750001Y-58814197D01*
X112760400Y-58946332D01*
X112815377Y-59164519D01*
X112908428Y-59369374D01*
X112908431Y-59369380D01*
X113036559Y-59554323D01*
X113036569Y-59554335D01*
X113195664Y-59713430D01*
X113195676Y-59713440D01*
X113380619Y-59841568D01*
X113380625Y-59841571D01*
X113585480Y-59934622D01*
X113803667Y-59989599D01*
X113935810Y-59999999D01*
X114749999Y-59999999D01*
X114750000Y-59999998D01*
X114750000Y-58500000D01*
X115250000Y-58500000D01*
X115250000Y-59999999D01*
X116064182Y-59999999D01*
X116064197Y-59999998D01*
X116196332Y-59989599D01*
X116414519Y-59934622D01*
X116619374Y-59841571D01*
X116619380Y-59841568D01*
X116804323Y-59713440D01*
X116804335Y-59713430D01*
X116963430Y-59554335D01*
X116963440Y-59554323D01*
X117091568Y-59369380D01*
X117091571Y-59369374D01*
X117184622Y-59164519D01*
X117239599Y-58946332D01*
X117249999Y-58814196D01*
X117250000Y-58814184D01*
X117250000Y-58250000D01*
X116433012Y-58250000D01*
X116465925Y-58192993D01*
X116500000Y-58065826D01*
X116500000Y-57934174D01*
X116465925Y-57807007D01*
X116433012Y-57750000D01*
X117249999Y-57750000D01*
X117249999Y-57185817D01*
X117249998Y-57185802D01*
X117239599Y-57053667D01*
X117199649Y-56895119D01*
X117199649Y-56895118D01*
X117193036Y-56868872D01*
X120999500Y-56868872D01*
X120999500Y-57131127D01*
X121006699Y-57185802D01*
X121033730Y-57391116D01*
X121101602Y-57644418D01*
X121101605Y-57644428D01*
X121201953Y-57886690D01*
X121201958Y-57886700D01*
X121333075Y-58113803D01*
X121492718Y-58321851D01*
X121492726Y-58321860D01*
X121678140Y-58507274D01*
X121678148Y-58507281D01*
X121886196Y-58666924D01*
X122113299Y-58798041D01*
X122113309Y-58798046D01*
X122310872Y-58879879D01*
X122355581Y-58898398D01*
X122608884Y-58966270D01*
X122868880Y-59000500D01*
X122868887Y-59000500D01*
X123131113Y-59000500D01*
X123131120Y-59000500D01*
X123391116Y-58966270D01*
X123644419Y-58898398D01*
X123886697Y-58798043D01*
X124113803Y-58666924D01*
X124321851Y-58507282D01*
X124321855Y-58507277D01*
X124321860Y-58507274D01*
X124507274Y-58321860D01*
X124507277Y-58321855D01*
X124507282Y-58321851D01*
X124666924Y-58113803D01*
X124798043Y-57886697D01*
X124898398Y-57644419D01*
X124966270Y-57391116D01*
X125000500Y-57131120D01*
X125000500Y-56868880D01*
X125000499Y-56868872D01*
X143599500Y-56868872D01*
X143599500Y-57131127D01*
X143606699Y-57185802D01*
X143633730Y-57391116D01*
X143701602Y-57644418D01*
X143701605Y-57644428D01*
X143801953Y-57886690D01*
X143801958Y-57886700D01*
X143933075Y-58113803D01*
X144092718Y-58321851D01*
X144092726Y-58321860D01*
X144278140Y-58507274D01*
X144278148Y-58507281D01*
X144486196Y-58666924D01*
X144713299Y-58798041D01*
X144713309Y-58798046D01*
X144910872Y-58879879D01*
X144955581Y-58898398D01*
X145208884Y-58966270D01*
X145468880Y-59000500D01*
X145468887Y-59000500D01*
X145731113Y-59000500D01*
X145731120Y-59000500D01*
X145991116Y-58966270D01*
X146244419Y-58898398D01*
X146486697Y-58798043D01*
X146713803Y-58666924D01*
X146921851Y-58507282D01*
X146921855Y-58507277D01*
X146921860Y-58507274D01*
X146976999Y-58452135D01*
X149499500Y-58452135D01*
X149499500Y-60547870D01*
X149499501Y-60547876D01*
X149505908Y-60607483D01*
X149556202Y-60742328D01*
X149556206Y-60742335D01*
X149642452Y-60857544D01*
X149642455Y-60857547D01*
X149757664Y-60943793D01*
X149757671Y-60943797D01*
X149892517Y-60994091D01*
X149892516Y-60994091D01*
X149899444Y-60994835D01*
X149952127Y-61000500D01*
X152047872Y-61000499D01*
X152107483Y-60994091D01*
X152242331Y-60943796D01*
X152357546Y-60857546D01*
X152443796Y-60742331D01*
X152494091Y-60607483D01*
X152500500Y-60547873D01*
X152500499Y-58452128D01*
X152494091Y-58392517D01*
X152467734Y-58321851D01*
X152443797Y-58257671D01*
X152443793Y-58257664D01*
X152357547Y-58142455D01*
X152357544Y-58142452D01*
X152242335Y-58056206D01*
X152242328Y-58056202D01*
X152107482Y-58005908D01*
X152107483Y-58005908D01*
X152047883Y-57999501D01*
X152047881Y-57999500D01*
X152047873Y-57999500D01*
X152047864Y-57999500D01*
X149952129Y-57999500D01*
X149952123Y-57999501D01*
X149892516Y-58005908D01*
X149757671Y-58056202D01*
X149757664Y-58056206D01*
X149642455Y-58142452D01*
X149642452Y-58142455D01*
X149556206Y-58257664D01*
X149556202Y-58257671D01*
X149505908Y-58392517D01*
X149503282Y-58416947D01*
X149499501Y-58452123D01*
X149499500Y-58452135D01*
X146976999Y-58452135D01*
X147107274Y-58321860D01*
X147107277Y-58321855D01*
X147107282Y-58321851D01*
X147266924Y-58113803D01*
X147398043Y-57886697D01*
X147498398Y-57644419D01*
X147566270Y-57391116D01*
X147600500Y-57131120D01*
X147600500Y-56888549D01*
X160299500Y-56888549D01*
X160299500Y-57111450D01*
X160299501Y-57111466D01*
X160328594Y-57332452D01*
X160328595Y-57332457D01*
X160328596Y-57332463D01*
X160374895Y-57505253D01*
X160386290Y-57547780D01*
X160386293Y-57547790D01*
X160471593Y-57753722D01*
X160471595Y-57753726D01*
X160583052Y-57946774D01*
X160583057Y-57946780D01*
X160583058Y-57946782D01*
X160718751Y-58123622D01*
X160718757Y-58123629D01*
X160876370Y-58281242D01*
X160876376Y-58281247D01*
X161053226Y-58416948D01*
X161246274Y-58528405D01*
X161295952Y-58548982D01*
X161350355Y-58592821D01*
X161372421Y-58659115D01*
X161372500Y-58663543D01*
X161372500Y-62311807D01*
X161396612Y-62433027D01*
X161396614Y-62433035D01*
X161430062Y-62513785D01*
X161443915Y-62547229D01*
X161443920Y-62547239D01*
X161512588Y-62650007D01*
X161512591Y-62650011D01*
X170424907Y-71562327D01*
X170458392Y-71623650D01*
X170458843Y-71625816D01*
X170480261Y-71733491D01*
X170480264Y-71733501D01*
X170540602Y-71879172D01*
X170540609Y-71879185D01*
X170628210Y-72010288D01*
X170628213Y-72010292D01*
X170739707Y-72121786D01*
X170739711Y-72121789D01*
X170870814Y-72209390D01*
X170870827Y-72209397D01*
X171016498Y-72269735D01*
X171016503Y-72269737D01*
X171171153Y-72300499D01*
X171171156Y-72300500D01*
X171171158Y-72300500D01*
X171328844Y-72300500D01*
X171328845Y-72300499D01*
X171483497Y-72269737D01*
X171629179Y-72209394D01*
X171760289Y-72121789D01*
X171871789Y-72010289D01*
X171959394Y-71879179D01*
X172019737Y-71733497D01*
X172050500Y-71578842D01*
X172050500Y-71421158D01*
X172050500Y-71421155D01*
X172050499Y-71421153D01*
X172019738Y-71266510D01*
X172019737Y-71266503D01*
X172019735Y-71266498D01*
X171959397Y-71120827D01*
X171959390Y-71120814D01*
X171871789Y-70989711D01*
X171871786Y-70989707D01*
X171760292Y-70878213D01*
X171760288Y-70878210D01*
X171629185Y-70790609D01*
X171629172Y-70790602D01*
X171483501Y-70730264D01*
X171483491Y-70730261D01*
X171375816Y-70708843D01*
X171313905Y-70676458D01*
X171312327Y-70674907D01*
X162663819Y-62026399D01*
X162630334Y-61965076D01*
X162627500Y-61938718D01*
X162627500Y-59201781D01*
X162647185Y-59134742D01*
X162699989Y-59088987D01*
X162769147Y-59079043D01*
X162832703Y-59108068D01*
X162839181Y-59114100D01*
X172913181Y-69188100D01*
X172946666Y-69249423D01*
X172949500Y-69275781D01*
X172949500Y-69715701D01*
X172952401Y-69752567D01*
X172952402Y-69752573D01*
X172998254Y-69910393D01*
X172998255Y-69910396D01*
X173081917Y-70051862D01*
X173081923Y-70051870D01*
X173198129Y-70168076D01*
X173198133Y-70168079D01*
X173198135Y-70168081D01*
X173339602Y-70251744D01*
X173381224Y-70263836D01*
X173497426Y-70297597D01*
X173497429Y-70297597D01*
X173497431Y-70297598D01*
X173534306Y-70300500D01*
X173534314Y-70300500D01*
X173965686Y-70300500D01*
X173965694Y-70300500D01*
X174002569Y-70297598D01*
X174002571Y-70297597D01*
X174002573Y-70297597D01*
X174044191Y-70285505D01*
X174160398Y-70251744D01*
X174301865Y-70168081D01*
X174418081Y-70051865D01*
X174501744Y-69910398D01*
X174547598Y-69752569D01*
X174550500Y-69715694D01*
X174550500Y-68657500D01*
X174570185Y-68590461D01*
X174622989Y-68544706D01*
X174674500Y-68533500D01*
X174725500Y-68533500D01*
X174792539Y-68553185D01*
X174838294Y-68605989D01*
X174849500Y-68657500D01*
X174849500Y-69715701D01*
X174852401Y-69752567D01*
X174852402Y-69752573D01*
X174898254Y-69910393D01*
X174898255Y-69910396D01*
X174981917Y-70051862D01*
X174981923Y-70051870D01*
X175098129Y-70168076D01*
X175098133Y-70168079D01*
X175098135Y-70168081D01*
X175239602Y-70251744D01*
X175281224Y-70263836D01*
X175397426Y-70297597D01*
X175397429Y-70297597D01*
X175397431Y-70297598D01*
X175434306Y-70300500D01*
X175434314Y-70300500D01*
X175865686Y-70300500D01*
X175865694Y-70300500D01*
X175902569Y-70297598D01*
X175902571Y-70297597D01*
X175902573Y-70297597D01*
X175944191Y-70285505D01*
X176060398Y-70251744D01*
X176201865Y-70168081D01*
X176318081Y-70051865D01*
X176401744Y-69910398D01*
X176447598Y-69752569D01*
X176450500Y-69715694D01*
X176450500Y-69275780D01*
X176470185Y-69208741D01*
X176486814Y-69188104D01*
X186967724Y-58707193D01*
X187029045Y-58673710D01*
X187071586Y-58671937D01*
X187265864Y-58697514D01*
X187288527Y-58700498D01*
X187288543Y-58700500D01*
X187288550Y-58700500D01*
X187511450Y-58700500D01*
X187511457Y-58700500D01*
X187732463Y-58671404D01*
X187947781Y-58613710D01*
X188153726Y-58528405D01*
X188346774Y-58416948D01*
X188523624Y-58281247D01*
X188681247Y-58123624D01*
X188816948Y-57946774D01*
X188928405Y-57753726D01*
X189013710Y-57547781D01*
X189071404Y-57332463D01*
X189100500Y-57111457D01*
X189100500Y-56888543D01*
X189071404Y-56667537D01*
X189013710Y-56452219D01*
X188928405Y-56246274D01*
X188816948Y-56053226D01*
X188681247Y-55876376D01*
X188681242Y-55876370D01*
X188523629Y-55718757D01*
X188523622Y-55718751D01*
X188346782Y-55583058D01*
X188346780Y-55583057D01*
X188346774Y-55583052D01*
X188153726Y-55471595D01*
X188153722Y-55471593D01*
X187947790Y-55386293D01*
X187947783Y-55386291D01*
X187947781Y-55386290D01*
X187732463Y-55328596D01*
X187732457Y-55328595D01*
X187732452Y-55328594D01*
X187511466Y-55299501D01*
X187511463Y-55299500D01*
X187511457Y-55299500D01*
X187288543Y-55299500D01*
X187288537Y-55299500D01*
X187288533Y-55299501D01*
X187067547Y-55328594D01*
X187067540Y-55328595D01*
X187067537Y-55328596D01*
X186852219Y-55386290D01*
X186852209Y-55386293D01*
X186646277Y-55471593D01*
X186646273Y-55471595D01*
X186453226Y-55583052D01*
X186453217Y-55583058D01*
X186276377Y-55718751D01*
X186276370Y-55718757D01*
X186118757Y-55876370D01*
X186118751Y-55876377D01*
X185983058Y-56053217D01*
X185983052Y-56053226D01*
X185871595Y-56246273D01*
X185871593Y-56246277D01*
X185786293Y-56452209D01*
X185786290Y-56452219D01*
X185738487Y-56630625D01*
X185728597Y-56667534D01*
X185728594Y-56667547D01*
X185699501Y-56888533D01*
X185699500Y-56888549D01*
X185699500Y-57111450D01*
X185699501Y-57111466D01*
X185728594Y-57332452D01*
X185728595Y-57332457D01*
X185728596Y-57332463D01*
X185774895Y-57505253D01*
X185786290Y-57547780D01*
X185786293Y-57547790D01*
X185871593Y-57753722D01*
X185871598Y-57753733D01*
X185924589Y-57845515D01*
X185941062Y-57913415D01*
X185918210Y-57979442D01*
X185904883Y-57995196D01*
X176662181Y-67237899D01*
X176600858Y-67271384D01*
X176531166Y-67266400D01*
X176475233Y-67224528D01*
X176450816Y-67159064D01*
X176450500Y-67150218D01*
X176450500Y-66284313D01*
X176450499Y-66284298D01*
X176447839Y-66250500D01*
X176447598Y-66247431D01*
X176432015Y-66193796D01*
X176407734Y-66110221D01*
X176401744Y-66089602D01*
X176397555Y-66082520D01*
X176385787Y-66062619D01*
X176368604Y-65994895D01*
X176390764Y-65928633D01*
X176445231Y-65884870D01*
X176492519Y-65875499D01*
X176775002Y-65875499D01*
X176775008Y-65875499D01*
X176877797Y-65864999D01*
X177044334Y-65809814D01*
X177193656Y-65717712D01*
X177317712Y-65593656D01*
X177409814Y-65444334D01*
X177464999Y-65277797D01*
X177475500Y-65175009D01*
X177475499Y-64399992D01*
X177470391Y-64349992D01*
X177464999Y-64297203D01*
X177464998Y-64297200D01*
X177448431Y-64247204D01*
X177409814Y-64130666D01*
X177317712Y-63981344D01*
X177193656Y-63857288D01*
X177190342Y-63855243D01*
X177188546Y-63853248D01*
X177187989Y-63852807D01*
X177188064Y-63852711D01*
X177143618Y-63803297D01*
X177132397Y-63734334D01*
X177160240Y-63670252D01*
X177190348Y-63644165D01*
X177193342Y-63642318D01*
X177317315Y-63518345D01*
X177409356Y-63369124D01*
X177409358Y-63369119D01*
X177464505Y-63202697D01*
X177464506Y-63202690D01*
X177474999Y-63099986D01*
X177475000Y-63099973D01*
X177475000Y-62962500D01*
X175025001Y-62962500D01*
X175025001Y-63099986D01*
X175035494Y-63202697D01*
X175090641Y-63369119D01*
X175090643Y-63369124D01*
X175182684Y-63518345D01*
X175306655Y-63642316D01*
X175306659Y-63642319D01*
X175309656Y-63644168D01*
X175311279Y-63645972D01*
X175312323Y-63646798D01*
X175312181Y-63646976D01*
X175356381Y-63696116D01*
X175367602Y-63765079D01*
X175339759Y-63829161D01*
X175309661Y-63855241D01*
X175306349Y-63857283D01*
X175306343Y-63857288D01*
X175182289Y-63981342D01*
X175090187Y-64130663D01*
X175090186Y-64130666D01*
X175035001Y-64297203D01*
X175035001Y-64297204D01*
X175035000Y-64297204D01*
X175024500Y-64399983D01*
X175024500Y-65053429D01*
X175022906Y-65069616D01*
X175023097Y-65069635D01*
X175022500Y-65075700D01*
X175022500Y-65581457D01*
X175002815Y-65648496D01*
X174982654Y-65672529D01*
X174950000Y-65702702D01*
X174950000Y-65968184D01*
X174932733Y-66031304D01*
X174898254Y-66089605D01*
X174898254Y-66089606D01*
X174852402Y-66247426D01*
X174852401Y-66247432D01*
X174849500Y-66284298D01*
X174849500Y-66738500D01*
X174829815Y-66805539D01*
X174777011Y-66851294D01*
X174725500Y-66862500D01*
X174674500Y-66862500D01*
X174607461Y-66842815D01*
X174561706Y-66790011D01*
X174550500Y-66738500D01*
X174550500Y-66284313D01*
X174550499Y-66284298D01*
X174547839Y-66250500D01*
X174547598Y-66247431D01*
X174532015Y-66193796D01*
X174507734Y-66110221D01*
X174501744Y-66089602D01*
X174467267Y-66031304D01*
X174450000Y-65968184D01*
X174450000Y-65702702D01*
X174417346Y-65672529D01*
X174381468Y-65612574D01*
X174377500Y-65581457D01*
X174377500Y-65461415D01*
X174383794Y-65422411D01*
X174384815Y-65419331D01*
X174439999Y-65252797D01*
X174450500Y-65150009D01*
X174450499Y-64349992D01*
X174439999Y-64247203D01*
X174384814Y-64080666D01*
X174292712Y-63931344D01*
X174198695Y-63837327D01*
X174165210Y-63776004D01*
X174170194Y-63706312D01*
X174198695Y-63661964D01*
X174292317Y-63568342D01*
X174384356Y-63419124D01*
X174384358Y-63419119D01*
X174439505Y-63252697D01*
X174439506Y-63252690D01*
X174449999Y-63149986D01*
X174450000Y-63149973D01*
X174450000Y-63000000D01*
X172050001Y-63000000D01*
X172050001Y-63149986D01*
X172060494Y-63252697D01*
X172115641Y-63419119D01*
X172115643Y-63419124D01*
X172207684Y-63568345D01*
X172301304Y-63661965D01*
X172334789Y-63723288D01*
X172329805Y-63792980D01*
X172301305Y-63837327D01*
X172207287Y-63931345D01*
X172115187Y-64080663D01*
X172115185Y-64080668D01*
X172098617Y-64130668D01*
X172060001Y-64247203D01*
X172060001Y-64247204D01*
X172060000Y-64247204D01*
X172049500Y-64349983D01*
X172049500Y-65150001D01*
X172049501Y-65150019D01*
X172060000Y-65252796D01*
X172060001Y-65252799D01*
X172068285Y-65277797D01*
X172115186Y-65419334D01*
X172207288Y-65568656D01*
X172331344Y-65692712D01*
X172430756Y-65754030D01*
X172477480Y-65805977D01*
X172488703Y-65874939D01*
X172460859Y-65939022D01*
X172434551Y-65962670D01*
X172346251Y-66021670D01*
X172340347Y-66027575D01*
X172279022Y-66061057D01*
X172209331Y-66056069D01*
X172164989Y-66027570D01*
X168487432Y-62350013D01*
X172050000Y-62350013D01*
X172050000Y-62500000D01*
X173000000Y-62500000D01*
X173500000Y-62500000D01*
X174449999Y-62500000D01*
X174449999Y-62350028D01*
X174449998Y-62350013D01*
X174448410Y-62334466D01*
X174447444Y-62325013D01*
X175025000Y-62325013D01*
X175025000Y-62462500D01*
X176000000Y-62462500D01*
X176500000Y-62462500D01*
X177474999Y-62462500D01*
X177474999Y-62325028D01*
X177474998Y-62325013D01*
X177464505Y-62222302D01*
X177409358Y-62055880D01*
X177409356Y-62055875D01*
X177317315Y-61906654D01*
X177193345Y-61782684D01*
X177044124Y-61690643D01*
X177044119Y-61690641D01*
X176877697Y-61635494D01*
X176877690Y-61635493D01*
X176774986Y-61625000D01*
X176500000Y-61625000D01*
X176500000Y-62462500D01*
X176000000Y-62462500D01*
X176000000Y-61625000D01*
X175725029Y-61625000D01*
X175725012Y-61625001D01*
X175622302Y-61635494D01*
X175455880Y-61690641D01*
X175455875Y-61690643D01*
X175306654Y-61782684D01*
X175182684Y-61906654D01*
X175090643Y-62055875D01*
X175090641Y-62055880D01*
X175035494Y-62222302D01*
X175035493Y-62222309D01*
X175025000Y-62325013D01*
X174447444Y-62325013D01*
X174439505Y-62247302D01*
X174384358Y-62080880D01*
X174384356Y-62080875D01*
X174292315Y-61931654D01*
X174168345Y-61807684D01*
X174019124Y-61715643D01*
X174019119Y-61715641D01*
X173852697Y-61660494D01*
X173852690Y-61660493D01*
X173749986Y-61650000D01*
X173500000Y-61650000D01*
X173500000Y-62500000D01*
X173000000Y-62500000D01*
X173000000Y-61650000D01*
X172750029Y-61650000D01*
X172750012Y-61650001D01*
X172647302Y-61660494D01*
X172480880Y-61715641D01*
X172480875Y-61715643D01*
X172331654Y-61807684D01*
X172207684Y-61931654D01*
X172115643Y-62080875D01*
X172115641Y-62080880D01*
X172060494Y-62247302D01*
X172060493Y-62247309D01*
X172050000Y-62350013D01*
X168487432Y-62350013D01*
X163679440Y-57542021D01*
X163645955Y-57480698D01*
X163647346Y-57422246D01*
X163671404Y-57332463D01*
X163700500Y-57111457D01*
X163700500Y-56888543D01*
X163671404Y-56667537D01*
X163613710Y-56452219D01*
X163528405Y-56246274D01*
X163416948Y-56053226D01*
X163281247Y-55876376D01*
X163281242Y-55876370D01*
X163123629Y-55718757D01*
X163123622Y-55718751D01*
X162946782Y-55583058D01*
X162946780Y-55583057D01*
X162946774Y-55583052D01*
X162753726Y-55471595D01*
X162753722Y-55471593D01*
X162547790Y-55386293D01*
X162547783Y-55386291D01*
X162547781Y-55386290D01*
X162332463Y-55328596D01*
X162332457Y-55328595D01*
X162332452Y-55328594D01*
X162111466Y-55299501D01*
X162111463Y-55299500D01*
X162111457Y-55299500D01*
X161888543Y-55299500D01*
X161888537Y-55299500D01*
X161888533Y-55299501D01*
X161667547Y-55328594D01*
X161667540Y-55328595D01*
X161667537Y-55328596D01*
X161452219Y-55386290D01*
X161452209Y-55386293D01*
X161246277Y-55471593D01*
X161246273Y-55471595D01*
X161053226Y-55583052D01*
X161053217Y-55583058D01*
X160876377Y-55718751D01*
X160876370Y-55718757D01*
X160718757Y-55876370D01*
X160718751Y-55876377D01*
X160583058Y-56053217D01*
X160583052Y-56053226D01*
X160471595Y-56246273D01*
X160471593Y-56246277D01*
X160386293Y-56452209D01*
X160386290Y-56452219D01*
X160338487Y-56630625D01*
X160328597Y-56667534D01*
X160328594Y-56667547D01*
X160299501Y-56888533D01*
X160299500Y-56888549D01*
X147600500Y-56888549D01*
X147600500Y-56868880D01*
X147566270Y-56608884D01*
X147498398Y-56355581D01*
X147453123Y-56246277D01*
X147398046Y-56113309D01*
X147398041Y-56113299D01*
X147266924Y-55886196D01*
X147107281Y-55678148D01*
X147107274Y-55678140D01*
X146921860Y-55492726D01*
X146921851Y-55492718D01*
X146713803Y-55333075D01*
X146486700Y-55201958D01*
X146486690Y-55201953D01*
X146244428Y-55101605D01*
X146244421Y-55101603D01*
X146244419Y-55101602D01*
X145991116Y-55033730D01*
X145933339Y-55026123D01*
X145731127Y-54999500D01*
X145731120Y-54999500D01*
X145468880Y-54999500D01*
X145468872Y-54999500D01*
X145237772Y-55029926D01*
X145208884Y-55033730D01*
X144955581Y-55101602D01*
X144955571Y-55101605D01*
X144713309Y-55201953D01*
X144713299Y-55201958D01*
X144486196Y-55333075D01*
X144278148Y-55492718D01*
X144092718Y-55678148D01*
X143933075Y-55886196D01*
X143801958Y-56113299D01*
X143801953Y-56113309D01*
X143701605Y-56355571D01*
X143701602Y-56355581D01*
X143677465Y-56445664D01*
X143633730Y-56608885D01*
X143599500Y-56868872D01*
X125000499Y-56868872D01*
X124966270Y-56608884D01*
X124898398Y-56355581D01*
X124853123Y-56246277D01*
X124798046Y-56113309D01*
X124798041Y-56113299D01*
X124666924Y-55886196D01*
X124507281Y-55678148D01*
X124507274Y-55678140D01*
X124321860Y-55492726D01*
X124321851Y-55492718D01*
X124113803Y-55333075D01*
X123886700Y-55201958D01*
X123886690Y-55201953D01*
X123644428Y-55101605D01*
X123644421Y-55101603D01*
X123644419Y-55101602D01*
X123391116Y-55033730D01*
X123333339Y-55026123D01*
X123131127Y-54999500D01*
X123131120Y-54999500D01*
X122868880Y-54999500D01*
X122868872Y-54999500D01*
X122637772Y-55029926D01*
X122608884Y-55033730D01*
X122355581Y-55101602D01*
X122355571Y-55101605D01*
X122113309Y-55201953D01*
X122113299Y-55201958D01*
X121886196Y-55333075D01*
X121678148Y-55492718D01*
X121492718Y-55678148D01*
X121333075Y-55886196D01*
X121201958Y-56113299D01*
X121201953Y-56113309D01*
X121101605Y-56355571D01*
X121101602Y-56355581D01*
X121077465Y-56445664D01*
X121033730Y-56608885D01*
X120999500Y-56868872D01*
X117193036Y-56868872D01*
X117184622Y-56835481D01*
X117091571Y-56630625D01*
X117091568Y-56630619D01*
X116963440Y-56445676D01*
X116963430Y-56445664D01*
X116804335Y-56286569D01*
X116804323Y-56286559D01*
X116619380Y-56158431D01*
X116619374Y-56158428D01*
X116414519Y-56065377D01*
X116196332Y-56010400D01*
X116064196Y-56000000D01*
X115250000Y-56000000D01*
X115250000Y-57500000D01*
X114750000Y-57500000D01*
X114750000Y-56000000D01*
X113935817Y-56000000D01*
X113935802Y-56000001D01*
X113803667Y-56010400D01*
X113585480Y-56065377D01*
X113380625Y-56158428D01*
X113380619Y-56158431D01*
X113195676Y-56286559D01*
X113195664Y-56286569D01*
X113036569Y-56445664D01*
X113036559Y-56445676D01*
X112908431Y-56630619D01*
X112908428Y-56630625D01*
X112815377Y-56835480D01*
X112760400Y-57053667D01*
X112750000Y-57185803D01*
X108591391Y-57185803D01*
X108607234Y-57162093D01*
X108801787Y-56798111D01*
X108959726Y-56416813D01*
X109079530Y-56021869D01*
X109079532Y-56021859D01*
X109079535Y-56021848D01*
X109160047Y-55617084D01*
X109174376Y-55471595D01*
X109200500Y-55206357D01*
X109200500Y-54793643D01*
X109160047Y-54382915D01*
X109147777Y-54321227D01*
X109143933Y-54301902D01*
X149499500Y-54301902D01*
X149499500Y-54538097D01*
X149536446Y-54771368D01*
X149609433Y-54995996D01*
X149663244Y-55101605D01*
X149716657Y-55206433D01*
X149855483Y-55397510D01*
X150022490Y-55564517D01*
X150213567Y-55703343D01*
X150243819Y-55718757D01*
X150424003Y-55810566D01*
X150424005Y-55810566D01*
X150424008Y-55810568D01*
X150544412Y-55849689D01*
X150648631Y-55883553D01*
X150881903Y-55920500D01*
X150881908Y-55920500D01*
X151118097Y-55920500D01*
X151351368Y-55883553D01*
X151373475Y-55876370D01*
X151575992Y-55810568D01*
X151786433Y-55703343D01*
X151977510Y-55564517D01*
X152144517Y-55397510D01*
X152283343Y-55206433D01*
X152390568Y-54995992D01*
X152456315Y-54793643D01*
X190799500Y-54793643D01*
X190799500Y-55206357D01*
X190808674Y-55299500D01*
X190839952Y-55617084D01*
X190920464Y-56021848D01*
X190920467Y-56021859D01*
X191040274Y-56416814D01*
X191198214Y-56798113D01*
X191198216Y-56798118D01*
X191392759Y-57162081D01*
X191392770Y-57162099D01*
X191622052Y-57505244D01*
X191622062Y-57505258D01*
X191883885Y-57824291D01*
X192175708Y-58116114D01*
X192175713Y-58116118D01*
X192175714Y-58116119D01*
X192494747Y-58377942D01*
X192837907Y-58607234D01*
X192837916Y-58607239D01*
X192837918Y-58607240D01*
X193201881Y-58801783D01*
X193201883Y-58801783D01*
X193201889Y-58801787D01*
X193583187Y-58959726D01*
X193978131Y-59079530D01*
X193978137Y-59079531D01*
X193978140Y-59079532D01*
X193978151Y-59079535D01*
X194382915Y-59160047D01*
X194793643Y-59200500D01*
X194793646Y-59200500D01*
X195206354Y-59200500D01*
X195206357Y-59200500D01*
X195617085Y-59160047D01*
X195695884Y-59144372D01*
X196021848Y-59079535D01*
X196021859Y-59079532D01*
X196021859Y-59079531D01*
X196021869Y-59079530D01*
X196416813Y-58959726D01*
X196798111Y-58801787D01*
X197162093Y-58607234D01*
X197505253Y-58377942D01*
X197824286Y-58116119D01*
X198116119Y-57824286D01*
X198377942Y-57505253D01*
X198607234Y-57162093D01*
X198801787Y-56798111D01*
X198959726Y-56416813D01*
X199079530Y-56021869D01*
X199079532Y-56021859D01*
X199079535Y-56021848D01*
X199160047Y-55617084D01*
X199174376Y-55471595D01*
X199200500Y-55206357D01*
X199200500Y-54793643D01*
X199160047Y-54382915D01*
X199079535Y-53978151D01*
X199079532Y-53978140D01*
X199079531Y-53978137D01*
X199079530Y-53978131D01*
X198959726Y-53583187D01*
X198801787Y-53201889D01*
X198650846Y-52919500D01*
X198607240Y-52837918D01*
X198607239Y-52837916D01*
X198607234Y-52837907D01*
X198377942Y-52494747D01*
X198116119Y-52175714D01*
X198116118Y-52175713D01*
X198116114Y-52175708D01*
X197824291Y-51883885D01*
X197505258Y-51622062D01*
X197505257Y-51622061D01*
X197505253Y-51622058D01*
X197162093Y-51392766D01*
X197162088Y-51392763D01*
X197162081Y-51392759D01*
X196798118Y-51198216D01*
X196798113Y-51198214D01*
X196416814Y-51040274D01*
X196021859Y-50920467D01*
X196021848Y-50920464D01*
X195617084Y-50839952D01*
X195307741Y-50809485D01*
X195206357Y-50799500D01*
X194793643Y-50799500D01*
X194699966Y-50808726D01*
X194382915Y-50839952D01*
X193978151Y-50920464D01*
X193978140Y-50920467D01*
X193583185Y-51040274D01*
X193201886Y-51198214D01*
X193201881Y-51198216D01*
X192837918Y-51392759D01*
X192837900Y-51392770D01*
X192494755Y-51622052D01*
X192494741Y-51622062D01*
X192175708Y-51883885D01*
X191883885Y-52175708D01*
X191622062Y-52494741D01*
X191622052Y-52494755D01*
X191392770Y-52837900D01*
X191392759Y-52837918D01*
X191198216Y-53201881D01*
X191198214Y-53201886D01*
X191040274Y-53583185D01*
X190920467Y-53978140D01*
X190920464Y-53978151D01*
X190839952Y-54382915D01*
X190808726Y-54699966D01*
X190799500Y-54793643D01*
X152456315Y-54793643D01*
X152463553Y-54771368D01*
X152474910Y-54699661D01*
X152500500Y-54538097D01*
X152500500Y-54301902D01*
X152463553Y-54068631D01*
X152390566Y-53844003D01*
X152283342Y-53633566D01*
X152144517Y-53442490D01*
X151977510Y-53275483D01*
X151786433Y-53136657D01*
X151575996Y-53029433D01*
X151351368Y-52956446D01*
X151118097Y-52919500D01*
X151118092Y-52919500D01*
X150881908Y-52919500D01*
X150881903Y-52919500D01*
X150648631Y-52956446D01*
X150424003Y-53029433D01*
X150213566Y-53136657D01*
X150123794Y-53201881D01*
X150022490Y-53275483D01*
X150022488Y-53275485D01*
X150022487Y-53275485D01*
X149855485Y-53442487D01*
X149855485Y-53442488D01*
X149855483Y-53442490D01*
X149795862Y-53524550D01*
X149716657Y-53633566D01*
X149609433Y-53844003D01*
X149536446Y-54068631D01*
X149499500Y-54301902D01*
X109143933Y-54301902D01*
X109079535Y-53978152D01*
X109079532Y-53978140D01*
X109079531Y-53978137D01*
X109079530Y-53978131D01*
X108959726Y-53583187D01*
X108801787Y-53201889D01*
X108650846Y-52919500D01*
X108607240Y-52837918D01*
X108607239Y-52837916D01*
X108607234Y-52837907D01*
X108377942Y-52494747D01*
X108116119Y-52175714D01*
X108116118Y-52175713D01*
X108116114Y-52175708D01*
X107824291Y-51883885D01*
X107505258Y-51622062D01*
X107505257Y-51622061D01*
X107505253Y-51622058D01*
X107162093Y-51392766D01*
X107162088Y-51392763D01*
X107162081Y-51392759D01*
X106798118Y-51198216D01*
X106798113Y-51198214D01*
X106416814Y-51040274D01*
X106021859Y-50920467D01*
X106021848Y-50920464D01*
X105617084Y-50839952D01*
X105307741Y-50809485D01*
X105206357Y-50799500D01*
X104793643Y-50799500D01*
X104699966Y-50808726D01*
X104382915Y-50839952D01*
X103978151Y-50920464D01*
X103978140Y-50920467D01*
X103583185Y-51040274D01*
X103201886Y-51198214D01*
X103201881Y-51198216D01*
X102837918Y-51392759D01*
X102837900Y-51392770D01*
X102494755Y-51622052D01*
X102494741Y-51622062D01*
X102175708Y-51883885D01*
X101883885Y-52175708D01*
X101622062Y-52494741D01*
X101622052Y-52494755D01*
X101392770Y-52837900D01*
X101392759Y-52837918D01*
X101198216Y-53201881D01*
X101198214Y-53201886D01*
X101040274Y-53583185D01*
X100920467Y-53978140D01*
X100920464Y-53978151D01*
X100839952Y-54382915D01*
X100808726Y-54699966D01*
X100799500Y-54793643D01*
X100500500Y-54793643D01*
X100500500Y-50624500D01*
X100520185Y-50557461D01*
X100572989Y-50511706D01*
X100624500Y-50500500D01*
X199375500Y-50500500D01*
X199442539Y-50520185D01*
G37*
%TD.AperFunction*%
%TD*%
M02*
