%TF.GenerationSoftware,KiCad,Pcbnew,10.0.5*%
%TF.CreationDate,2026-09-03T14:11:13+02:00*%
%TF.ProjectId,wlck_motherboard,776c636b-5f6d-46f7-9468-6572626f6172,rev?*%
%TF.SameCoordinates,Original*%
%TF.FileFunction,Soldermask,Top*%
%TF.FilePolarity,Negative*%
%FSLAX46Y46*%
G04 Gerber Fmt 4.6, Leading zero omitted, Abs format (unit mm)*
G04 Created by KiCad (PCBNEW 10.0.5) date 2026-09-03 14:11:13*
%MOMM*%
%LPD*%
G01*
G04 APERTURE LIST*
G04 Aperture macros list*
%AMRoundRect*
0 Rectangle with rounded corners*
0 $1 Rounding radius*
0 $2 $3 $4 $5 $6 $7 $8 $9 X,Y pos of 4 corners*
0 Add a 4 corners polygon primitive as box body*
4,1,4,$2,$3,$4,$5,$6,$7,$8,$9,$2,$3,0*
0 Add four circle primitives for the rounded corners*
1,1,$1+$1,$2,$3*
1,1,$1+$1,$4,$5*
1,1,$1+$1,$6,$7*
1,1,$1+$1,$8,$9*
0 Add four rect primitives between the rounded corners*
20,1,$1+$1,$2,$3,$4,$5,0*
20,1,$1+$1,$4,$5,$6,$7,0*
20,1,$1+$1,$6,$7,$8,$9,0*
20,1,$1+$1,$8,$9,$2,$3,0*%
G04 Aperture macros list end*
%ADD10RoundRect,0.250000X0.650000X-1.500000X0.650000X1.500000X-0.650000X1.500000X-0.650000X-1.500000X0*%
%ADD11R,2.000000X2.000000*%
%ADD12C,2.000000*%
%ADD13RoundRect,0.250000X-0.337500X-0.475000X0.337500X-0.475000X0.337500X0.475000X-0.337500X0.475000X0*%
%ADD14C,4.100000*%
%ADD15C,7.400000*%
%ADD16R,1.905000X2.000000*%
%ADD17O,1.905000X2.000000*%
%ADD18R,1.700000X1.700000*%
%ADD19C,1.700000*%
%ADD20RoundRect,0.250000X-0.620000X-0.845000X0.620000X-0.845000X0.620000X0.845000X-0.620000X0.845000X0*%
%ADD21O,1.740000X2.190000*%
%ADD22RoundRect,0.250000X-0.550000X-0.550000X0.550000X-0.550000X0.550000X0.550000X-0.550000X0.550000X0*%
%ADD23C,1.600000*%
%ADD24RoundRect,0.250000X-1.500000X-0.650000X1.500000X-0.650000X1.500000X0.650000X-1.500000X0.650000X0*%
%ADD25RoundRect,0.250000X-0.750000X-0.750000X0.750000X-0.750000X0.750000X0.750000X-0.750000X0.750000X0*%
%ADD26R,1.800000X1.800000*%
%ADD27C,1.800000*%
%ADD28RoundRect,0.250000X-0.350000X-0.450000X0.350000X-0.450000X0.350000X0.450000X-0.350000X0.450000X0*%
%ADD29RoundRect,0.250000X0.450000X-0.350000X0.450000X0.350000X-0.450000X0.350000X-0.450000X-0.350000X0*%
%ADD30C,3.000000*%
%ADD31RoundRect,0.250000X0.620000X0.845000X-0.620000X0.845000X-0.620000X-0.845000X0.620000X-0.845000X0*%
%ADD32R,3.500000X3.500000*%
%ADD33RoundRect,0.750000X-1.000000X0.750000X-1.000000X-0.750000X1.000000X-0.750000X1.000000X0.750000X0*%
%ADD34RoundRect,0.875000X-0.875000X0.875000X-0.875000X-0.875000X0.875000X-0.875000X0.875000X0.875000X0*%
%ADD35RoundRect,0.250000X0.337500X0.475000X-0.337500X0.475000X-0.337500X-0.475000X0.337500X-0.475000X0*%
%ADD36C,2.400000*%
%ADD37RoundRect,0.250000X0.550000X0.550000X-0.550000X0.550000X-0.550000X-0.550000X0.550000X-0.550000X0*%
%ADD38RoundRect,0.250000X1.330000X1.800000X-1.330000X1.800000X-1.330000X-1.800000X1.330000X-1.800000X0*%
%ADD39O,3.160000X4.100000*%
G04 APERTURE END LIST*
D10*
%TO.C,D2*%
X125000000Y-121750000D03*
X125000000Y-116750000D03*
%TD*%
D11*
%TO.C,D1*%
X151000000Y-59500000D03*
D12*
X151000000Y-54420000D03*
%TD*%
D13*
%TO.C,C1*%
X184462500Y-129171800D03*
X186537500Y-129171800D03*
%TD*%
D14*
%TO.C,H3*%
X195000000Y-55000000D03*
D15*
X195000000Y-55000000D03*
%TD*%
D16*
%TO.C,U3*%
X190000000Y-122500000D03*
D17*
X192540000Y-122500000D03*
X195080000Y-122500000D03*
%TD*%
D18*
%TO.C,J6*%
X150500000Y-113931800D03*
D19*
X153040000Y-113931800D03*
X155580000Y-113931800D03*
X158120000Y-113931800D03*
X160660000Y-113931800D03*
X163200000Y-113931800D03*
X165740000Y-113931800D03*
%TD*%
D20*
%TO.C,J5*%
X102500000Y-135000000D03*
D21*
X105040000Y-135000000D03*
X107580000Y-135000000D03*
X110120000Y-135000000D03*
X112660000Y-135000000D03*
%TD*%
D22*
%TO.C,C6*%
X190000000Y-99500000D03*
D23*
X192500000Y-99500000D03*
%TD*%
D24*
%TO.C,D6*%
X190000000Y-106000000D03*
X195000000Y-106000000D03*
%TD*%
D20*
%TO.C,J2*%
X102500000Y-111000000D03*
D21*
X105040000Y-111000000D03*
X107580000Y-111000000D03*
X110120000Y-111000000D03*
X112660000Y-111000000D03*
%TD*%
D13*
%TO.C,C10*%
X190462500Y-115000000D03*
X192537500Y-115000000D03*
%TD*%
D25*
%TO.C,C4*%
X105000000Y-81000000D03*
D12*
X110000000Y-81000000D03*
%TD*%
D13*
%TO.C,C9*%
X106462500Y-92500000D03*
X108537500Y-92500000D03*
%TD*%
%TO.C,C11*%
X106462500Y-105000000D03*
X108537500Y-105000000D03*
%TD*%
D18*
%TO.C,J12*%
X179248000Y-101231800D03*
D19*
X181788000Y-101231800D03*
X179248000Y-103771800D03*
X181788000Y-103771800D03*
X179248000Y-106311800D03*
X181788000Y-106311800D03*
X179248000Y-108851800D03*
X181788000Y-108851800D03*
X179248000Y-111391800D03*
X181788000Y-111391800D03*
X179248000Y-113931800D03*
X181788000Y-113931800D03*
X179248000Y-116471800D03*
X181788000Y-116471800D03*
X179248000Y-119011800D03*
X181788000Y-119011800D03*
X179248000Y-121551800D03*
X181788000Y-121551800D03*
X179248000Y-124091800D03*
X181788000Y-124091800D03*
X179248000Y-126631800D03*
X181788000Y-126631800D03*
X179248000Y-129171800D03*
X181788000Y-129171800D03*
X179248000Y-131711800D03*
X181788000Y-131711800D03*
X179248000Y-134251800D03*
X181788000Y-134251800D03*
X179248000Y-136791800D03*
X181788000Y-136791800D03*
X179248000Y-139331800D03*
X181788000Y-139331800D03*
X179248000Y-141871800D03*
X181788000Y-141871800D03*
X179248000Y-144411800D03*
X181788000Y-144411800D03*
X179248000Y-146951800D03*
X181788000Y-146951800D03*
%TD*%
D24*
%TO.C,D5*%
X105000000Y-89000000D03*
X110000000Y-89000000D03*
%TD*%
D26*
%TO.C,D7*%
X103500000Y-66000000D03*
D27*
X106040000Y-66000000D03*
%TD*%
D10*
%TO.C,D4*%
X190000000Y-90500000D03*
X190000000Y-85500000D03*
%TD*%
D24*
%TO.C,D3*%
X107500000Y-71590000D03*
X112500000Y-71590000D03*
%TD*%
D28*
%TO.C,R2*%
X178000000Y-71500000D03*
X180000000Y-71500000D03*
%TD*%
D13*
%TO.C,C7*%
X106462500Y-96000000D03*
X108537500Y-96000000D03*
%TD*%
D14*
%TO.C,H1*%
X105000000Y-55000000D03*
D15*
X105000000Y-55000000D03*
%TD*%
D13*
%TO.C,C8*%
X190462500Y-111000000D03*
X192537500Y-111000000D03*
%TD*%
D14*
%TO.C,H4*%
X195000000Y-145000000D03*
D15*
X195000000Y-145000000D03*
%TD*%
D20*
%TO.C,J4*%
X102500000Y-127000000D03*
D21*
X105040000Y-127000000D03*
X107580000Y-127000000D03*
X110120000Y-127000000D03*
X112660000Y-127000000D03*
%TD*%
D14*
%TO.C,H2*%
X105000000Y-145000000D03*
D15*
X105000000Y-145000000D03*
%TD*%
D18*
%TO.C,J9*%
X150500000Y-101231800D03*
D19*
X153040000Y-101231800D03*
X155580000Y-101231800D03*
X158120000Y-101231800D03*
X160660000Y-101231800D03*
X163200000Y-101231800D03*
X165740000Y-101231800D03*
%TD*%
D29*
%TO.C,R4*%
X170000000Y-104500000D03*
X170000000Y-102500000D03*
%TD*%
D18*
%TO.C,J11*%
X118288000Y-101231800D03*
D19*
X120828000Y-101231800D03*
X118288000Y-103771800D03*
X120828000Y-103771800D03*
X118288000Y-106311800D03*
X120828000Y-106311800D03*
X118288000Y-108851800D03*
X120828000Y-108851800D03*
X118288000Y-111391800D03*
X120828000Y-111391800D03*
X118288000Y-113931800D03*
X120828000Y-113931800D03*
X118288000Y-116471800D03*
X120828000Y-116471800D03*
X118288000Y-119011800D03*
X120828000Y-119011800D03*
X118288000Y-121551800D03*
X120828000Y-121551800D03*
X118288000Y-124091800D03*
X120828000Y-124091800D03*
X118288000Y-126631800D03*
X120828000Y-126631800D03*
X118288000Y-129171800D03*
X120828000Y-129171800D03*
X118288000Y-131711800D03*
X120828000Y-131711800D03*
X118288000Y-134251800D03*
X120828000Y-134251800D03*
X118288000Y-136791800D03*
X120828000Y-136791800D03*
X118288000Y-139331800D03*
X120828000Y-139331800D03*
X118288000Y-141871800D03*
X120828000Y-141871800D03*
X118288000Y-144411800D03*
X120828000Y-144411800D03*
X118288000Y-146951800D03*
X120828000Y-146951800D03*
%TD*%
D29*
%TO.C,R5*%
X110000000Y-68000000D03*
X110000000Y-66000000D03*
%TD*%
D30*
%TO.C,F1*%
X123000000Y-57000000D03*
X145600000Y-57000000D03*
%TD*%
D20*
%TO.C,J3*%
X102500000Y-119000000D03*
D21*
X105040000Y-119000000D03*
X107580000Y-119000000D03*
X110120000Y-119000000D03*
X112660000Y-119000000D03*
%TD*%
D16*
%TO.C,U2*%
X105000000Y-101000000D03*
D17*
X107540000Y-101000000D03*
X110080000Y-101000000D03*
%TD*%
D31*
%TO.C,J7*%
X195000000Y-135000000D03*
D21*
X192460000Y-135000000D03*
X189920000Y-135000000D03*
%TD*%
D32*
%TO.C,J1*%
X115000000Y-64000000D03*
D33*
X115000000Y-58000000D03*
D34*
X110300000Y-61000000D03*
%TD*%
D28*
%TO.C,R1*%
X173750000Y-71500000D03*
X175750000Y-71500000D03*
%TD*%
D13*
%TO.C,C3*%
X184462500Y-106311800D03*
X186537500Y-106311800D03*
%TD*%
D35*
%TO.C,C12*%
X192537500Y-128000000D03*
X190462500Y-128000000D03*
%TD*%
D36*
%TO.C,Rsense1*%
X162000000Y-57000000D03*
X187400000Y-57000000D03*
%TD*%
D37*
%TO.C,C5*%
X150500000Y-95000000D03*
D23*
X148000000Y-95000000D03*
%TD*%
D18*
%TO.C,J10*%
X140000000Y-80000000D03*
D19*
X137460000Y-80000000D03*
X134920000Y-80000000D03*
X132380000Y-80000000D03*
X129840000Y-80000000D03*
%TD*%
D38*
%TO.C,J8*%
X158500000Y-80000000D03*
D39*
X154540000Y-80000000D03*
%TD*%
M02*
