%TF.GenerationSoftware,KiCad,Pcbnew,10.0.5*%
%TF.CreationDate,2026-09-03T14:11:13+02:00*%
%TF.ProjectId,wlck_motherboard,776c636b-5f6d-46f7-9468-6572626f6172,rev?*%
%TF.SameCoordinates,Original*%
%TF.FileFunction,Legend,Bot*%
%TF.FilePolarity,Positive*%
%FSLAX46Y46*%
G04 Gerber Fmt 4.6, Leading zero omitted, Abs format (unit mm)*
G04 Created by KiCad (PCBNEW 10.0.5) date 2026-09-03 14:11:13*
%MOMM*%
%LPD*%
G01*
G04 APERTURE LIST*
G04 Aperture macros list*
%AMRoundRect*
0 Rectangle with rounded corners*
0 $1 Rounding radius*
0 $2 $3 $4 $5 $6 $7 $8 $9 X,Y pos of 4 corners*
0 Add a 4 corners polygon primitive as box body*
4,1,4,$2,$3,$4,$5,$6,$7,$8,$9,$2,$3,0*
0 Add four circle primitives for the rounded corners*
1,1,$1+$1,$2,$3*
1,1,$1+$1,$4,$5*
1,1,$1+$1,$6,$7*
1,1,$1+$1,$8,$9*
0 Add four rect primitives between the rounded corners*
20,1,$1+$1,$2,$3,$4,$5,0*
20,1,$1+$1,$4,$5,$6,$7,0*
20,1,$1+$1,$6,$7,$8,$9,0*
20,1,$1+$1,$8,$9,$2,$3,0*%
G04 Aperture macros list end*
%ADD10C,0.100000*%
%ADD11C,0.150000*%
%ADD12C,0.120000*%
%ADD13R,2.000000X2.000000*%
%ADD14C,2.000000*%
%ADD15C,4.100000*%
%ADD16C,7.400000*%
%ADD17R,1.905000X2.000000*%
%ADD18O,1.905000X2.000000*%
%ADD19R,1.700000X1.700000*%
%ADD20C,1.700000*%
%ADD21RoundRect,0.250000X-0.620000X-0.845000X0.620000X-0.845000X0.620000X0.845000X-0.620000X0.845000X0*%
%ADD22O,1.740000X2.190000*%
%ADD23RoundRect,0.250000X-0.550000X-0.550000X0.550000X-0.550000X0.550000X0.550000X-0.550000X0.550000X0*%
%ADD24C,1.600000*%
%ADD25RoundRect,0.250000X-0.750000X-0.750000X0.750000X-0.750000X0.750000X0.750000X-0.750000X0.750000X0*%
%ADD26R,1.800000X1.800000*%
%ADD27C,1.800000*%
%ADD28C,3.000000*%
%ADD29RoundRect,0.250000X0.620000X0.845000X-0.620000X0.845000X-0.620000X-0.845000X0.620000X-0.845000X0*%
%ADD30R,3.500000X3.500000*%
%ADD31RoundRect,0.750000X-1.000000X0.750000X-1.000000X-0.750000X1.000000X-0.750000X1.000000X0.750000X0*%
%ADD32RoundRect,0.875000X-0.875000X0.875000X-0.875000X-0.875000X0.875000X-0.875000X0.875000X0.875000X0*%
%ADD33C,2.400000*%
%ADD34RoundRect,0.150000X-0.150000X0.512500X-0.150000X-0.512500X0.150000X-0.512500X0.150000X0.512500X0*%
%ADD35RoundRect,0.250000X0.475000X-0.337500X0.475000X0.337500X-0.475000X0.337500X-0.475000X-0.337500X0*%
%ADD36RoundRect,0.250000X0.450000X-0.350000X0.450000X0.350000X-0.450000X0.350000X-0.450000X-0.350000X0*%
%ADD37RoundRect,0.250000X0.550000X0.550000X-0.550000X0.550000X-0.550000X-0.550000X0.550000X-0.550000X0*%
%ADD38RoundRect,0.250000X1.330000X1.800000X-1.330000X1.800000X-1.330000X-1.800000X1.330000X-1.800000X0*%
%ADD39O,3.160000X4.100000*%
G04 APERTURE END LIST*
D10*
X118648496Y-52372419D02*
X118458020Y-52372419D01*
X118458020Y-52372419D02*
X118362782Y-52324800D01*
X118362782Y-52324800D02*
X118315163Y-52277180D01*
X118315163Y-52277180D02*
X118219925Y-52134323D01*
X118219925Y-52134323D02*
X118172306Y-51943847D01*
X118172306Y-51943847D02*
X118172306Y-51562895D01*
X118172306Y-51562895D02*
X118219925Y-51467657D01*
X118219925Y-51467657D02*
X118267544Y-51420038D01*
X118267544Y-51420038D02*
X118362782Y-51372419D01*
X118362782Y-51372419D02*
X118553258Y-51372419D01*
X118553258Y-51372419D02*
X118648496Y-51420038D01*
X118648496Y-51420038D02*
X118696115Y-51467657D01*
X118696115Y-51467657D02*
X118743734Y-51562895D01*
X118743734Y-51562895D02*
X118743734Y-51800990D01*
X118743734Y-51800990D02*
X118696115Y-51896228D01*
X118696115Y-51896228D02*
X118648496Y-51943847D01*
X118648496Y-51943847D02*
X118553258Y-51991466D01*
X118553258Y-51991466D02*
X118362782Y-51991466D01*
X118362782Y-51991466D02*
X118267544Y-51943847D01*
X118267544Y-51943847D02*
X118219925Y-51896228D01*
X118219925Y-51896228D02*
X118172306Y-51800990D01*
X117743734Y-51991466D02*
X116981830Y-51991466D01*
X115981830Y-52372419D02*
X116553258Y-52372419D01*
X116267544Y-52372419D02*
X116267544Y-51372419D01*
X116267544Y-51372419D02*
X116362782Y-51515276D01*
X116362782Y-51515276D02*
X116458020Y-51610514D01*
X116458020Y-51610514D02*
X116553258Y-51658133D01*
X115600877Y-51467657D02*
X115553258Y-51420038D01*
X115553258Y-51420038D02*
X115458020Y-51372419D01*
X115458020Y-51372419D02*
X115219925Y-51372419D01*
X115219925Y-51372419D02*
X115124687Y-51420038D01*
X115124687Y-51420038D02*
X115077068Y-51467657D01*
X115077068Y-51467657D02*
X115029449Y-51562895D01*
X115029449Y-51562895D02*
X115029449Y-51658133D01*
X115029449Y-51658133D02*
X115077068Y-51800990D01*
X115077068Y-51800990D02*
X115648496Y-52372419D01*
X115648496Y-52372419D02*
X115029449Y-52372419D01*
X113981829Y-51372419D02*
X113648496Y-52372419D01*
X113648496Y-52372419D02*
X113315163Y-51372419D01*
X112981829Y-52372419D02*
X112981829Y-51372419D01*
X112981829Y-51372419D02*
X112743734Y-51372419D01*
X112743734Y-51372419D02*
X112600877Y-51420038D01*
X112600877Y-51420038D02*
X112505639Y-51515276D01*
X112505639Y-51515276D02*
X112458020Y-51610514D01*
X112458020Y-51610514D02*
X112410401Y-51800990D01*
X112410401Y-51800990D02*
X112410401Y-51943847D01*
X112410401Y-51943847D02*
X112458020Y-52134323D01*
X112458020Y-52134323D02*
X112505639Y-52229561D01*
X112505639Y-52229561D02*
X112600877Y-52324800D01*
X112600877Y-52324800D02*
X112743734Y-52372419D01*
X112743734Y-52372419D02*
X112981829Y-52372419D01*
X111410401Y-52277180D02*
X111458020Y-52324800D01*
X111458020Y-52324800D02*
X111600877Y-52372419D01*
X111600877Y-52372419D02*
X111696115Y-52372419D01*
X111696115Y-52372419D02*
X111838972Y-52324800D01*
X111838972Y-52324800D02*
X111934210Y-52229561D01*
X111934210Y-52229561D02*
X111981829Y-52134323D01*
X111981829Y-52134323D02*
X112029448Y-51943847D01*
X112029448Y-51943847D02*
X112029448Y-51800990D01*
X112029448Y-51800990D02*
X111981829Y-51610514D01*
X111981829Y-51610514D02*
X111934210Y-51515276D01*
X111934210Y-51515276D02*
X111838972Y-51420038D01*
X111838972Y-51420038D02*
X111696115Y-51372419D01*
X111696115Y-51372419D02*
X111600877Y-51372419D01*
X111600877Y-51372419D02*
X111458020Y-51420038D01*
X111458020Y-51420038D02*
X111410401Y-51467657D01*
D11*
X176985714Y-51954819D02*
X177319047Y-51478628D01*
X177557142Y-51954819D02*
X177557142Y-50954819D01*
X177557142Y-50954819D02*
X177176190Y-50954819D01*
X177176190Y-50954819D02*
X177080952Y-51002438D01*
X177080952Y-51002438D02*
X177033333Y-51050057D01*
X177033333Y-51050057D02*
X176985714Y-51145295D01*
X176985714Y-51145295D02*
X176985714Y-51288152D01*
X176985714Y-51288152D02*
X177033333Y-51383390D01*
X177033333Y-51383390D02*
X177080952Y-51431009D01*
X177080952Y-51431009D02*
X177176190Y-51478628D01*
X177176190Y-51478628D02*
X177557142Y-51478628D01*
X176604761Y-51907200D02*
X176509523Y-51954819D01*
X176509523Y-51954819D02*
X176319047Y-51954819D01*
X176319047Y-51954819D02*
X176223809Y-51907200D01*
X176223809Y-51907200D02*
X176176190Y-51811961D01*
X176176190Y-51811961D02*
X176176190Y-51764342D01*
X176176190Y-51764342D02*
X176223809Y-51669104D01*
X176223809Y-51669104D02*
X176319047Y-51621485D01*
X176319047Y-51621485D02*
X176461904Y-51621485D01*
X176461904Y-51621485D02*
X176557142Y-51573866D01*
X176557142Y-51573866D02*
X176604761Y-51478628D01*
X176604761Y-51478628D02*
X176604761Y-51431009D01*
X176604761Y-51431009D02*
X176557142Y-51335771D01*
X176557142Y-51335771D02*
X176461904Y-51288152D01*
X176461904Y-51288152D02*
X176319047Y-51288152D01*
X176319047Y-51288152D02*
X176223809Y-51335771D01*
X175366666Y-51907200D02*
X175461904Y-51954819D01*
X175461904Y-51954819D02*
X175652380Y-51954819D01*
X175652380Y-51954819D02*
X175747618Y-51907200D01*
X175747618Y-51907200D02*
X175795237Y-51811961D01*
X175795237Y-51811961D02*
X175795237Y-51431009D01*
X175795237Y-51431009D02*
X175747618Y-51335771D01*
X175747618Y-51335771D02*
X175652380Y-51288152D01*
X175652380Y-51288152D02*
X175461904Y-51288152D01*
X175461904Y-51288152D02*
X175366666Y-51335771D01*
X175366666Y-51335771D02*
X175319047Y-51431009D01*
X175319047Y-51431009D02*
X175319047Y-51526247D01*
X175319047Y-51526247D02*
X175795237Y-51621485D01*
X174890475Y-51288152D02*
X174890475Y-51954819D01*
X174890475Y-51383390D02*
X174842856Y-51335771D01*
X174842856Y-51335771D02*
X174747618Y-51288152D01*
X174747618Y-51288152D02*
X174604761Y-51288152D01*
X174604761Y-51288152D02*
X174509523Y-51335771D01*
X174509523Y-51335771D02*
X174461904Y-51431009D01*
X174461904Y-51431009D02*
X174461904Y-51954819D01*
X174033332Y-51907200D02*
X173938094Y-51954819D01*
X173938094Y-51954819D02*
X173747618Y-51954819D01*
X173747618Y-51954819D02*
X173652380Y-51907200D01*
X173652380Y-51907200D02*
X173604761Y-51811961D01*
X173604761Y-51811961D02*
X173604761Y-51764342D01*
X173604761Y-51764342D02*
X173652380Y-51669104D01*
X173652380Y-51669104D02*
X173747618Y-51621485D01*
X173747618Y-51621485D02*
X173890475Y-51621485D01*
X173890475Y-51621485D02*
X173985713Y-51573866D01*
X173985713Y-51573866D02*
X174033332Y-51478628D01*
X174033332Y-51478628D02*
X174033332Y-51431009D01*
X174033332Y-51431009D02*
X173985713Y-51335771D01*
X173985713Y-51335771D02*
X173890475Y-51288152D01*
X173890475Y-51288152D02*
X173747618Y-51288152D01*
X173747618Y-51288152D02*
X173652380Y-51335771D01*
X172795237Y-51907200D02*
X172890475Y-51954819D01*
X172890475Y-51954819D02*
X173080951Y-51954819D01*
X173080951Y-51954819D02*
X173176189Y-51907200D01*
X173176189Y-51907200D02*
X173223808Y-51811961D01*
X173223808Y-51811961D02*
X173223808Y-51431009D01*
X173223808Y-51431009D02*
X173176189Y-51335771D01*
X173176189Y-51335771D02*
X173080951Y-51288152D01*
X173080951Y-51288152D02*
X172890475Y-51288152D01*
X172890475Y-51288152D02*
X172795237Y-51335771D01*
X172795237Y-51335771D02*
X172747618Y-51431009D01*
X172747618Y-51431009D02*
X172747618Y-51526247D01*
X172747618Y-51526247D02*
X173223808Y-51621485D01*
X171795237Y-51954819D02*
X172366665Y-51954819D01*
X172080951Y-51954819D02*
X172080951Y-50954819D01*
X172080951Y-50954819D02*
X172176189Y-51097676D01*
X172176189Y-51097676D02*
X172271427Y-51192914D01*
X172271427Y-51192914D02*
X172366665Y-51240533D01*
X172761904Y-67454819D02*
X172761904Y-68264342D01*
X172761904Y-68264342D02*
X172714285Y-68359580D01*
X172714285Y-68359580D02*
X172666666Y-68407200D01*
X172666666Y-68407200D02*
X172571428Y-68454819D01*
X172571428Y-68454819D02*
X172380952Y-68454819D01*
X172380952Y-68454819D02*
X172285714Y-68407200D01*
X172285714Y-68407200D02*
X172238095Y-68359580D01*
X172238095Y-68359580D02*
X172190476Y-68264342D01*
X172190476Y-68264342D02*
X172190476Y-67454819D01*
X171190476Y-68454819D02*
X171761904Y-68454819D01*
X171476190Y-68454819D02*
X171476190Y-67454819D01*
X171476190Y-67454819D02*
X171571428Y-67597676D01*
X171571428Y-67597676D02*
X171666666Y-67692914D01*
X171666666Y-67692914D02*
X171761904Y-67740533D01*
X178416666Y-64109580D02*
X178464285Y-64157200D01*
X178464285Y-64157200D02*
X178607142Y-64204819D01*
X178607142Y-64204819D02*
X178702380Y-64204819D01*
X178702380Y-64204819D02*
X178845237Y-64157200D01*
X178845237Y-64157200D02*
X178940475Y-64061961D01*
X178940475Y-64061961D02*
X178988094Y-63966723D01*
X178988094Y-63966723D02*
X179035713Y-63776247D01*
X179035713Y-63776247D02*
X179035713Y-63633390D01*
X179035713Y-63633390D02*
X178988094Y-63442914D01*
X178988094Y-63442914D02*
X178940475Y-63347676D01*
X178940475Y-63347676D02*
X178845237Y-63252438D01*
X178845237Y-63252438D02*
X178702380Y-63204819D01*
X178702380Y-63204819D02*
X178607142Y-63204819D01*
X178607142Y-63204819D02*
X178464285Y-63252438D01*
X178464285Y-63252438D02*
X178416666Y-63300057D01*
X178035713Y-63300057D02*
X177988094Y-63252438D01*
X177988094Y-63252438D02*
X177892856Y-63204819D01*
X177892856Y-63204819D02*
X177654761Y-63204819D01*
X177654761Y-63204819D02*
X177559523Y-63252438D01*
X177559523Y-63252438D02*
X177511904Y-63300057D01*
X177511904Y-63300057D02*
X177464285Y-63395295D01*
X177464285Y-63395295D02*
X177464285Y-63490533D01*
X177464285Y-63490533D02*
X177511904Y-63633390D01*
X177511904Y-63633390D02*
X178083332Y-64204819D01*
X178083332Y-64204819D02*
X177464285Y-64204819D01*
X171416666Y-64204819D02*
X171749999Y-63728628D01*
X171988094Y-64204819D02*
X171988094Y-63204819D01*
X171988094Y-63204819D02*
X171607142Y-63204819D01*
X171607142Y-63204819D02*
X171511904Y-63252438D01*
X171511904Y-63252438D02*
X171464285Y-63300057D01*
X171464285Y-63300057D02*
X171416666Y-63395295D01*
X171416666Y-63395295D02*
X171416666Y-63538152D01*
X171416666Y-63538152D02*
X171464285Y-63633390D01*
X171464285Y-63633390D02*
X171511904Y-63681009D01*
X171511904Y-63681009D02*
X171607142Y-63728628D01*
X171607142Y-63728628D02*
X171988094Y-63728628D01*
X171083332Y-63204819D02*
X170464285Y-63204819D01*
X170464285Y-63204819D02*
X170797618Y-63585771D01*
X170797618Y-63585771D02*
X170654761Y-63585771D01*
X170654761Y-63585771D02*
X170559523Y-63633390D01*
X170559523Y-63633390D02*
X170511904Y-63681009D01*
X170511904Y-63681009D02*
X170464285Y-63776247D01*
X170464285Y-63776247D02*
X170464285Y-64014342D01*
X170464285Y-64014342D02*
X170511904Y-64109580D01*
X170511904Y-64109580D02*
X170559523Y-64157200D01*
X170559523Y-64157200D02*
X170654761Y-64204819D01*
X170654761Y-64204819D02*
X170940475Y-64204819D01*
X170940475Y-64204819D02*
X171035713Y-64157200D01*
X171035713Y-64157200D02*
X171083332Y-64109580D01*
X149416666Y-90959580D02*
X149464285Y-91007200D01*
X149464285Y-91007200D02*
X149607142Y-91054819D01*
X149607142Y-91054819D02*
X149702380Y-91054819D01*
X149702380Y-91054819D02*
X149845237Y-91007200D01*
X149845237Y-91007200D02*
X149940475Y-90911961D01*
X149940475Y-90911961D02*
X149988094Y-90816723D01*
X149988094Y-90816723D02*
X150035713Y-90626247D01*
X150035713Y-90626247D02*
X150035713Y-90483390D01*
X150035713Y-90483390D02*
X149988094Y-90292914D01*
X149988094Y-90292914D02*
X149940475Y-90197676D01*
X149940475Y-90197676D02*
X149845237Y-90102438D01*
X149845237Y-90102438D02*
X149702380Y-90054819D01*
X149702380Y-90054819D02*
X149607142Y-90054819D01*
X149607142Y-90054819D02*
X149464285Y-90102438D01*
X149464285Y-90102438D02*
X149416666Y-90150057D01*
X148511904Y-90054819D02*
X148988094Y-90054819D01*
X148988094Y-90054819D02*
X149035713Y-90531009D01*
X149035713Y-90531009D02*
X148988094Y-90483390D01*
X148988094Y-90483390D02*
X148892856Y-90435771D01*
X148892856Y-90435771D02*
X148654761Y-90435771D01*
X148654761Y-90435771D02*
X148559523Y-90483390D01*
X148559523Y-90483390D02*
X148511904Y-90531009D01*
X148511904Y-90531009D02*
X148464285Y-90626247D01*
X148464285Y-90626247D02*
X148464285Y-90864342D01*
X148464285Y-90864342D02*
X148511904Y-90959580D01*
X148511904Y-90959580D02*
X148559523Y-91007200D01*
X148559523Y-91007200D02*
X148654761Y-91054819D01*
X148654761Y-91054819D02*
X148892856Y-91054819D01*
X148892856Y-91054819D02*
X148988094Y-91007200D01*
X148988094Y-91007200D02*
X149035713Y-90959580D01*
X141724819Y-74805476D02*
X142439104Y-74805476D01*
X142439104Y-74805476D02*
X142581961Y-74757857D01*
X142581961Y-74757857D02*
X142677200Y-74662619D01*
X142677200Y-74662619D02*
X142724819Y-74519762D01*
X142724819Y-74519762D02*
X142724819Y-74424524D01*
X142724819Y-75805476D02*
X142724819Y-75234048D01*
X142724819Y-75519762D02*
X141724819Y-75519762D01*
X141724819Y-75519762D02*
X141867676Y-75424524D01*
X141867676Y-75424524D02*
X141962914Y-75329286D01*
X141962914Y-75329286D02*
X142010533Y-75234048D01*
X141724819Y-76424524D02*
X141724819Y-76519762D01*
X141724819Y-76519762D02*
X141772438Y-76615000D01*
X141772438Y-76615000D02*
X141820057Y-76662619D01*
X141820057Y-76662619D02*
X141915295Y-76710238D01*
X141915295Y-76710238D02*
X142105771Y-76757857D01*
X142105771Y-76757857D02*
X142343866Y-76757857D01*
X142343866Y-76757857D02*
X142534342Y-76710238D01*
X142534342Y-76710238D02*
X142629580Y-76662619D01*
X142629580Y-76662619D02*
X142677200Y-76615000D01*
X142677200Y-76615000D02*
X142724819Y-76519762D01*
X142724819Y-76519762D02*
X142724819Y-76424524D01*
X142724819Y-76424524D02*
X142677200Y-76329286D01*
X142677200Y-76329286D02*
X142629580Y-76281667D01*
X142629580Y-76281667D02*
X142534342Y-76234048D01*
X142534342Y-76234048D02*
X142343866Y-76186429D01*
X142343866Y-76186429D02*
X142105771Y-76186429D01*
X142105771Y-76186429D02*
X141915295Y-76234048D01*
X141915295Y-76234048D02*
X141820057Y-76281667D01*
X141820057Y-76281667D02*
X141772438Y-76329286D01*
X141772438Y-76329286D02*
X141724819Y-76424524D01*
X156853333Y-69534819D02*
X156853333Y-70249104D01*
X156853333Y-70249104D02*
X156900952Y-70391961D01*
X156900952Y-70391961D02*
X156996190Y-70487200D01*
X156996190Y-70487200D02*
X157139047Y-70534819D01*
X157139047Y-70534819D02*
X157234285Y-70534819D01*
X156234285Y-69963390D02*
X156329523Y-69915771D01*
X156329523Y-69915771D02*
X156377142Y-69868152D01*
X156377142Y-69868152D02*
X156424761Y-69772914D01*
X156424761Y-69772914D02*
X156424761Y-69725295D01*
X156424761Y-69725295D02*
X156377142Y-69630057D01*
X156377142Y-69630057D02*
X156329523Y-69582438D01*
X156329523Y-69582438D02*
X156234285Y-69534819D01*
X156234285Y-69534819D02*
X156043809Y-69534819D01*
X156043809Y-69534819D02*
X155948571Y-69582438D01*
X155948571Y-69582438D02*
X155900952Y-69630057D01*
X155900952Y-69630057D02*
X155853333Y-69725295D01*
X155853333Y-69725295D02*
X155853333Y-69772914D01*
X155853333Y-69772914D02*
X155900952Y-69868152D01*
X155900952Y-69868152D02*
X155948571Y-69915771D01*
X155948571Y-69915771D02*
X156043809Y-69963390D01*
X156043809Y-69963390D02*
X156234285Y-69963390D01*
X156234285Y-69963390D02*
X156329523Y-70011009D01*
X156329523Y-70011009D02*
X156377142Y-70058628D01*
X156377142Y-70058628D02*
X156424761Y-70153866D01*
X156424761Y-70153866D02*
X156424761Y-70344342D01*
X156424761Y-70344342D02*
X156377142Y-70439580D01*
X156377142Y-70439580D02*
X156329523Y-70487200D01*
X156329523Y-70487200D02*
X156234285Y-70534819D01*
X156234285Y-70534819D02*
X156043809Y-70534819D01*
X156043809Y-70534819D02*
X155948571Y-70487200D01*
X155948571Y-70487200D02*
X155900952Y-70439580D01*
X155900952Y-70439580D02*
X155853333Y-70344342D01*
X155853333Y-70344342D02*
X155853333Y-70153866D01*
X155853333Y-70153866D02*
X155900952Y-70058628D01*
X155900952Y-70058628D02*
X155948571Y-70011009D01*
X155948571Y-70011009D02*
X156043809Y-69963390D01*
%TO.C,Rsense1*%
D12*
X163440000Y-57000000D02*
X164580000Y-57000000D01*
X185960000Y-57000000D02*
X184820000Y-57000000D01*
X164580000Y-52380000D02*
X184820000Y-52380000D01*
X184820000Y-61620000D01*
X164580000Y-61620000D01*
X164580000Y-52380000D01*
%TO.C,U1*%
X173140000Y-67090000D02*
X173140000Y-68910000D01*
X173140000Y-68910000D02*
X173190000Y-68910000D01*
X173190000Y-67090000D02*
X173140000Y-67090000D01*
X174310000Y-68910000D02*
X175090000Y-68910000D01*
X176210000Y-68910000D02*
X176260000Y-68910000D01*
X176260000Y-67090000D02*
X176210000Y-67090000D01*
X176260000Y-68910000D02*
X176260000Y-67090000D01*
X173190000Y-66550000D02*
X172860000Y-66310000D01*
X172860000Y-66790000D01*
X173190000Y-66550000D01*
G36*
X173190000Y-66550000D02*
G01*
X172860000Y-66790000D01*
X172860000Y-66310000D01*
X173190000Y-66550000D01*
G37*
%TO.C,C2*%
X175515000Y-64011252D02*
X175515000Y-63488748D01*
X176985000Y-64011252D02*
X176985000Y-63488748D01*
%TO.C,R3*%
X172515000Y-63977064D02*
X172515000Y-63522936D01*
X173985000Y-63977064D02*
X173985000Y-63522936D01*
%TO.C,C5*%
X146010000Y-94598000D02*
X146010000Y-95402000D01*
X146050000Y-94367000D02*
X146050000Y-95633000D01*
X146090000Y-94199000D02*
X146090000Y-95801000D01*
X146130000Y-94061000D02*
X146130000Y-95939000D01*
X146170000Y-93942000D02*
X146170000Y-96058000D01*
X146210000Y-93835000D02*
X146210000Y-96165000D01*
X146250000Y-93739000D02*
X146250000Y-96261000D01*
X146290000Y-93650000D02*
X146290000Y-96350000D01*
X146330000Y-93568000D02*
X146330000Y-96432000D01*
X146370000Y-93491000D02*
X146370000Y-96509000D01*
X146410000Y-93419000D02*
X146410000Y-96581000D01*
X146450000Y-93351000D02*
X146450000Y-96649000D01*
X146490000Y-93286000D02*
X146490000Y-96714000D01*
X146530000Y-93225000D02*
X146530000Y-96775000D01*
X146570000Y-93166000D02*
X146570000Y-96834000D01*
X146610000Y-93110000D02*
X146610000Y-96890000D01*
X146650000Y-93057000D02*
X146650000Y-96943000D01*
X146690000Y-93005000D02*
X146690000Y-96995000D01*
X146730000Y-92956000D02*
X146730000Y-97044000D01*
X146770000Y-92909000D02*
X146770000Y-97091000D01*
X146810000Y-92863000D02*
X146810000Y-97137000D01*
X146850000Y-92819000D02*
X146850000Y-97181000D01*
X146890000Y-92777000D02*
X146890000Y-97223000D01*
X146930000Y-92736000D02*
X146930000Y-97264000D01*
X146970000Y-92696000D02*
X146970000Y-93960000D01*
X146970000Y-96040000D02*
X146970000Y-97304000D01*
X147010000Y-92658000D02*
X147010000Y-93960000D01*
X147010000Y-96040000D02*
X147010000Y-97342000D01*
X147050000Y-92621000D02*
X147050000Y-93960000D01*
X147050000Y-96040000D02*
X147050000Y-97379000D01*
X147090000Y-92585000D02*
X147090000Y-93960000D01*
X147090000Y-96040000D02*
X147090000Y-97415000D01*
X147130000Y-92550000D02*
X147130000Y-93960000D01*
X147130000Y-96040000D02*
X147130000Y-97450000D01*
X147170000Y-92517000D02*
X147170000Y-93960000D01*
X147170000Y-96040000D02*
X147170000Y-97483000D01*
X147210000Y-92484000D02*
X147210000Y-93960000D01*
X147210000Y-96040000D02*
X147210000Y-97516000D01*
X147250000Y-92453000D02*
X147250000Y-93960000D01*
X147250000Y-96040000D02*
X147250000Y-97547000D01*
X147290000Y-92423000D02*
X147290000Y-93960000D01*
X147290000Y-96040000D02*
X147290000Y-97577000D01*
X147330000Y-92393000D02*
X147330000Y-93960000D01*
X147330000Y-96040000D02*
X147330000Y-97607000D01*
X147370000Y-92364000D02*
X147370000Y-93960000D01*
X147370000Y-96040000D02*
X147370000Y-97636000D01*
X147410000Y-92337000D02*
X147410000Y-93960000D01*
X147410000Y-96040000D02*
X147410000Y-97663000D01*
X147450000Y-92310000D02*
X147450000Y-93960000D01*
X147450000Y-96040000D02*
X147450000Y-97690000D01*
X147490000Y-92284000D02*
X147490000Y-93960000D01*
X147490000Y-96040000D02*
X147490000Y-97716000D01*
X147530000Y-92259000D02*
X147530000Y-93960000D01*
X147530000Y-96040000D02*
X147530000Y-97741000D01*
X147570000Y-92235000D02*
X147570000Y-93960000D01*
X147570000Y-96040000D02*
X147570000Y-97765000D01*
X147610000Y-92211000D02*
X147610000Y-93960000D01*
X147610000Y-96040000D02*
X147610000Y-97789000D01*
X147650000Y-92188000D02*
X147650000Y-93960000D01*
X147650000Y-96040000D02*
X147650000Y-97812000D01*
X147690000Y-92166000D02*
X147690000Y-93960000D01*
X147690000Y-96040000D02*
X147690000Y-97834000D01*
X147730000Y-92145000D02*
X147730000Y-93960000D01*
X147730000Y-96040000D02*
X147730000Y-97855000D01*
X147770000Y-92124000D02*
X147770000Y-93960000D01*
X147770000Y-96040000D02*
X147770000Y-97876000D01*
X147810000Y-92104000D02*
X147810000Y-93960000D01*
X147810000Y-96040000D02*
X147810000Y-97896000D01*
X147850000Y-92085000D02*
X147850000Y-93960000D01*
X147850000Y-96040000D02*
X147850000Y-97915000D01*
X147890000Y-92066000D02*
X147890000Y-93960000D01*
X147890000Y-96040000D02*
X147890000Y-97934000D01*
X147930000Y-92048000D02*
X147930000Y-93960000D01*
X147930000Y-96040000D02*
X147930000Y-97952000D01*
X147970000Y-92031000D02*
X147970000Y-93960000D01*
X147970000Y-96040000D02*
X147970000Y-97969000D01*
X148010000Y-92014000D02*
X148010000Y-93960000D01*
X148010000Y-96040000D02*
X148010000Y-97986000D01*
X148050000Y-91998000D02*
X148050000Y-93960000D01*
X148050000Y-96040000D02*
X148050000Y-98002000D01*
X148090000Y-91983000D02*
X148090000Y-93960000D01*
X148090000Y-96040000D02*
X148090000Y-98017000D01*
X148130000Y-91968000D02*
X148130000Y-93960000D01*
X148130000Y-96040000D02*
X148130000Y-98032000D01*
X148170000Y-91953000D02*
X148170000Y-93960000D01*
X148170000Y-96040000D02*
X148170000Y-98047000D01*
X148210000Y-91940000D02*
X148210000Y-93960000D01*
X148210000Y-96040000D02*
X148210000Y-98060000D01*
X148250000Y-91927000D02*
X148250000Y-93960000D01*
X148250000Y-96040000D02*
X148250000Y-98073000D01*
X148290000Y-91914000D02*
X148290000Y-93960000D01*
X148290000Y-96040000D02*
X148290000Y-98086000D01*
X148330000Y-91902000D02*
X148330000Y-93960000D01*
X148330000Y-96040000D02*
X148330000Y-98098000D01*
X148370000Y-91891000D02*
X148370000Y-93960000D01*
X148370000Y-96040000D02*
X148370000Y-98109000D01*
X148410000Y-91880000D02*
X148410000Y-93960000D01*
X148410000Y-96040000D02*
X148410000Y-98120000D01*
X148450000Y-91869000D02*
X148450000Y-93960000D01*
X148450000Y-96040000D02*
X148450000Y-98131000D01*
X148490000Y-91860000D02*
X148490000Y-93960000D01*
X148490000Y-96040000D02*
X148490000Y-98140000D01*
X148530000Y-91850000D02*
X148530000Y-93960000D01*
X148530000Y-96040000D02*
X148530000Y-98150000D01*
X148570000Y-91841000D02*
X148570000Y-93960000D01*
X148570000Y-96040000D02*
X148570000Y-98159000D01*
X148610000Y-91833000D02*
X148610000Y-93960000D01*
X148610000Y-96040000D02*
X148610000Y-98167000D01*
X148650000Y-91826000D02*
X148650000Y-93960000D01*
X148650000Y-96040000D02*
X148650000Y-98174000D01*
X148690000Y-91818000D02*
X148690000Y-93960000D01*
X148690000Y-96040000D02*
X148690000Y-98182000D01*
X148730000Y-91812000D02*
X148730000Y-93960000D01*
X148730000Y-96040000D02*
X148730000Y-98188000D01*
X148770000Y-91805000D02*
X148770000Y-93960000D01*
X148770000Y-96040000D02*
X148770000Y-98195000D01*
X148810000Y-91800000D02*
X148810000Y-93960000D01*
X148810000Y-96040000D02*
X148810000Y-98200000D01*
X148850000Y-91795000D02*
X148850000Y-93960000D01*
X148850000Y-96040000D02*
X148850000Y-98205000D01*
X148890000Y-91790000D02*
X148890000Y-93960000D01*
X148890000Y-96040000D02*
X148890000Y-98210000D01*
X148930000Y-91786000D02*
X148930000Y-93960000D01*
X148930000Y-96040000D02*
X148930000Y-98214000D01*
X148970000Y-91782000D02*
X148970000Y-93960000D01*
X148970000Y-96040000D02*
X148970000Y-98218000D01*
X149010000Y-91779000D02*
X149010000Y-93960000D01*
X149010000Y-96040000D02*
X149010000Y-98221000D01*
X149050000Y-91776000D02*
X149050000Y-98224000D01*
X149090000Y-91774000D02*
X149090000Y-98226000D01*
X149130000Y-91772000D02*
X149130000Y-98228000D01*
X149170000Y-91771000D02*
X149170000Y-98229000D01*
X149210000Y-91770000D02*
X149210000Y-98230000D01*
X149250000Y-91770000D02*
X149250000Y-98230000D01*
X152435241Y-92846000D02*
X152435241Y-93476000D01*
X152750241Y-93161000D02*
X152120241Y-93161000D01*
X152520000Y-95000000D02*
G75*
G02*
X145980000Y-95000000I-3270000J0D01*
G01*
X145980000Y-95000000D02*
G75*
G02*
X152520000Y-95000000I3270000J0D01*
G01*
%TO.C,J10*%
X129410000Y-69850000D02*
X129410000Y-75850000D01*
X129410000Y-78922642D02*
X129410000Y-78610000D01*
X130270000Y-69850000D02*
X129410000Y-69850000D01*
X130270000Y-75850000D02*
X130270000Y-69850000D01*
X130270000Y-78922642D02*
X130270000Y-78610000D01*
X131110000Y-78610000D02*
X131110000Y-75850000D01*
X131950000Y-69850000D02*
X131950000Y-75850000D01*
X131950000Y-78922642D02*
X131950000Y-78610000D01*
X132810000Y-69850000D02*
X131950000Y-69850000D01*
X132810000Y-75850000D02*
X132810000Y-69850000D01*
X132810000Y-78922642D02*
X132810000Y-78610000D01*
X133650000Y-78610000D02*
X133650000Y-75850000D01*
X134490000Y-69850000D02*
X134490000Y-75850000D01*
X134490000Y-78922642D02*
X134490000Y-78610000D01*
X135350000Y-69850000D02*
X134490000Y-69850000D01*
X135350000Y-75850000D02*
X135350000Y-69850000D01*
X135350000Y-78922642D02*
X135350000Y-78610000D01*
X136190000Y-78610000D02*
X136190000Y-75850000D01*
X137030000Y-69850000D02*
X137030000Y-75850000D01*
X137030000Y-78922642D02*
X137030000Y-78610000D01*
X137890000Y-69850000D02*
X137030000Y-69850000D01*
X137890000Y-75850000D02*
X137890000Y-69850000D01*
X137890000Y-78922642D02*
X137890000Y-78610000D01*
X138730000Y-78610000D02*
X138730000Y-75850000D01*
X139570000Y-78840000D02*
X139570000Y-78610000D01*
X140000000Y-81270000D02*
X141270000Y-81270000D01*
X140430000Y-78840000D02*
X140430000Y-78610000D01*
X141270000Y-81270000D02*
X141270000Y-80000000D01*
X139570000Y-69850000D02*
X140430000Y-69850000D01*
X140430000Y-75850000D01*
X139570000Y-75850000D01*
X139570000Y-69850000D01*
G36*
X139570000Y-69850000D02*
G01*
X140430000Y-69850000D01*
X140430000Y-75850000D01*
X139570000Y-75850000D01*
X139570000Y-69850000D01*
G37*
X128460000Y-75850000D02*
X141380000Y-75850000D01*
X141380000Y-78610000D01*
X128460000Y-78610000D01*
X128460000Y-75850000D01*
%TO.C,J8*%
X152525000Y-71180000D02*
X152525000Y-74700000D01*
X152525000Y-74700000D02*
X160515000Y-74700000D01*
X153740000Y-71780000D02*
X153740000Y-71180000D01*
X155340000Y-71180000D02*
X155340000Y-71780000D01*
X155340000Y-71780000D02*
X153740000Y-71780000D01*
X157700000Y-71780000D02*
X157700000Y-71180000D01*
X159300000Y-71180000D02*
X159300000Y-71780000D01*
X159300000Y-71780000D02*
X157700000Y-71780000D01*
X160515000Y-71180000D02*
X152525000Y-71180000D01*
X160515000Y-74700000D02*
X160515000Y-71180000D01*
X160805000Y-78000000D02*
X160805000Y-82000000D01*
%TD*%
%LPC*%
D13*
%TO.C,D1*%
X151000000Y-59500000D03*
D14*
X151000000Y-54420000D03*
%TD*%
D15*
%TO.C,H3*%
X195000000Y-55000000D03*
D16*
X195000000Y-55000000D03*
%TD*%
D17*
%TO.C,U3*%
X190000000Y-122500000D03*
D18*
X192540000Y-122500000D03*
X195080000Y-122500000D03*
%TD*%
D19*
%TO.C,J6*%
X150500000Y-113931800D03*
D20*
X153040000Y-113931800D03*
X155580000Y-113931800D03*
X158120000Y-113931800D03*
X160660000Y-113931800D03*
X163200000Y-113931800D03*
X165740000Y-113931800D03*
%TD*%
D21*
%TO.C,J5*%
X102500000Y-135000000D03*
D22*
X105040000Y-135000000D03*
X107580000Y-135000000D03*
X110120000Y-135000000D03*
X112660000Y-135000000D03*
%TD*%
D23*
%TO.C,C6*%
X190000000Y-99500000D03*
D24*
X192500000Y-99500000D03*
%TD*%
D21*
%TO.C,J2*%
X102500000Y-111000000D03*
D22*
X105040000Y-111000000D03*
X107580000Y-111000000D03*
X110120000Y-111000000D03*
X112660000Y-111000000D03*
%TD*%
D25*
%TO.C,C4*%
X105000000Y-81000000D03*
D14*
X110000000Y-81000000D03*
%TD*%
D19*
%TO.C,J12*%
X179248000Y-101231800D03*
D20*
X181788000Y-101231800D03*
X179248000Y-103771800D03*
X181788000Y-103771800D03*
X179248000Y-106311800D03*
X181788000Y-106311800D03*
X179248000Y-108851800D03*
X181788000Y-108851800D03*
X179248000Y-111391800D03*
X181788000Y-111391800D03*
X179248000Y-113931800D03*
X181788000Y-113931800D03*
X179248000Y-116471800D03*
X181788000Y-116471800D03*
X179248000Y-119011800D03*
X181788000Y-119011800D03*
X179248000Y-121551800D03*
X181788000Y-121551800D03*
X179248000Y-124091800D03*
X181788000Y-124091800D03*
X179248000Y-126631800D03*
X181788000Y-126631800D03*
X179248000Y-129171800D03*
X181788000Y-129171800D03*
X179248000Y-131711800D03*
X181788000Y-131711800D03*
X179248000Y-134251800D03*
X181788000Y-134251800D03*
X179248000Y-136791800D03*
X181788000Y-136791800D03*
X179248000Y-139331800D03*
X181788000Y-139331800D03*
X179248000Y-141871800D03*
X181788000Y-141871800D03*
X179248000Y-144411800D03*
X181788000Y-144411800D03*
X179248000Y-146951800D03*
X181788000Y-146951800D03*
%TD*%
D26*
%TO.C,D7*%
X103500000Y-66000000D03*
D27*
X106040000Y-66000000D03*
%TD*%
D15*
%TO.C,H1*%
X105000000Y-55000000D03*
D16*
X105000000Y-55000000D03*
%TD*%
D15*
%TO.C,H4*%
X195000000Y-145000000D03*
D16*
X195000000Y-145000000D03*
%TD*%
D21*
%TO.C,J4*%
X102500000Y-127000000D03*
D22*
X105040000Y-127000000D03*
X107580000Y-127000000D03*
X110120000Y-127000000D03*
X112660000Y-127000000D03*
%TD*%
D15*
%TO.C,H2*%
X105000000Y-145000000D03*
D16*
X105000000Y-145000000D03*
%TD*%
D19*
%TO.C,J9*%
X150500000Y-101231800D03*
D20*
X153040000Y-101231800D03*
X155580000Y-101231800D03*
X158120000Y-101231800D03*
X160660000Y-101231800D03*
X163200000Y-101231800D03*
X165740000Y-101231800D03*
%TD*%
D19*
%TO.C,J11*%
X118288000Y-101231800D03*
D20*
X120828000Y-101231800D03*
X118288000Y-103771800D03*
X120828000Y-103771800D03*
X118288000Y-106311800D03*
X120828000Y-106311800D03*
X118288000Y-108851800D03*
X120828000Y-108851800D03*
X118288000Y-111391800D03*
X120828000Y-111391800D03*
X118288000Y-113931800D03*
X120828000Y-113931800D03*
X118288000Y-116471800D03*
X120828000Y-116471800D03*
X118288000Y-119011800D03*
X120828000Y-119011800D03*
X118288000Y-121551800D03*
X120828000Y-121551800D03*
X118288000Y-124091800D03*
X120828000Y-124091800D03*
X118288000Y-126631800D03*
X120828000Y-126631800D03*
X118288000Y-129171800D03*
X120828000Y-129171800D03*
X118288000Y-131711800D03*
X120828000Y-131711800D03*
X118288000Y-134251800D03*
X120828000Y-134251800D03*
X118288000Y-136791800D03*
X120828000Y-136791800D03*
X118288000Y-139331800D03*
X120828000Y-139331800D03*
X118288000Y-141871800D03*
X120828000Y-141871800D03*
X118288000Y-144411800D03*
X120828000Y-144411800D03*
X118288000Y-146951800D03*
X120828000Y-146951800D03*
%TD*%
D28*
%TO.C,F1*%
X123000000Y-57000000D03*
X145600000Y-57000000D03*
%TD*%
D21*
%TO.C,J3*%
X102500000Y-119000000D03*
D22*
X105040000Y-119000000D03*
X107580000Y-119000000D03*
X110120000Y-119000000D03*
X112660000Y-119000000D03*
%TD*%
D17*
%TO.C,U2*%
X105000000Y-101000000D03*
D18*
X107540000Y-101000000D03*
X110080000Y-101000000D03*
%TD*%
D29*
%TO.C,J7*%
X195000000Y-135000000D03*
D22*
X192460000Y-135000000D03*
X189920000Y-135000000D03*
%TD*%
D30*
%TO.C,J1*%
X115000000Y-64000000D03*
D31*
X115000000Y-58000000D03*
D32*
X110300000Y-61000000D03*
%TD*%
D33*
%TO.C,Rsense1*%
X162000000Y-57000000D03*
X187400000Y-57000000D03*
%TD*%
D34*
%TO.C,U1*%
X173750000Y-66862500D03*
X174700000Y-66862500D03*
X175650000Y-66862500D03*
X175650000Y-69137500D03*
X173750000Y-69137500D03*
%TD*%
D35*
%TO.C,C2*%
X176250000Y-64787500D03*
X176250000Y-62712500D03*
%TD*%
D36*
%TO.C,R3*%
X173250000Y-64750000D03*
X173250000Y-62750000D03*
%TD*%
D37*
%TO.C,C5*%
X150500000Y-95000000D03*
D24*
X148000000Y-95000000D03*
%TD*%
D19*
%TO.C,J10*%
X140000000Y-80000000D03*
D20*
X137460000Y-80000000D03*
X134920000Y-80000000D03*
X132380000Y-80000000D03*
X129840000Y-80000000D03*
%TD*%
D38*
%TO.C,J8*%
X158500000Y-80000000D03*
D39*
X154540000Y-80000000D03*
%TD*%
%LPD*%
M02*
