M48
; DRILL file KiCad 10.0.5 date 2026-09-03T14:11:26
; FORMAT={-:-/ absolute / metric / decimal}
; #@! TF.CreationDate,2026-09-03T14:11:26+02:00
; #@! TF.GenerationSoftware,Kicad,Pcbnew,10.0.5
; #@! TF.FileFunction,MixedPlating,1,2
FMAT,2
METRIC
; #@! TA.AperFunction,Plated,PTH,ViaDrill
T1C0.300
; #@! TA.AperFunction,Plated,PTH,ComponentDrill
T2C0.800
; #@! TA.AperFunction,Plated,PTH,ComponentDrill
T3C0.900
; #@! TA.AperFunction,Plated,PTH,ComponentDrill
T4C1.000
; #@! TA.AperFunction,Plated,PTH,ComponentDrill
T5C1.100
; #@! TA.AperFunction,Plated,PTH,ComponentDrill
T6C1.190
; #@! TA.AperFunction,Plated,PTH,ComponentDrill
T7C1.200
; #@! TA.AperFunction,Plated,PTH,ComponentDrill
T8C1.500
; #@! TA.AperFunction,Plated,PTH,ComponentDrill
T9C1.700
; #@! TA.AperFunction,Plated,PTH,ComponentDrill
T10C3.700
%
G90
G05
T1
X108.9Y-91.1
X108.9Y-94.5
X110.0Y-104.5
X124.0Y-96.0
X130.0Y-130.0
X130.0Y-140.0
X135.0Y-110.0
X135.0Y-115.0
X137.46Y-98.54
X140.0Y-110.0
X140.0Y-115.0
X140.0Y-130.0
X140.0Y-140.0
X143.0Y-104.0
X143.0Y-118.1
X143.0Y-120.3
X150.0Y-130.0
X150.0Y-140.0
X160.0Y-130.0
X160.0Y-140.0
X165.0Y-53.0
X165.0Y-85.0
X165.0Y-95.0
X170.0Y-110.0
X170.0Y-115.0
X170.0Y-130.0
X170.0Y-140.0
X171.25Y-71.5
X172.857Y-66.643
X175.0Y-53.0
X175.0Y-85.0
X175.0Y-95.0
X175.0Y-110.0
X175.0Y-115.0
X181.5Y-71.5
X184.0Y-111.5
X184.0Y-126.0
X185.0Y-53.0
X186.5Y-108.0
X188.0Y-129.172
X189.0Y-128.0
X194.25Y-111.0
X194.25Y-115.0
X196.0Y-65.0
X196.0Y-75.0
X196.0Y-85.0
T2
X148.0Y-95.0
X150.5Y-95.0
X190.0Y-99.5
X192.5Y-99.5
T3
X103.5Y-66.0
X106.04Y-66.0
T4
X105.0Y-81.0
X110.0Y-81.0
X118.288Y-101.232
X118.288Y-103.772
X118.288Y-106.312
X118.288Y-108.852
X118.288Y-111.392
X118.288Y-113.932
X118.288Y-116.472
X118.288Y-119.012
X118.288Y-121.552
X118.288Y-124.092
X118.288Y-126.632
X118.288Y-129.172
X118.288Y-131.712
X118.288Y-134.252
X118.288Y-136.792
X118.288Y-139.332
X118.288Y-141.872
X118.288Y-144.412
X118.288Y-146.952
X120.828Y-101.232
X120.828Y-103.772
X120.828Y-106.312
X120.828Y-108.852
X120.828Y-111.392
X120.828Y-113.932
X120.828Y-116.472
X120.828Y-119.012
X120.828Y-121.552
X120.828Y-124.092
X120.828Y-126.632
X120.828Y-129.172
X120.828Y-131.712
X120.828Y-134.252
X120.828Y-136.792
X120.828Y-139.332
X120.828Y-141.872
X120.828Y-144.412
X120.828Y-146.952
X129.84Y-80.0
X132.38Y-80.0
X134.92Y-80.0
X137.46Y-80.0
X140.0Y-80.0
X150.5Y-101.232
X150.5Y-113.932
X153.04Y-101.232
X153.04Y-113.932
X155.58Y-101.232
X155.58Y-113.932
X158.12Y-101.232
X158.12Y-113.932
X160.66Y-101.232
X160.66Y-113.932
X163.2Y-101.232
X163.2Y-113.932
X165.74Y-101.232
X165.74Y-113.932
X179.248Y-101.232
X179.248Y-103.772
X179.248Y-106.312
X179.248Y-108.852
X179.248Y-111.392
X179.248Y-113.932
X179.248Y-116.472
X179.248Y-119.012
X179.248Y-121.552
X179.248Y-124.092
X179.248Y-126.632
X179.248Y-129.172
X179.248Y-131.712
X179.248Y-134.252
X179.248Y-136.792
X179.248Y-139.332
X179.248Y-141.872
X179.248Y-144.412
X179.248Y-146.952
X181.788Y-101.232
X181.788Y-103.772
X181.788Y-106.312
X181.788Y-108.852
X181.788Y-111.392
X181.788Y-113.932
X181.788Y-116.472
X181.788Y-119.012
X181.788Y-121.552
X181.788Y-124.092
X181.788Y-126.632
X181.788Y-129.172
X181.788Y-131.712
X181.788Y-134.252
X181.788Y-136.792
X181.788Y-139.332
X181.788Y-141.872
X181.788Y-144.412
X181.788Y-146.952
T5
X105.0Y-101.0
X107.54Y-101.0
X110.08Y-101.0
X151.0Y-54.42
X151.0Y-59.5
X190.0Y-122.5
X192.54Y-122.5
X195.08Y-122.5
T6
X102.5Y-111.0
X102.5Y-119.0
X102.5Y-127.0
X102.5Y-135.0
X105.04Y-111.0
X105.04Y-119.0
X105.04Y-127.0
X105.04Y-135.0
X107.58Y-111.0
X107.58Y-119.0
X107.58Y-127.0
X107.58Y-135.0
X110.12Y-111.0
X110.12Y-119.0
X110.12Y-127.0
X110.12Y-135.0
X112.66Y-111.0
X112.66Y-119.0
X112.66Y-127.0
X112.66Y-135.0
X189.92Y-135.0
X192.46Y-135.0
X195.0Y-135.0
T7
X162.0Y-57.0
X187.4Y-57.0
T8
X123.0Y-57.0
X145.6Y-57.0
T9
X154.54Y-80.0
X158.5Y-80.0
T10
X105.0Y-55.0
X105.0Y-145.0
X195.0Y-55.0
X195.0Y-145.0
T4
X110.3Y-60.0G85X110.3Y-62.0
G05
X116.0Y-58.0G85X114.0Y-58.0
G05
X116.0Y-64.0G85X114.0Y-64.0
G05
M30
